<?xml version="1.0" encoding="UTF-8" standalone="no"?>
<svg
   xmlns:dc="http://purl.org/dc/elements/1.1/"
   xmlns:cc="http://creativecommons.org/ns#"
   xmlns:rdf="http://www.w3.org/1999/02/22-rdf-syntax-ns#"
   xmlns:svg="http://www.w3.org/2000/svg"
   xmlns="http://www.w3.org/2000/svg"
   xmlns:sodipodi="http://sodipodi.sourceforge.net/DTD/sodipodi-0.dtd"
   xmlns:inkscape="http://www.inkscape.org/namespaces/inkscape"
   version="1.1"
   id="svg2"
   xml:space="preserve"
   width="666.66669"
   height="666.66669"
   viewBox="0 0 666.66669 666.66669"
   sodipodi:docname="future_plan.ai"><metadata
     id="metadata8"><rdf:RDF><cc:Work
         rdf:about=""><dc:format>image/svg+xml</dc:format><dc:type
           rdf:resource="http://purl.org/dc/dcmitype/StillImage" /></cc:Work></rdf:RDF></metadata><defs
     id="defs6"><clipPath
       clipPathUnits="userSpaceOnUse"
       id="clipPath50"><path
         d="M 0,500 H 500 V 0 H 0 Z"
         id="path48" /></clipPath><clipPath
       clipPathUnits="userSpaceOnUse"
       id="clipPath98"><path
         d="M 0,500 H 500 V 0 H 0 Z"
         id="path96" /></clipPath><clipPath
       clipPathUnits="userSpaceOnUse"
       id="clipPath118"><path
         d="M 0,500 H 500 V 0 H 0 Z"
         id="path116" /></clipPath><clipPath
       clipPathUnits="userSpaceOnUse"
       id="clipPath130"><path
         d="M 0,500 H 500 V 0 H 0 Z"
         id="path128" /></clipPath><clipPath
       clipPathUnits="userSpaceOnUse"
       id="clipPath162"><path
         d="M 0,500 H 500 V 0 H 0 Z"
         id="path160" /></clipPath><clipPath
       clipPathUnits="userSpaceOnUse"
       id="clipPath182"><path
         d="m 313.637,430.509 h 36.815 v -36.815 h -36.815 z"
         id="path180" /></clipPath><clipPath
       clipPathUnits="userSpaceOnUse"
       id="clipPath218"><path
         d="m 332.851,427.118 h 14.075 v -12.895 h -14.075 z"
         id="path216" /></clipPath><clipPath
       clipPathUnits="userSpaceOnUse"
       id="clipPath238"><path
         d="M 0,500 H 500 V 0 H 0 Z"
         id="path236" /></clipPath><clipPath
       clipPathUnits="userSpaceOnUse"
       id="clipPath342"><path
         d="m 273.093,160.293 h 3.815 v -3.772 h -3.815 z"
         id="path340" /></clipPath><clipPath
       clipPathUnits="userSpaceOnUse"
       id="clipPath358"><path
         d="m 263.933,149.816 h 48.282 v -11.275 h -48.282 z"
         id="path356" /></clipPath><clipPath
       clipPathUnits="userSpaceOnUse"
       id="clipPath390"><path
         d="m 269.185,179.223 h 24.407 v -8.503 h -24.407 z"
         id="path388" /></clipPath><clipPath
       clipPathUnits="userSpaceOnUse"
       id="clipPath410"><path
         d="m 198.734,114.314 h 3.804 v -3.777 h -3.804 z"
         id="path408" /></clipPath><clipPath
       clipPathUnits="userSpaceOnUse"
       id="clipPath426"><path
         d="m 190.785,102.903 h 48.761 v -6.7683 h -48.761 z"
         id="path424" /></clipPath><clipPath
       clipPathUnits="userSpaceOnUse"
       id="clipPath458"><path
         d="m 193.266,132.672 h 24.317 v -6.333 h -24.317 z"
         id="path456" /></clipPath><clipPath
       clipPathUnits="userSpaceOnUse"
       id="clipPath482"><path
         d="m 357.101,259.723 h 44.442 v -43.082 h -44.442 z"
         id="path480" /></clipPath><clipPath
       clipPathUnits="userSpaceOnUse"
       id="clipPath502"><path
         d="M 182.918,438.36 H 383.202 V 248.081 H 182.918 Z"
         id="path500" /></clipPath><clipPath
       clipPathUnits="userSpaceOnUse"
       id="clipPath518"><path
         d="M 168.927,414.968 H 360.723 V 233.287 H 168.927 Z"
         id="path516" /></clipPath></defs><sodipodi:namedview
     pagecolor="#ffffff"
     bordercolor="#666666"
     borderopacity="1"
     objecttolerance="10"
     gridtolerance="10"
     guidetolerance="10"
     inkscape:pageopacity="0"
     inkscape:pageshadow="2"
     inkscape:window-width="640"
     inkscape:window-height="480"
     id="namedview4" /><g
     id="g10"
     inkscape:groupmode="layer"
     inkscape:label="future_plan"
     transform="matrix(1.3333333,0,0,-1.3333333,0,666.66667)"><g
       id="g12"
       transform="translate(126.0802,290.5778)"><path
         d="M 0,0 50.507,2.319 41.329,-47.009 Z"
         style="fill:#ececec;fill-opacity:1;fill-rule:nonzero;stroke:none"
         id="path14" /></g><g
       id="g16"
       transform="translate(74.5036,184.1696)"><path
         d="M 0,0 -18.823,21.41 67.76,97.531 86.583,76.12 Z"
         style="fill:#ececec;fill-opacity:1;fill-rule:nonzero;stroke:none"
         id="path18" /></g><g
       id="g20"
       transform="translate(332.1029,366.8079)"><path
         d="M 0,0 50.507,2.319 41.329,-47.009 Z"
         style="fill:#ececec;fill-opacity:1;fill-rule:nonzero;stroke:none"
         id="path22" /></g><g
       id="g24"
       transform="translate(280.5262,260.3997)"><path
         d="M 0,0 -18.823,21.41 67.76,97.531 86.583,76.12 Z"
         style="fill:#ececec;fill-opacity:1;fill-rule:nonzero;stroke:none"
         id="path26" /></g><g
       id="g28"
       transform="translate(138.7182,355.3466)"><path
         d="m 0,0 32.406,1.488 -5.889,-31.65 z"
         style="fill:#f5f5f5;fill-opacity:1;fill-rule:nonzero;stroke:none"
         id="path30" /></g><g
       id="g32"
       transform="translate(105.626,287.0735)"><path
         d="M 0,0 -12.077,13.737 43.475,62.577 55.553,48.84 Z"
         style="fill:#f5f5f5;fill-opacity:1;fill-rule:nonzero;stroke:none"
         id="path34" /></g><g
       id="g36"
       transform="translate(415.4913,353.6244)"><path
         d="m 0,0 32.406,1.488 -5.889,-31.65 z"
         style="fill:#f5f5f5;fill-opacity:1;fill-rule:nonzero;stroke:none"
         id="path38" /></g><g
       id="g40"
       transform="translate(382.3991,285.3513)"><path
         d="M 0,0 -12.077,13.737 43.476,62.577 55.553,48.84 Z"
         style="fill:#f5f5f5;fill-opacity:1;fill-rule:nonzero;stroke:none"
         id="path42" /></g><g
       id="g44"><g
         id="g46"
         clip-path="url(#clipPath50)"><g
           id="g52"
           transform="translate(341.7263,76.1141)"><path
             d="m 0,0 h -46.482 c -1.342,0 -2.43,1.088 -2.43,2.43 v 12.105 c 0,1.342 1.088,2.43 2.43,2.43 H 0 c 1.342,0 2.43,-1.088 2.43,-2.43 V 2.43 C 2.43,1.088 1.342,0 0,0"
             style="fill:#ececec;fill-opacity:1;fill-rule:nonzero;stroke:none"
             id="path54" /></g><g
           id="g56"
           transform="translate(354.0692,93.0048)"><path
             d="M 0,0 C -0.015,0.047 0.502,-0.049 1.249,0.41 1.611,0.637 2.005,1.042 2.212,1.634 2.43,2.221 2.307,2.982 2.329,3.818 2.317,5.505 2.302,7.552 2.285,9.924 c -0.007,1.191 -0.013,2.463 -0.02,3.812 -0.005,0.684 0.057,1.363 -0.318,1.933 -0.332,0.572 -0.942,1 -1.632,1.088 -12.004,-0.014 -28.535,-0.032 -46.794,-0.052 -1.034,0.018 -1.991,-0.794 -2.14,-1.804 -0.067,-1.038 -0.019,-2.225 -0.034,-3.318 -0.002,-2.226 -0.003,-4.42 -0.004,-6.576 -0.001,-0.539 -0.001,-1.075 -0.002,-1.609 0.019,-0.535 -0.052,-1.085 0.073,-1.524 0.226,-0.931 1.126,-1.619 2.062,-1.623 2.072,-0.004 4.101,-0.007 6.08,-0.011 7.917,-0.021 15.048,-0.04 21.05,-0.056 C -13.427,0.149 -8.587,0.121 -5.203,0.101 -3.554,0.08 -2.26,0.064 -1.345,0.052 -0.927,0.042 -0.595,0.033 -0.342,0.027 -0.116,0.018 0,0.009 0,0 0,-0.009 -0.116,-0.018 -0.342,-0.027 -0.595,-0.033 -0.927,-0.042 -1.345,-0.052 -2.26,-0.064 -3.553,-0.08 -5.203,-0.101 c -3.384,-0.02 -8.224,-0.048 -14.191,-0.083 -6.002,-0.016 -13.133,-0.035 -21.05,-0.056 -1.982,-0.002 -4.014,-0.004 -6.089,-0.006 -1.151,0.002 -2.258,0.844 -2.54,1.992 -0.155,0.591 -0.069,1.123 -0.093,1.652 -0.001,0.534 -0.001,1.07 -0.001,1.609 -0.002,2.156 -0.003,4.35 -0.004,6.576 0.017,1.132 -0.042,2.193 0.039,3.405 0.185,1.254 1.371,2.26 2.653,2.238 18.294,-0.013 34.813,-10e-4 46.845,-0.105 0.803,-0.109 1.506,-0.611 1.883,-1.275 0.192,-0.33 0.31,-0.698 0.34,-1.068 C 2.611,14.4 2.592,14.08 2.596,13.736 2.589,12.387 2.582,11.115 2.576,9.924 2.559,7.552 2.544,5.505 2.532,3.818 2.493,2.99 2.607,2.223 2.358,1.582 2.12,0.956 1.691,0.544 1.304,0.321 0.915,0.09 0.57,0.021 0.344,0 0.117,-0.021 0,0 0,0"
             style="fill:#e1e1e1;fill-opacity:1;fill-rule:nonzero;stroke:none"
             id="path58" /></g><g
           id="g60"
           transform="translate(93.8188,380.3363)"><path
             d="m 0,0 h -46.482 c -1.342,0 -2.43,1.088 -2.43,2.43 v 12.105 c 0,1.342 1.088,2.43 2.43,2.43 H 0 c 1.342,0 2.43,-1.088 2.43,-2.43 V 2.43 C 2.43,1.088 1.342,0 0,0"
             style="fill:#f5f5f5;fill-opacity:1;fill-rule:nonzero;stroke:none"
             id="path62" /></g><g
           id="g64"
           transform="translate(119.4901,397.3017)"><path
             d="M 0,0 C -0.014,0.047 0.502,-0.049 1.249,0.41 1.611,0.637 2.005,1.042 2.212,1.634 2.43,2.221 2.307,2.983 2.329,3.818 2.317,5.505 2.302,7.552 2.285,9.924 c -0.006,1.191 -0.013,2.464 -0.02,3.812 -0.005,0.684 0.057,1.363 -0.318,1.933 -0.332,0.572 -0.942,1 -1.632,1.088 -12.004,-0.014 -28.535,-0.032 -46.794,-0.052 -1.034,0.018 -1.991,-0.794 -2.14,-1.804 -0.067,-1.038 -0.019,-2.225 -0.034,-3.318 -0.002,-2.226 -0.003,-4.42 -0.004,-6.576 -0.001,-0.539 -0.001,-1.075 -0.002,-1.609 0.019,-0.535 -0.052,-1.085 0.073,-1.523 0.226,-0.932 1.126,-1.62 2.062,-1.624 2.072,-0.004 4.101,-0.007 6.08,-0.011 7.917,-0.021 15.048,-0.04 21.05,-0.056 5.967,-0.035 10.807,-0.063 14.191,-0.083 1.65,-0.02 2.943,-0.037 3.858,-0.049 0.419,-0.01 0.75,-0.019 1.003,-0.025 C -0.116,0.018 0,0.009 0,0 0,-0.009 -0.116,-0.018 -0.342,-0.027 -0.595,-0.033 -0.926,-0.042 -1.345,-0.052 -2.26,-0.064 -3.553,-0.08 -5.203,-0.101 c -3.384,-0.02 -8.224,-0.048 -14.191,-0.083 -6.002,-0.016 -13.133,-0.035 -21.05,-0.056 -1.982,-0.002 -4.014,-0.004 -6.089,-0.006 -1.151,0.002 -2.258,0.844 -2.54,1.992 -0.155,0.591 -0.069,1.123 -0.093,1.652 0,0.534 -0.001,1.07 -0.001,1.609 -0.002,2.156 -0.003,4.35 -0.004,6.576 0.017,1.132 -0.042,2.193 0.039,3.405 0.185,1.254 1.371,2.26 2.653,2.238 18.294,-0.013 34.814,-10e-4 46.845,-0.105 0.804,-0.109 1.506,-0.611 1.883,-1.275 0.192,-0.33 0.31,-0.698 0.34,-1.068 C 2.611,14.4 2.592,14.08 2.596,13.736 2.589,12.388 2.582,11.115 2.576,9.924 2.559,7.552 2.544,5.505 2.532,3.818 2.493,2.99 2.607,2.223 2.358,1.582 2.12,0.956 1.691,0.544 1.305,0.321 0.915,0.09 0.57,0.021 0.344,0 0.117,-0.021 0,0 0,0"
             style="fill:#e1e1e1;fill-opacity:1;fill-rule:nonzero;stroke:none"
             id="path66" /></g><g
           id="g68"
           transform="translate(455.3785,45.8333)"><path
             d="m 0,0 h -46.482 c -1.342,0 -2.43,1.088 -2.43,2.43 v 12.105 c 0,1.342 1.088,2.43 2.43,2.43 H 0 c 1.342,0 2.43,-1.088 2.43,-2.43 V 2.43 C 2.43,1.088 1.342,0 0,0"
             style="fill:#ececec;fill-opacity:1;fill-rule:nonzero;stroke:none"
             id="path70" /></g><g
           id="g72"
           transform="translate(445.9459,172.8577)"><path
             d="M 0,0 C -0.014,0.047 0.502,-0.049 1.249,0.41 1.611,0.637 2.005,1.042 2.212,1.634 2.43,2.221 2.307,2.982 2.329,3.818 2.317,5.505 2.302,7.552 2.285,9.924 c -0.006,1.191 -0.013,2.463 -0.02,3.812 -0.005,0.684 0.057,1.363 -0.318,1.933 -0.332,0.572 -0.942,1 -1.632,1.088 -12.004,-0.014 -28.535,-0.032 -46.794,-0.052 -1.034,0.018 -1.991,-0.794 -2.14,-1.804 -0.067,-1.038 -0.019,-2.225 -0.034,-3.318 -0.002,-2.226 -0.003,-4.42 -0.004,-6.576 -0.001,-0.539 -0.001,-1.075 -0.002,-1.609 0.019,-0.535 -0.052,-1.085 0.073,-1.524 0.226,-0.931 1.126,-1.619 2.062,-1.623 2.072,-0.004 4.101,-0.008 6.08,-0.011 7.917,-0.021 15.048,-0.04 21.05,-0.056 5.967,-0.035 10.807,-0.063 14.191,-0.083 1.65,-0.02 2.943,-0.037 3.858,-0.048 0.418,-0.011 0.75,-0.02 1.003,-0.026 C -0.116,0.018 0,0.009 0,0 0,-0.009 -0.116,-0.018 -0.342,-0.027 -0.595,-0.033 -0.927,-0.042 -1.345,-0.052 -2.26,-0.064 -3.553,-0.08 -5.203,-0.101 c -3.384,-0.02 -8.224,-0.048 -14.191,-0.083 -6.002,-0.016 -13.133,-0.035 -21.05,-0.056 -1.982,-0.002 -4.014,-0.004 -6.089,-0.006 -1.151,0.002 -2.258,0.844 -2.54,1.992 -0.155,0.591 -0.069,1.123 -0.093,1.652 -0.001,0.534 -0.001,1.07 -0.001,1.609 -0.002,2.156 -0.003,4.35 -0.004,6.576 0.017,1.132 -0.042,2.193 0.039,3.405 0.185,1.254 1.371,2.26 2.653,2.238 18.294,-0.013 34.814,-10e-4 46.845,-0.105 0.803,-0.109 1.506,-0.611 1.883,-1.275 0.192,-0.33 0.31,-0.698 0.34,-1.068 C 2.611,14.4 2.592,14.08 2.596,13.736 2.589,12.387 2.582,11.115 2.576,9.924 2.559,7.552 2.544,5.505 2.532,3.818 2.493,2.99 2.607,2.223 2.358,1.582 2.12,0.956 1.691,0.544 1.305,0.321 0.915,0.09 0.57,0.021 0.344,0 0.117,-0.021 0,0 0,0"
             style="fill:#e1e1e1;fill-opacity:1;fill-rule:nonzero;stroke:none"
             id="path74" /></g><g
           id="g76"
           transform="translate(131.6246,129.4172)"><path
             d="M 0,0 C -0.015,0.047 0.502,-0.049 1.249,0.41 1.611,0.637 2.005,1.042 2.212,1.634 2.43,2.221 2.307,2.982 2.329,3.818 2.317,5.505 2.302,7.552 2.285,9.924 c -0.007,1.191 -0.013,2.463 -0.02,3.812 -0.005,0.684 0.057,1.363 -0.318,1.933 -0.332,0.572 -0.942,1 -1.632,1.088 -12.004,-0.014 -28.535,-0.032 -46.794,-0.052 -1.034,0.018 -1.991,-0.794 -2.14,-1.804 -0.067,-1.038 -0.019,-2.225 -0.034,-3.318 -0.002,-2.226 -0.003,-4.42 -0.004,-6.576 -0.001,-0.539 -0.001,-1.075 -0.002,-1.609 0.019,-0.535 -0.052,-1.085 0.073,-1.524 0.226,-0.931 1.126,-1.619 2.062,-1.623 2.072,-0.004 4.101,-0.007 6.08,-0.011 7.917,-0.021 15.048,-0.04 21.05,-0.056 C -13.427,0.149 -8.587,0.121 -5.203,0.101 -3.554,0.08 -2.26,0.064 -1.345,0.052 -0.927,0.042 -0.595,0.033 -0.342,0.027 -0.116,0.018 0,0.009 0,0 0,-0.009 -0.116,-0.018 -0.342,-0.027 -0.595,-0.033 -0.927,-0.042 -1.345,-0.053 -2.26,-0.064 -3.553,-0.081 -5.203,-0.101 c -3.384,-0.02 -8.224,-0.048 -14.191,-0.083 -6.002,-0.016 -13.133,-0.035 -21.05,-0.056 -1.982,-0.002 -4.014,-0.004 -6.089,-0.006 -1.151,0.002 -2.258,0.844 -2.54,1.992 -0.155,0.591 -0.069,1.123 -0.093,1.652 -0.001,0.534 -0.001,1.07 -0.001,1.609 -0.002,2.156 -0.003,4.35 -0.004,6.576 0.017,1.132 -0.042,2.193 0.039,3.405 0.185,1.254 1.371,2.26 2.653,2.238 18.294,-0.013 34.813,-10e-4 46.845,-0.105 0.804,-0.109 1.506,-0.611 1.883,-1.275 0.192,-0.33 0.31,-0.698 0.34,-1.068 C 2.611,14.4 2.592,14.08 2.596,13.736 2.589,12.387 2.582,11.115 2.576,9.924 2.559,7.552 2.544,5.505 2.532,3.818 2.493,2.99 2.607,2.223 2.358,1.582 2.12,0.956 1.691,0.544 1.304,0.321 0.915,0.09 0.57,0.021 0.344,0 0.117,-0.021 0,0 0,0"
             style="fill:#e1e1e1;fill-opacity:1;fill-rule:nonzero;stroke:none"
             id="path78" /></g><g
           id="g80"
           transform="translate(429.7071,393.3223)"><path
             d="M 0,0 C -0.014,0.047 0.502,-0.049 1.249,0.41 1.611,0.637 2.005,1.042 2.212,1.634 2.43,2.221 2.307,2.983 2.329,3.818 2.317,5.505 2.302,7.552 2.285,9.924 c -0.006,1.191 -0.013,2.464 -0.02,3.812 -0.005,0.684 0.057,1.363 -0.318,1.933 -0.332,0.572 -0.942,1 -1.632,1.088 -12.004,-0.014 -28.535,-0.032 -46.794,-0.052 -1.034,0.018 -1.991,-0.794 -2.14,-1.804 -0.067,-1.038 -0.019,-2.225 -0.034,-3.318 -0.002,-2.226 -0.003,-4.42 -0.004,-6.576 -0.001,-0.539 -0.001,-1.075 -0.002,-1.609 0.019,-0.535 -0.052,-1.085 0.073,-1.523 0.226,-0.932 1.126,-1.62 2.062,-1.624 2.072,-0.004 4.101,-0.007 6.08,-0.011 7.917,-0.021 15.048,-0.04 21.05,-0.056 5.967,-0.035 10.807,-0.063 14.191,-0.083 1.65,-0.02 2.943,-0.037 3.858,-0.049 0.418,-0.01 0.75,-0.019 1.003,-0.025 C -0.116,0.018 0,0.009 0,0 0,-0.009 -0.116,-0.018 -0.342,-0.027 -0.595,-0.033 -0.927,-0.042 -1.345,-0.052 -2.26,-0.064 -3.553,-0.08 -5.203,-0.101 c -3.384,-0.02 -8.224,-0.048 -14.191,-0.083 -6.002,-0.016 -13.133,-0.035 -21.05,-0.056 -1.982,-0.002 -4.014,-0.004 -6.089,-0.006 -1.151,0.002 -2.258,0.844 -2.54,1.992 -0.155,0.591 -0.069,1.123 -0.093,1.652 -0.001,0.534 -0.001,1.07 -0.001,1.609 -0.002,2.156 -0.003,4.35 -0.004,6.576 0.017,1.132 -0.042,2.193 0.039,3.405 0.185,1.254 1.371,2.26 2.653,2.238 18.294,-0.013 34.814,-10e-4 46.845,-0.105 0.804,-0.109 1.506,-0.611 1.883,-1.275 0.192,-0.33 0.31,-0.698 0.34,-1.068 C 2.611,14.4 2.592,14.08 2.596,13.736 2.589,12.388 2.582,11.115 2.576,9.924 2.559,7.552 2.544,5.505 2.532,3.818 2.493,2.99 2.607,2.223 2.358,1.582 2.12,0.956 1.691,0.544 1.305,0.321 0.915,0.09 0.57,0.021 0.344,0 0.117,-0.021 0,0 0,0"
             style="fill:#e1e1e1;fill-opacity:1;fill-rule:nonzero;stroke:none"
             id="path82" /></g><g
           id="g84"
           transform="translate(247.3948,31.0633)"><path
             d="m 0,0 h -46.482 c -1.342,0 -2.43,1.088 -2.43,2.43 v 12.105 c 0,1.342 1.088,2.431 2.43,2.431 H 0 c 1.342,0 2.43,-1.089 2.43,-2.431 V 2.43 C 2.43,1.088 1.342,0 0,0"
             style="fill:#ececec;fill-opacity:1;fill-rule:nonzero;stroke:none"
             id="path86" /></g><g
           id="g88"
           transform="translate(445.9459,455.8774)"><path
             d="m 0,0 h -46.482 c -1.342,0 -2.43,1.088 -2.43,2.43 v 12.105 c 0,1.342 1.088,2.43 2.43,2.43 H 0 c 1.342,0 2.43,-1.088 2.43,-2.43 V 2.43 C 2.43,1.088 1.342,0 0,0"
             style="fill:#f5f5f5;fill-opacity:1;fill-rule:nonzero;stroke:none"
             id="path90" /></g></g></g><g
       id="g92"><g
         id="g94"
         clip-path="url(#clipPath98)"><g
           id="g100"
           transform="translate(435.6872,396.8199)"><path
             d="m 0,0 -2.366,3.899 c -19.944,32.865 -56.003,52.677 -94.021,50.273 -4.887,-0.309 -9.753,-0.971 -14.553,-1.998 -34.567,-7.399 -64.643,-33.539 -77.11,-67.015 -7.332,-19.689 -9.38,-42.357 -23.294,-57.985 -18.108,-20.338 -48.85,-20.977 -75.879,-20.134 -27.029,0.842 -57.791,0.124 -75.811,-20.295 -11.286,-12.788 -14.872,-30.973 -13.962,-48.099 2.409,-45.341 34.003,-85.882 74.183,-106.033 40.18,-20.151 87.487,-21.956 131.462,-13.092 61.603,12.418 120.187,46.521 155.4,99.194 C 19.262,-128.612 28.174,-56.851 0,0"
             style="fill:#f5f5f5;fill-opacity:1;fill-rule:nonzero;stroke:none"
             id="path102" /></g><g
           id="g104"
           transform="translate(435.9899,96.1347)"><path
             d="m 0,0 c 0,-24.053 -19.498,-43.551 -43.551,-43.551 -24.052,0 -43.551,19.498 -43.551,43.551 0,24.052 19.499,43.551 43.551,43.551 C -19.498,43.551 0,24.052 0,0"
             style="fill:#f5f5f5;fill-opacity:1;fill-rule:nonzero;stroke:none"
             id="path106" /></g><g
           id="g108"
           transform="translate(157.7679,374.0132)"><path
             d="m 0,0 c 0,-24.053 -19.498,-43.551 -43.551,-43.551 -24.052,0 -43.551,19.498 -43.551,43.551 0,24.052 19.499,43.551 43.551,43.551 C -19.498,43.551 0,24.052 0,0"
             style="fill:#f5f5f5;fill-opacity:1;fill-rule:nonzero;stroke:none"
             id="path110" /></g></g></g><g
       id="g112"><g
         id="g114"
         clip-path="url(#clipPath118)"><g
           id="g120"
           transform="translate(44.9969,15.8096)"><path
             d="m 0,0 c 0,0.008 0.09,0.015 0.267,0.023 0.185,0.005 0.448,0.013 0.794,0.023 0.71,0.01 1.754,0.025 3.123,0.044 2.76,0.02 6.825,0.049 12.088,0.086 10.547,0.035 25.888,0.086 45.102,0.15 L 61.049,0 c -0.024,12.574 -0.05,26.841 -0.08,42.51 l -10e-4,0.404 0.406,10e-4 c 21.148,0.023 44.849,0.049 70.456,0.077 l -0.482,-0.482 c -0.008,12.562 -0.016,25.767 -0.024,39.362 v 0.507 h 0.507 c 20.829,0.004 42.913,0.009 65.629,0.014 4.431,0 8.838,0 13.214,0 l -0.52,-0.521 c 0.004,15.43 0.007,30.519 0.011,45.148 v 0.51 h 0.509 c 28.408,-0.02 55.13,-0.039 79.403,-0.057 l -0.452,-0.452 c 0.044,28.281 0.082,53.215 0.114,73.811 l 0.001,0.339 0.338,-0.001 c 21.303,-0.066 38.246,-0.119 49.872,-0.155 5.803,-0.039 10.278,-0.069 13.311,-0.089 1.507,-0.02 2.653,-0.036 3.433,-0.046 0.38,-0.011 0.669,-0.019 0.872,-0.024 0.195,-0.008 0.293,-0.016 0.293,-0.024 0,-0.008 -0.098,-0.016 -0.293,-0.024 -0.203,-0.006 -0.492,-0.014 -0.872,-0.024 -0.78,-0.011 -1.926,-0.026 -3.433,-0.047 -3.033,-0.02 -7.508,-0.05 -13.311,-0.089 -11.626,-0.036 -28.569,-0.088 -49.872,-0.154 l 0.337,0.338 c 0.033,-20.596 0.071,-45.53 0.115,-73.811 l 0.001,-0.453 h -0.454 c -24.273,-0.018 -50.995,-0.037 -79.403,-0.057 l 0.51,0.509 c 0.003,-14.629 0.007,-29.718 0.011,-45.148 v -0.52 h -0.521 c -4.376,0 -8.783,0 -13.214,0 -22.716,0.005 -44.8,0.01 -65.629,0.014 l 0.506,0.506 c -0.009,-13.595 -0.017,-26.8 -0.024,-39.362 v -0.483 h -0.483 c -25.607,0.028 -49.308,0.055 -70.456,0.078 l 0.405,0.405 C 61.75,26.841 61.723,12.574 61.7,0 l -0.001,-0.327 -0.325,0.002 C 42.16,-0.262 26.819,-0.21 16.272,-0.176 11.009,-0.138 6.944,-0.11 4.184,-0.09 2.815,-0.071 1.771,-0.056 1.061,-0.046 0.715,-0.036 0.452,-0.028 0.267,-0.023 0.09,-0.015 0,-0.008 0,0"
             style="fill:#1a2e35;fill-opacity:1;fill-rule:nonzero;stroke:none"
             id="path122" /></g></g></g><g
       id="g124"><g
         id="g126"
         clip-path="url(#clipPath130)"><g
           id="g132"
           transform="translate(64.668,65.7356)"><path
             d="m 0,0 c 2.36,-1.024 4.096,-3.205 4.967,-5.626 0.871,-2.421 0.949,-5.065 0.659,-7.621 -0.56,-4.945 -3.37,-9.938 -6.396,-13.89 -4.165,3.635 -5.123,9.975 -5.407,13.222 C -6.626,-8.783 -4.321,0.765 0,0"
             style="fill:#ff735d;fill-opacity:1;fill-rule:nonzero;stroke:none"
             id="path134" /></g><g
           id="g136"
           transform="translate(68.7388,30.4366)"><path
             d="m 0,0 c -0.667,2.795 0.496,5.861 2.642,7.773 2.146,1.912 5.143,2.721 8.009,2.502 1.324,-0.102 2.756,-0.488 3.515,-1.579 0.709,-1.02 0.63,-2.443 0.054,-3.544 C 13.644,4.051 12.649,3.229 11.596,2.568 7.988,0.304 4.08,-1.225 0,0"
             style="fill:#ff735d;fill-opacity:1;fill-rule:nonzero;stroke:none"
             id="path138" /></g><g
           id="g140"
           transform="translate(63.398,15.2724)"><path
             d="m 0,0 c -0.025,0.006 0.032,0.366 0.148,1.015 0.131,0.715 0.301,1.637 0.504,2.746 0.46,2.295 1.051,5.583 2.835,8.774 1.759,3.184 4.222,5.528 6.296,6.692 1.03,0.595 1.931,0.95 2.568,1.135 0.314,0.106 0.57,0.146 0.739,0.188 0.17,0.036 0.261,0.049 0.264,0.037 C 13.383,20.506 11.911,20.241 9.915,19.008 7.913,17.81 5.532,15.489 3.802,12.36 2.053,9.235 1.425,5.993 0.902,3.71 0.65,2.559 0.445,1.627 0.286,0.986 0.127,0.345 0.023,-0.005 0,0"
             style="fill:#1a2e35;fill-opacity:1;fill-rule:nonzero;stroke:none"
             id="path142" /></g><g
           id="g144"
           transform="translate(63.5549,58.3099)"><path
             d="M 0,0 C 0.012,0 0.03,-0.152 0.051,-0.444 0.07,-0.773 0.096,-1.195 0.126,-1.718 0.186,-2.826 0.251,-4.429 0.314,-6.41 0.443,-10.373 0.543,-15.85 0.518,-21.9 0.491,-27.952 0.343,-33.429 0.18,-37.39 c -0.081,-1.981 -0.16,-3.583 -0.228,-4.69 -0.036,-0.522 -0.065,-0.945 -0.087,-1.274 -0.024,-0.291 -0.042,-0.443 -0.055,-0.443 -0.012,10e-4 -0.018,0.154 -0.018,0.446 0.005,0.33 0.011,0.753 0.019,1.277 0.028,1.153 0.067,2.745 0.114,4.692 0.098,3.962 0.205,9.436 0.233,15.484 0.025,6.045 -0.035,11.519 -0.098,15.482 -0.031,1.948 -0.056,3.54 -0.074,4.693 -0.003,0.524 -0.006,0.947 -0.008,1.277 C -0.02,-0.154 -0.012,0 0,0"
             style="fill:#1a2e35;fill-opacity:1;fill-rule:nonzero;stroke:none"
             id="path146" /></g><g
           id="g148"
           transform="translate(61.5334,27.4258)"><path
             d="m 0,0 c -0.948,5.984 -4.98,11.394 -10.444,14.011 -1.392,0.667 -3.209,1.102 -4.353,0.067 -1.146,-1.037 -0.889,-2.898 -0.329,-4.338 2.333,-5.992 8.598,-10.222 15.027,-10.146"
             style="fill:#ff735d;fill-opacity:1;fill-rule:nonzero;stroke:none"
             id="path150" /></g><g
           id="g152"
           transform="translate(51.764,36.746)"><path
             d="m 0,0 c 0.011,0.022 0.324,-0.115 0.884,-0.385 0.281,-0.133 0.624,-0.298 0.998,-0.533 0.374,-0.233 0.827,-0.461 1.271,-0.797 0.455,-0.321 0.962,-0.662 1.455,-1.094 0.518,-0.404 1.021,-0.891 1.548,-1.407 1.026,-1.057 2.059,-2.32 2.941,-3.779 0.869,-1.467 1.498,-2.974 1.937,-4.381 0.198,-0.711 0.389,-1.385 0.49,-2.034 0.141,-0.641 0.193,-1.25 0.25,-1.804 0.076,-0.552 0.05,-1.059 0.069,-1.5 0.02,-0.441 -0.008,-0.821 -0.034,-1.131 -0.045,-0.62 -0.082,-0.96 -0.107,-0.958 -0.081,0.003 0.061,1.376 -0.182,3.563 -0.072,0.545 -0.138,1.143 -0.29,1.772 -0.111,0.637 -0.31,1.298 -0.513,1.994 -0.45,1.378 -1.076,2.852 -1.929,4.294 -0.867,1.433 -1.874,2.679 -2.87,3.732 -0.512,0.514 -1,1.002 -1.503,1.41 C 3.938,-2.602 3.446,-2.254 3.007,-1.923 1.217,-0.641 -0.036,-0.07 0,0"
             style="fill:#1a2e35;fill-opacity:1;fill-rule:nonzero;stroke:none"
             id="path154" /></g></g></g><g
       id="g156"><g
         id="g158"
         clip-path="url(#clipPath162)"><g
           id="g164"
           transform="translate(293.5778,419.1158)"><path
             d="m 0,0 8.739,4.187 c 1.73,5.295 4.899,10.193 9.461,14.057 13.119,11.114 32.765,9.488 43.879,-3.631 11.114,-13.12 9.489,-32.765 -3.631,-43.88 -13.12,-11.114 -32.765,-9.488 -43.88,3.632 -4.64,5.478 -7.052,12.094 -7.341,18.752 L 7.223,-6.9 Z"
             style="fill:#ffffff;fill-opacity:1;fill-rule:nonzero;stroke:none"
             id="path166" /></g><g
           id="g168"
           transform="translate(293.5778,419.1158)"><path
             d="m 0,0 c 0,0 0.138,-0.147 0.439,-0.443 0.318,-0.312 0.767,-0.753 1.352,-1.326 1.229,-1.195 3.026,-2.942 5.358,-5.21 0.042,-0.041 0.111,-0.04 0.152,0.003 0.015,0.014 0.024,0.034 0.028,0.053 l 0.004,0.017 -0.214,0.018 c 0.16,-3.997 1.148,-9.32 4.348,-14.701 0.792,-1.34 1.726,-2.669 2.798,-3.959 1.132,-1.235 2.263,-2.564 3.661,-3.693 2.703,-2.343 5.996,-4.373 9.761,-5.734 3.758,-1.364 7.982,-2.055 12.342,-1.821 4.355,0.228 8.843,1.391 12.985,3.571 4.155,2.153 7.88,5.414 10.766,9.408 2.878,3.997 4.918,8.78 5.584,13.881 l 0.243,1.918 0.068,1.924 0.033,0.959 -0.054,0.955 -0.116,1.904 c -0.061,0.63 -0.187,1.252 -0.278,1.876 -0.111,0.62 -0.163,1.251 -0.348,1.853 -0.327,1.211 -0.58,2.438 -1.059,3.586 -1.673,4.674 -4.417,8.816 -7.796,12.084 -3.407,3.248 -7.431,5.604 -11.581,7.009 -4.154,1.413 -8.425,1.887 -12.426,1.589 C 32.042,25.428 28.31,24.366 25.064,22.838 23.415,22.111 21.955,21.156 20.536,20.255 19.209,19.224 17.882,18.285 16.774,17.184 12.242,12.86 9.849,8.01 8.637,4.22 L 8.693,4.284 C 5.862,2.896 3.68,1.826 2.186,1.093 1.474,0.74 0.926,0.469 0.538,0.277 0.172,0.094 0,0 0,0 0,0 0.21,0.088 0.593,0.265 0.992,0.45 1.556,0.711 2.288,1.051 3.78,1.749 5.959,2.768 8.785,4.09 c 0.027,0.013 0.047,0.038 0.056,0.064 1.244,3.75 3.653,8.536 8.163,12.788 1.102,1.083 2.421,2.005 3.737,3.018 1.407,0.882 2.854,1.821 4.485,2.531 3.214,1.494 6.9,2.529 10.855,2.805 3.948,0.281 8.157,-0.199 12.246,-1.601 4.086,-1.393 8.043,-3.72 11.392,-6.923 3.323,-3.224 6.018,-7.303 7.66,-11.902 0.472,-1.13 0.718,-2.338 1.04,-3.529 0.183,-0.592 0.232,-1.213 0.342,-1.824 0.088,-0.613 0.212,-1.225 0.272,-1.845 l 0.114,-1.873 0.053,-0.94 -0.033,-0.943 -0.066,-1.893 -0.24,-1.887 c -0.655,-5.02 -2.661,-9.725 -5.489,-13.659 -2.836,-3.931 -6.5,-7.148 -10.587,-9.272 -4.074,-2.151 -8.49,-3.305 -12.781,-3.54 -4.296,-0.241 -8.461,0.428 -12.172,1.762 -3.718,1.33 -6.975,3.321 -9.655,5.624 -1.386,1.108 -2.508,2.417 -3.634,3.632 -1.067,1.27 -1.997,2.58 -2.788,3.901 C 8.558,-16.112 7.537,-10.847 7.336,-6.878 7.333,-6.819 7.283,-6.772 7.223,-6.774 7.173,-6.776 7.132,-6.813 7.121,-6.86 l -0.003,-0.017 0.18,0.055 C 4.95,-4.618 3.141,-2.922 1.904,-1.761 1.294,-1.193 0.827,-0.757 0.496,-0.449 0.177,-0.154 0,0 0,0"
             style="fill:#1a2e35;fill-opacity:1;fill-rule:nonzero;stroke:none"
             id="path170" /></g><g
           id="g172"
           transform="translate(350.4522,412.1017)"><path
             d="m 0,0 c 0,-10.166 -8.241,-18.408 -18.408,-18.408 -10.166,0 -18.407,8.242 -18.407,18.408 0,10.166 8.241,18.408 18.407,18.408 C -8.241,18.408 0,10.166 0,0"
             style="fill:#ff735d;fill-opacity:1;fill-rule:nonzero;stroke:none"
             id="path174" /></g><g
           id="g176"><g
             id="g178" /><g
             id="g190"><g
               clip-path="url(#clipPath182)"
               opacity="0.300003"
               id="g188"><g
                 transform="translate(350.4522,412.1017)"
                 id="g186"><path
                   d="m 0,0 c 0,-10.166 -8.241,-18.408 -18.408,-18.408 -10.166,0 -18.407,8.242 -18.407,18.408 0,10.166 8.241,18.408 18.407,18.408 C -8.241,18.408 0,10.166 0,0"
                   style="fill:#000000;fill-opacity:1;fill-rule:nonzero;stroke:none"
                   id="path184" /></g></g></g></g><g
           id="g192"
           transform="translate(350.4522,414.1348)"><path
             d="m 0,0 c 0,-10.166 -8.241,-18.408 -18.408,-18.408 -10.166,0 -18.407,8.242 -18.407,18.408 0,10.166 8.241,18.408 18.407,18.408 C -8.241,18.408 0,10.166 0,0"
             style="fill:#ff735d;fill-opacity:1;fill-rule:nonzero;stroke:none"
             id="path194" /></g><g
           id="g196"
           transform="translate(344.3743,414.1348)"><path
             d="m 0,0 c 0,-6.81 -5.52,-12.33 -12.33,-12.33 -6.809,0 -12.33,5.52 -12.33,12.33 0,6.81 5.521,12.33 12.33,12.33 C -5.52,12.33 0,6.81 0,0"
             style="fill:#ffffff;fill-opacity:1;fill-rule:nonzero;stroke:none"
             id="path198" /></g><g
           id="g200"
           transform="translate(338.0783,414.1348)"><path
             d="m 0,0 c 0,-3.332 -2.701,-6.034 -6.034,-6.034 -3.332,0 -6.034,2.702 -6.034,6.034 0,3.332 2.702,6.034 6.034,6.034 C -2.701,6.034 0,3.332 0,0"
             style="fill:#ff735d;fill-opacity:1;fill-rule:nonzero;stroke:none"
             id="path202" /></g><g
           id="g204"
           transform="translate(344.8745,427.6108)"><path
             d="M 0,0 -0.5,3.927 3.497,8.206 3.785,3.968 Z"
             style="fill:#375a64;fill-opacity:1;fill-rule:nonzero;stroke:none"
             id="path206" /></g><g
           id="g208"
           transform="translate(353.4546,430.7359)"><path
             d="m 0,0 -4.056,0.33 -4.065,-3.91 4.066,-0.435 z"
             style="fill:#375a64;fill-opacity:1;fill-rule:nonzero;stroke:none"
             id="path210" /></g><g
           id="g212"><g
             id="g214" /><g
             id="g226"><g
               clip-path="url(#clipPath218)"
               opacity="0.300003"
               id="g224"><g
                 transform="translate(332.8507,414.2232)"
                 id="g222"><path
                   d="m 0,0 14.075,10.745 c -0.478,0.715 -1.086,1.432 -1.761,2.15 L 0,0.957 Z"
                   style="fill:#000000;fill-opacity:1;fill-rule:nonzero;stroke:none"
                   id="path220" /></g></g></g></g><g
           id="g228"
           transform="translate(348.8242,432.1713)"><path
             d="m 0,0 c -1.91,-1.911 -3.82,-3.821 -5.73,-5.732 -3.031,-3.031 -6.061,-6.062 -9.091,-9.093 -0.697,-0.696 -1.394,-1.393 -2.09,-2.09 -0.662,-0.662 0.372,-1.685 1.035,-1.022 1.91,1.911 3.82,3.822 5.73,5.732 3.03,3.031 6.061,6.062 9.091,9.093 0.697,0.697 1.393,1.394 2.09,2.091 C 1.697,-0.359 0.663,0.663 0,0"
             style="fill:#1a2e35;fill-opacity:1;fill-rule:nonzero;stroke:none"
             id="path230" /></g></g></g><g
       id="g232"><g
         id="g234"
         clip-path="url(#clipPath238)"><g
           id="g240"
           transform="translate(243.138,404.7139)"><path
             d="m 0,0 3.812,42.34 c 0.605,10.563 7.257,19.015 17.799,18.118 l 0.97,-0.14 C 32.336,58.911 39.38,50.251 38.761,40.413 38.186,31.26 37.433,21.155 36.672,16.31 35.099,6.279 24.823,6.166 24.823,6.166 24.801,6.168 24.133,0.033 23.835,-2.931 L 22.561,-9.838 17.4,-7.226 Z"
             style="fill:#ffc19d;fill-opacity:1;fill-rule:nonzero;stroke:none"
             id="path242" /></g><g
           id="g244"
           transform="translate(267.9968,411.2267)"><path
             d="m 0,0 c 0,0 -6.387,0.542 -12.526,5.755 0,0 2.059,-8.008 12.216,-8.55 z"
             style="fill:#ff9c6a;fill-opacity:1;fill-rule:nonzero;stroke:none"
             id="path246" /></g><g
           id="g248"
           transform="translate(277.4667,436.4336)"><path
             d="m 0,0 c -0.082,-0.762 -0.795,-1.32 -1.592,-1.248 -0.796,0.072 -1.375,0.745 -1.293,1.507 0.082,0.762 0.795,1.321 1.591,1.25 C -0.497,1.437 0.082,0.762 0,0"
             style="fill:#1a2e35;fill-opacity:1;fill-rule:nonzero;stroke:none"
             id="path250" /></g><g
           id="g252"
           transform="translate(279.158,441.3443)"><path
             d="m 0,0 c -0.205,-0.161 -1.176,0.8 -2.721,1.019 -1.54,0.24 -2.788,-0.391 -2.928,-0.177 -0.07,0.095 0.16,0.407 0.705,0.695 0.538,0.287 1.416,0.516 2.378,0.373 C -1.605,1.766 -0.847,1.295 -0.434,0.866 -0.012,0.433 0.1,0.071 0,0"
             style="fill:#1a2e35;fill-opacity:1;fill-rule:nonzero;stroke:none"
             id="path254" /></g><g
           id="g256"
           transform="translate(263.98,438.2545)"><path
             d="m 0,0 c -0.083,-0.762 -0.795,-1.32 -1.593,-1.248 -0.795,0.071 -1.375,0.745 -1.292,1.507 0.083,0.762 0.796,1.321 1.591,1.249 C -0.497,1.437 0.083,0.761 0,0"
             style="fill:#1a2e35;fill-opacity:1;fill-rule:nonzero;stroke:none"
             id="path258" /></g><g
           id="g260"
           transform="translate(263.9699,443.1699)"><path
             d="m 0,0 c -0.205,-0.161 -1.178,0.8 -2.721,1.018 -1.54,0.241 -2.788,-0.39 -2.928,-0.177 -0.07,0.096 0.158,0.407 0.705,0.695 0.537,0.288 1.416,0.516 2.377,0.374 C -1.606,1.766 -0.848,1.295 -0.435,0.866 -0.014,0.433 0.099,0.071 0,0"
             style="fill:#1a2e35;fill-opacity:1;fill-rule:nonzero;stroke:none"
             id="path262" /></g><g
           id="g264"
           transform="translate(267.7976,430.5053)"><path
             d="M 0,0 C 0.006,0.089 0.989,0.116 2.573,0.091 2.974,0.074 3.358,0.099 3.463,0.359 3.597,0.63 3.494,1.079 3.369,1.565 3.136,2.573 2.892,3.629 2.636,4.736 1.633,9.245 0.968,12.929 1.149,12.968 1.332,13.006 2.292,9.383 3.295,4.875 3.532,3.764 3.76,2.706 3.976,1.693 4.06,1.224 4.244,0.678 3.957,0.116 3.809,-0.163 3.488,-0.335 3.226,-0.367 2.962,-0.407 2.739,-0.38 2.543,-0.363 0.965,-0.222 -0.007,-0.089 0,0"
             style="fill:#1a2e35;fill-opacity:1;fill-rule:nonzero;stroke:none"
             id="path266" /></g><g
           id="g268"
           transform="translate(265.1663,447.9278)"><path
             d="m 0,0 c -0.267,-0.364 -1.705,0.267 -3.524,0.569 -1.812,0.339 -3.38,0.239 -3.506,0.672 -0.052,0.206 0.306,0.516 0.995,0.743 0.682,0.227 1.698,0.336 2.787,0.145 C -2.16,1.935 -1.243,1.486 -0.68,1.038 -0.111,0.59 0.12,0.174 0,0"
             style="fill:#1a2e35;fill-opacity:1;fill-rule:nonzero;stroke:none"
             id="path270" /></g><g
           id="g272"
           transform="translate(279.8839,445.8742)"><path
             d="m 0,0 c -0.367,-0.31 -1.58,0.218 -3.093,0.43 -1.506,0.257 -2.828,0.125 -3.076,0.531 -0.106,0.195 0.141,0.521 0.745,0.781 0.595,0.261 1.554,0.412 2.591,0.251 C -1.795,1.831 -0.934,1.396 -0.454,0.968 0.035,0.538 0.164,0.153 0,0"
             style="fill:#1a2e35;fill-opacity:1;fill-rule:nonzero;stroke:none"
             id="path274" /></g><g
           id="g276"
           transform="translate(246.7324,439.8412)"><path
             d="m 0,0 c -0.16,0.099 -6.61,3.038 -7.381,-3.863 -0.772,-6.902 6.316,-6.253 6.35,-6.056 C -0.997,-9.723 0,0 0,0"
             style="fill:#ffc19d;fill-opacity:1;fill-rule:nonzero;stroke:none"
             id="path278" /></g><g
           id="g280"
           transform="translate(243.8859,432.7723)"><path
             d="m 0,0 c -0.028,0.026 -0.13,-0.07 -0.343,-0.141 -0.208,-0.069 -0.556,-0.093 -0.901,0.082 -0.699,0.349 -1.184,1.575 -1.078,2.823 0.052,0.63 0.251,1.213 0.529,1.683 0.267,0.482 0.633,0.798 1.007,0.822 0.375,0.044 0.61,-0.205 0.673,-0.409 0.071,-0.203 0.012,-0.336 0.047,-0.352 0.017,-0.019 0.161,0.099 0.137,0.39 -0.013,0.141 -0.076,0.313 -0.223,0.463 -0.15,0.153 -0.386,0.25 -0.645,0.25 -0.536,0.023 -1.07,-0.413 -1.376,-0.929 -0.335,-0.516 -0.572,-1.17 -0.631,-1.877 -0.112,-1.396 0.455,-2.777 1.42,-3.177 0.471,-0.181 0.893,-0.08 1.12,0.06 C -0.031,-0.165 0.023,-0.015 0,0"
             style="fill:#ff9c6a;fill-opacity:1;fill-rule:nonzero;stroke:none"
             id="path282" /></g><g
           id="g284"
           transform="translate(296.8075,453.1354)"><path
             d="m 0,0 c -0.063,0.419 -0.321,0.787 -0.659,1.042 -0.737,0.557 -1.655,0.599 -2.533,0.713 -2.186,0.284 -4.294,1.091 -6.133,2.304 0.72,0.268 1.403,0.614 2.004,1.092 1.242,0.986 2.077,2.616 1.736,4.164 -0.063,0.291 -0.193,0.602 -0.466,0.722 C -6.483,10.225 -6.926,9.83 -7.278,9.516 -8.436,8.485 -9.441,8.1 -10.957,8.429 c -0.941,0.205 -1.839,0.523 -2.534,1.075 -0.027,0.034 -0.049,0.072 -0.076,0.106 -0.317,0.411 -0.627,0.804 -0.933,1.186 0,0.001 -10e-4,0.002 -0.002,0.003 l 0.001,-0.002 c -2.303,2.87 -4.332,4.909 -6.525,6.095 -3.214,1.74 -8.785,2.931 -12.403,2.409 -3.617,-0.522 -7.096,-3.012 -7.994,-6.555 -1.78,1.889 -4.739,2.212 -7.248,1.52 l -0.057,0.034 c -2.78,-0.649 -4.619,-3.299 -5.718,-5.934 -0.06,-0.143 -0.115,-0.29 -0.172,-0.436 -1.066,-1.329 -2.434,-2.416 -3.995,-3.102 -0.276,-0.121 -0.593,-0.271 -0.658,-0.565 -0.065,-0.291 0.156,-0.563 0.377,-0.763 0.589,-0.532 1.301,-0.918 2.06,-1.145 -0.318,-0.62 -0.676,-1.217 -1.099,-1.777 -0.36,-0.476 -0.788,-1.047 -0.585,-1.608 0.157,-0.435 0.66,-0.663 1.121,-0.648 0.462,0.015 0.892,0.22 1.308,0.421 -0.379,-0.679 -0.758,-1.359 -1.138,-2.039 0.948,-0.278 1.957,-0.315 2.929,-0.137 0.277,-2.612 0.167,-7.38 0.626,-9.181 1.828,-0.241 2.296,-0.092 3.185,-0.504 1.149,-0.532 0.453,-2.596 2.076,-2.172 0.827,0.216 2.383,3.078 2.74,3.854 2.367,5.15 3.602,10.815 3.604,16.483 1.241,1.053 2.687,1.866 4.232,2.377 L -37.967,7.33 c 2.933,0.659 6.234,1.259 8.76,-0.37 1.959,-1.264 2.935,-3.557 4.291,-5.453 2.572,-3.593 5.704,-5.712 10.068,-6.4 0.049,-3.091 -0.401,-8.086 -0.575,-10.945 l 3.075,5.413 -10e-4,-0.023 c 0.234,0.311 0.434,0.629 0.629,0.948 l 0.065,0.095 10e-4,0.013 c 0.311,0.513 0.609,1.027 0.984,1.526 0.009,-0.009 0.016,-0.018 0.025,-0.027 1.385,-1.534 3.891,0.285 2.865,2.079 -0.204,0.357 -0.458,0.682 -0.761,0.961 0.629,-0.741 1.642,-1.177 2.598,-0.998 0.955,0.178 1.778,1.031 1.807,2.002 0.02,0.663 -0.383,1.304 -0.946,1.631 1.233,-0.238 2.536,-0.111 3.691,0.384 C -0.634,-1.51 0.139,-0.922 0,0"
             style="fill:#1a2e35;fill-opacity:1;fill-rule:nonzero;stroke:none"
             id="path286" /></g><g
           id="g288"
           transform="translate(258.4306,464.3601)"><path
             d="m 0,0 c 0.017,-0.028 -0.453,-0.219 -1.118,-0.811 -0.659,-0.59 -1.445,-1.657 -1.932,-3.177 -0.247,-0.754 -0.445,-1.607 -0.55,-2.536 -0.11,-0.93 -0.149,-1.934 -0.197,-2.992 -0.052,-1.057 -0.103,-2.174 -0.301,-3.32 -0.099,-0.572 -0.235,-1.15 -0.427,-1.721 -0.192,-0.561 -0.415,-1.168 -0.905,-1.613 -0.392,-0.364 -0.991,-0.477 -1.48,-0.317 -0.494,0.146 -0.913,0.466 -1.2,0.87 -0.563,0.832 -0.616,1.813 -0.681,2.679 l 0.21,-0.05 c -0.434,-0.723 -0.875,-1.435 -1.47,-1.976 -0.587,-0.546 -1.35,-0.864 -2.086,-0.846 -0.367,0.009 -0.727,0.108 -1.02,0.301 -0.301,0.191 -0.502,0.481 -0.629,0.777 -0.118,0.301 -0.162,0.621 -0.112,0.92 0.051,0.297 0.2,0.569 0.413,0.748 l 0.097,-0.108 c -0.88,-0.798 -1.756,-1.181 -2.355,-1.38 -0.302,-0.1 -0.54,-0.152 -0.702,-0.185 -0.162,-0.028 -0.246,-0.039 -0.248,-0.032 -10e-4,0.007 0.081,0.03 0.239,0.071 0.158,0.045 0.391,0.109 0.686,0.219 0.583,0.219 1.435,0.618 2.281,1.413 l 0.097,-0.107 c -0.381,-0.322 -0.473,-0.952 -0.238,-1.493 0.119,-0.268 0.304,-0.527 0.569,-0.69 0.263,-0.168 0.591,-0.257 0.926,-0.261 0.677,-0.01 1.389,0.289 1.939,0.809 0.562,0.518 0.99,1.211 1.419,1.936 l 0.182,0.307 0.027,-0.358 c 0.065,-0.864 0.133,-1.807 0.648,-2.558 0.256,-0.362 0.64,-0.652 1.073,-0.779 0.433,-0.136 0.917,-0.043 1.258,0.268 0.428,0.385 0.651,0.959 0.838,1.511 0.188,0.557 0.322,1.123 0.422,1.685 0.198,1.126 0.254,2.235 0.311,3.291 0.055,1.056 0.1,2.064 0.22,3.005 0.116,0.94 0.326,1.804 0.587,2.567 0.515,1.536 1.339,2.613 2.029,3.191 C -0.484,-0.161 0,0 0,0"
             style="fill:#375a64;fill-opacity:1;fill-rule:nonzero;stroke:none"
             id="path290" /></g><g
           id="g292"
           transform="translate(288.5514,450.9785)"><path
             d="m 0,0 c 0.002,-0.003 -0.028,-0.024 -0.089,-0.06 -0.074,-0.042 -0.163,-0.092 -0.273,-0.155 -0.12,-0.07 -0.271,-0.15 -0.459,-0.225 -0.186,-0.081 -0.398,-0.18 -0.651,-0.254 -0.989,-0.339 -2.543,-0.61 -4.411,-0.286 -1.851,0.317 -4.011,1.232 -5.838,2.945 -1.853,1.68 -3.38,4.019 -4.549,6.631 -0.596,1.306 -1.051,2.628 -1.579,3.86 -0.524,1.233 -1.126,2.386 -1.907,3.331 -0.77,0.949 -1.705,1.691 -2.709,2.098 -0.499,0.212 -1.016,0.306 -1.514,0.351 -0.501,0.03 -0.985,-0.017 -1.435,-0.11 -0.904,-0.193 -1.661,-0.594 -2.25,-1.028 -0.592,-0.438 -1.01,-0.924 -1.308,-1.348 -0.565,-0.876 -0.658,-1.469 -0.694,-1.455 -0.004,10e-4 0.003,0.036 0.02,0.105 0.023,0.082 0.05,0.182 0.083,0.304 0.08,0.264 0.242,0.643 0.514,1.096 0.29,0.44 0.707,0.946 1.305,1.404 0.594,0.454 1.364,0.877 2.293,1.086 0.464,0.102 0.963,0.156 1.483,0.129 0.516,-0.041 1.059,-0.136 1.577,-0.352 1.044,-0.413 2.012,-1.174 2.804,-2.141 0.804,-0.963 1.421,-2.137 1.951,-3.378 0.536,-1.242 0.992,-2.561 1.583,-3.855 1.16,-2.592 2.664,-4.904 4.48,-6.567 1.791,-1.696 3.899,-2.605 5.719,-2.94 1.835,-0.341 3.367,-0.1 4.353,0.208 C -0.507,-0.292 -0.015,0.031 0,0"
             style="fill:#375a64;fill-opacity:1;fill-rule:nonzero;stroke:none"
             id="path294" /></g><g
           id="g296"
           transform="translate(289.9755,455.3114)"><path
             d="m 0,0 c 0.007,-0.015 -0.132,-0.089 -0.391,-0.211 -0.256,-0.127 -0.644,-0.274 -1.134,-0.423 -0.489,-0.152 -1.089,-0.278 -1.762,-0.364 -0.673,-0.074 -1.422,-0.1 -2.204,-0.041 -0.781,0.069 -1.515,0.216 -2.168,0.397 -0.651,0.194 -1.221,0.415 -1.68,0.645 -0.459,0.226 -0.818,0.435 -1.05,0.601 -0.236,0.162 -0.361,0.258 -0.352,0.271 0.024,0.038 0.549,-0.312 1.473,-0.719 0.46,-0.207 1.027,-0.408 1.667,-0.586 0.644,-0.167 1.365,-0.305 2.13,-0.372 0.765,-0.058 1.498,-0.039 2.161,0.022 0.661,0.072 1.253,0.179 1.74,0.308 C -0.593,-0.22 -0.018,0.041 0,0"
             style="fill:#375a64;fill-opacity:1;fill-rule:nonzero;stroke:none"
             id="path298" /></g><g
           id="g300"
           transform="translate(267.1695,425.7994)"><path
             d="M 0,0 C -0.055,0.258 -1.75,-0.204 -3.352,0.915 -4.956,2.031 -5.263,3.89 -5.503,3.838 -5.616,3.832 -5.722,3.345 -5.533,2.577 c 0.18,-0.755 0.72,-1.781 1.7,-2.466 0.981,-0.682 2.07,-0.792 2.781,-0.659 C -0.326,-0.418 0.042,-0.113 0,0"
             style="fill:#1a2e35;fill-opacity:1;fill-rule:nonzero;stroke:none"
             id="path302" /></g><g
           id="g304"
           transform="translate(220.3416,410.8599)"><path
             d="m 0,0 c 0,0 -6.712,2.934 -12.023,-2.751 -5.312,-5.685 -24.869,-43.72 -27.445,-50.897 -4.236,-11.804 4.892,-21.889 12.493,-22.303 7.601,-0.412 37.34,9.155 37.34,9.155 l -6.475,17.059 -18.98,-1.516 14.715,29.562 z"
             style="fill:#375a64;fill-opacity:1;fill-rule:nonzero;stroke:none"
             id="path306" /></g><g
           id="g308"
           transform="translate(252.8565,377.3846)"><path
             d="m 0,0 c 0,0 7.32,-37.104 10.807,-40.101 3.488,-2.997 31.016,-15.33 31.016,-15.33 l 8.245,13.403 -21.88,13.337 -0.108,28.163 c -0.224,7.947 -3.41,12.921 -7.048,15.584 z"
             style="fill:#375a64;fill-opacity:1;fill-rule:nonzero;stroke:none"
             id="path310" /></g><g
           id="g312"
           transform="translate(268.3369,402.6665)"><path
             d="m 0,0 -4.96,-6.41 -3.076,7.947 -17.493,11.348 -5.093,-4.89 c 0,0 -19.618,-0.383 -20.885,-1.34 -2.818,-2.129 -7.974,-33.893 -7.974,-33.893 l -9.932,-59.9 c -0.84,-2.401 7.5,-4.081 12.328,-5.259 l 44.5,-6.371 c 0,0 5.294,-1.255 6.795,2.007 1.211,2.631 3.742,30.299 6.301,45.4 0.678,4 1.29,18.281 1.29,18.281 l 4.947,22.09 -5.358,4.035 z"
             style="fill:#375a64;fill-opacity:1;fill-rule:nonzero;stroke:none"
             id="path314" /></g><g
           id="g316"
           transform="translate(212.1611,373.2566)"><path
             d="m 0,0 c 0.065,-0.03 -0.262,-0.822 -0.845,-2.078 -0.583,-1.255 -1.421,-2.976 -2.376,-4.862 -0.955,-1.887 -1.845,-3.581 -2.513,-4.796 -0.667,-1.214 -1.111,-1.948 -1.175,-1.914 -0.064,0.034 0.265,0.828 0.848,2.083 0.583,1.256 1.42,2.974 2.373,4.858 0.953,1.882 1.842,3.574 2.51,4.788 C -0.511,-0.706 -0.065,0.03 0,0"
             style="fill:#1a2e35;fill-opacity:1;fill-rule:nonzero;stroke:none"
             id="path318" /></g><g
           id="g320"
           transform="translate(259.2952,403.9667)"><path
             d="M 0,0 C 0.04,-0.039 -0.611,-0.767 -1.752,-1.976 -2.893,-3.185 -4.526,-4.874 -6.45,-6.837 L -6.6,-6.99 -6.772,-6.858 c -1.24,0.946 -2.579,2.009 -3.949,3.154 -3.069,2.56 -5.709,5.039 -7.553,6.895 -0.925,0.926 -1.651,1.697 -2.143,2.239 -0.49,0.544 -0.748,0.856 -0.722,0.881 0.026,0.025 0.333,-0.239 0.866,-0.739 0.614,-0.576 1.367,-1.283 2.255,-2.116 1.905,-1.785 4.573,-4.21 7.631,-6.76 1.364,-1.14 2.691,-2.209 3.913,-3.168 l -0.322,-0.021 c 1.95,1.936 3.63,3.579 4.831,4.728 C -0.763,-0.616 -0.04,0.039 0,0"
             style="fill:#1a2e35;fill-opacity:1;fill-rule:nonzero;stroke:none"
             id="path322" /></g><g
           id="g324"
           transform="translate(272.8374,382.8626)"><path
             d="m 0,0 c 0.143,-0.015 -0.127,-3.665 -0.603,-8.152 -0.476,-4.488 -0.978,-8.113 -1.121,-8.098 -0.143,0.015 0.127,3.664 0.603,8.153 C -0.645,-3.611 -0.143,0.015 0,0"
             style="fill:#1a2e35;fill-opacity:1;fill-rule:nonzero;stroke:none"
             id="path326" /></g><g
           id="g328"
           transform="translate(292.8451,339.8553)"><path
             d="M 0,0 C 0,0 5.462,9.191 6.614,8.828 7.766,8.466 8.353,6.081 7.66,4.323 6.967,2.566 5.041,-4.499 5.041,-4.499 Z"
             style="fill:#ffc19d;fill-opacity:1;fill-rule:nonzero;stroke:none"
             id="path330" /></g><g
           id="g332"
           transform="translate(294.6715,179.9205)"><path
             d="m 0,0 -5.422,-24.451 c 0,0 23.335,-11.927 22.773,-16.543 l -48.089,7.014 6.885,38.445 z"
             style="fill:#375a64;fill-opacity:1;fill-rule:nonzero;stroke:none"
             id="path334" /></g><g
           id="g336"><g
             id="g338" /><g
             id="g350"><g
               clip-path="url(#clipPath342)"
               opacity="0.600006"
               id="g348"><g
                 transform="translate(274.8547,160.2646)"
                 id="g346"><path
                   d="m 0,0 c -0.971,-0.082 -1.802,-1.004 -1.76,-1.978 0.042,-0.974 0.973,-1.827 1.946,-1.762 0.972,0.065 2.004,1.142 1.852,2.105 -0.15,0.963 -1.298,1.905 -2.226,1.608"
                   style="fill:#ffffff;fill-opacity:1;fill-rule:nonzero;stroke:none"
                   id="path344" /></g></g></g></g><g
           id="g352"><g
             id="g354" /><g
             id="g366"><g
               clip-path="url(#clipPath358)"
               opacity="0.600006"
               id="g364"><g
                 transform="translate(263.933,145.9406)"
                 id="g362"><path
                   d="m 0,0 0.694,3.875 46.199,-8.391 c 0,0 1.441,-0.903 1.388,-2.884 z"
                   style="fill:#ffffff;fill-opacity:1;fill-rule:nonzero;stroke:none"
                   id="path360" /></g></g></g></g><g
           id="g368"
           transform="translate(290.0688,155.5698)"><path
             d="M 0,0 C -0.051,-0.232 -1.237,-0.123 -2.523,-0.661 -3.824,-1.166 -4.602,-2.068 -4.8,-1.936 -5.007,-1.851 -4.402,-0.52 -2.832,0.105 -1.269,0.743 0.09,0.205 0,0"
             style="fill:#1a2e35;fill-opacity:1;fill-rule:nonzero;stroke:none"
             id="path370" /></g><g
           id="g372"
           transform="translate(294.6988,152.5726)"><path
             d="m 0,0 c 0.012,-0.236 -1.072,-0.446 -2.047,-1.287 -0.999,-0.812 -1.396,-1.843 -1.626,-1.79 -0.226,0.004 -0.136,1.401 1.096,2.423 C -1.355,0.379 0.036,0.223 0,0"
             style="fill:#1a2e35;fill-opacity:1;fill-rule:nonzero;stroke:none"
             id="path374" /></g><g
           id="g376"
           transform="translate(296.4394,146.0489)"><path
             d="M 0,0 C -0.221,-0.011 -0.331,1.215 0.504,2.383 1.331,3.556 2.524,3.857 2.587,3.645 2.683,3.428 1.848,2.873 1.178,1.904 0.484,0.952 0.236,-0.02 0,0"
             style="fill:#1a2e35;fill-opacity:1;fill-rule:nonzero;stroke:none"
             id="path378" /></g><g
           id="g380"
           transform="translate(290.6862,161.2792)"><path
             d="m 0,0 c -0.137,-0.195 -1.148,0.325 -2.483,0.478 -1.333,0.181 -2.441,-0.072 -2.525,0.15 -0.104,0.194 1.057,0.873 2.627,0.67 C -0.809,1.107 0.149,0.162 0,0"
             style="fill:#1a2e35;fill-opacity:1;fill-rule:nonzero;stroke:none"
             id="path382" /></g><g
           id="g384"><g
             id="g386" /><g
             id="g398"><g
               clip-path="url(#clipPath390)"
               opacity="0.300003"
               id="g396"><g
                 transform="translate(293.592,175.0791)"
                 id="g394"><path
                   d="m 0,0 -0.961,-4.359 -23.446,4.544 0.699,3.958 z"
                   style="fill:#000000;fill-opacity:1;fill-rule:nonzero;stroke:none"
                   id="path392" /></g></g></g></g><g
           id="g400"
           transform="translate(218.2048,135.6893)"><path
             d="m 0,0 -3.108,-24.852 c 0,0 24.35,-9.688 24.223,-14.337 l -48.535,2.479 3.253,38.921 z"
             style="fill:#375a64;fill-opacity:1;fill-rule:nonzero;stroke:none"
             id="path402" /></g><g
           id="g404"><g
             id="g406" /><g
             id="g418"><g
               clip-path="url(#clipPath410)"
               opacity="0.600006"
               id="g416"><g
                 transform="translate(200.3164,114.2633)"
                 id="g414"><path
                   d="m 0,0 c -0.959,-0.173 -1.7,-1.169 -1.567,-2.134 0.134,-0.966 1.14,-1.728 2.102,-1.572 0.963,0.156 1.889,1.324 1.648,2.269 -0.241,0.945 -1.471,1.775 -2.368,1.392"
                   style="fill:#ffffff;fill-opacity:1;fill-rule:nonzero;stroke:none"
                   id="path412" /></g></g></g></g><g
           id="g420"><g
             id="g422" /><g
             id="g434"><g
               clip-path="url(#clipPath426)"
               opacity="0.600006"
               id="g432"><g
                 transform="translate(190.7846,98.9792)"
                 id="g430"><path
                   d="M 0,0 0.328,3.923 47.11,-0.104 c 0,0 1.519,-0.764 1.652,-2.74 z"
                   style="fill:#ffffff;fill-opacity:1;fill-rule:nonzero;stroke:none"
                   id="path428" /></g></g></g></g><g
           id="g436"
           transform="translate(215.9034,111.0145)"><path
             d="M 0,0 C -0.029,-0.236 -1.22,-0.238 -2.45,-0.895 -3.698,-1.519 -4.388,-2.49 -4.598,-2.377 -4.811,-2.312 -4.333,-0.93 -2.83,-0.161 -1.333,0.621 0.071,0.212 0,0"
             style="fill:#1a2e35;fill-opacity:1;fill-rule:nonzero;stroke:none"
             id="path438" /></g><g
           id="g440"
           transform="translate(220.7938,108.4642)"><path
             d="m 0,0 c 0.034,-0.234 -1.025,-0.545 -1.917,-1.473 -0.919,-0.902 -1.217,-1.966 -1.451,-1.934 -0.226,-0.018 -0.267,1.381 0.864,2.514 C -1.384,0.25 0.015,0.226 0,0"
             style="fill:#1a2e35;fill-opacity:1;fill-rule:nonzero;stroke:none"
             id="path442" /></g><g
           id="g444"
           transform="translate(223.1379,102.1321)"><path
             d="M 0,0 C -0.219,-0.031 -0.443,1.179 0.279,2.419 0.992,3.665 2.151,4.077 2.234,3.871 2.35,3.665 1.571,3.034 0.994,2.007 0.393,0.993 0.237,0.003 0,0"
             style="fill:#1a2e35;fill-opacity:1;fill-rule:nonzero;stroke:none"
             id="path446" /></g><g
           id="g448"
           transform="translate(215.9833,116.7566)"><path
             d="M 0,0 C -0.118,-0.207 -1.173,0.216 -2.517,0.244 -3.861,0.299 -4.94,-0.057 -5.045,0.156 -5.167,0.339 -4.074,1.124 -2.492,1.069 -0.91,1.026 0.133,0.175 0,0"
             style="fill:#1a2e35;fill-opacity:1;fill-rule:nonzero;stroke:none"
             id="path450" /></g><g
           id="g452"><g
             id="g454" /><g
             id="g466"><g
               clip-path="url(#clipPath458)"
               opacity="0.300003"
               id="g464"><g
                 transform="translate(217.5835,130.768)"
                 id="g462"><path
                   d="m 0,0 -0.548,-4.43 -23.769,2.328 0.325,4.006 z"
                   style="fill:#000000;fill-opacity:1;fill-rule:nonzero;stroke:none"
                   id="path460" /></g></g></g></g><g
           id="g468"
           transform="translate(194.7558,431.472)"><path
             d="m 0,0 c 0.521,-10.209 -7.332,-18.907 -17.541,-19.428 -10.209,-0.522 -18.907,7.332 -19.428,17.541 -0.522,10.208 7.332,18.907 17.541,19.428 C -9.22,18.062 -0.521,10.209 0,0"
             style="fill:#ff735d;fill-opacity:1;fill-rule:nonzero;stroke:none"
             id="path470" /></g><g
           id="g472"
           transform="translate(401.5431,216.6414)"><path
             d="M 0,0 -18.477,42.883 -207.662,222.571 -232.63,194.978 -44.442,16.646 Z"
             style="fill:#ff735d;fill-opacity:1;fill-rule:nonzero;stroke:none"
             id="path474" /></g><g
           id="g476"><g
             id="g478" /><g
             id="g490"><g
               clip-path="url(#clipPath482)"
               opacity="0.699997"
               id="g488"><g
                 transform="translate(357.1008,233.287)"
                 id="g486"><path
                   d="m 0,0 c 0.29,1.835 1.883,3.113 3.622,2.46 -1.874,2.895 -1.677,6.978 0.467,9.68 2.144,2.702 6.075,3.822 9.321,2.654 -0.694,3.341 0.537,7.013 3.103,9.262 2.566,2.248 6.368,2.985 9.589,1.859 l 18.34,-42.561 z"
                   style="fill:#ffffff;fill-opacity:1;fill-rule:nonzero;stroke:none"
                   id="path484" /></g></g></g></g><g
           id="g492"
           transform="translate(394.1127,233.8866)"><path
             d="M 0,0 C 0,0 -8.715,2.012 -10.778,-10.425 L 7.43,-17.245 Z"
             style="fill:#1a2e35;fill-opacity:1;fill-rule:nonzero;stroke:none"
             id="path494" /></g><g
           id="g496"><g
             id="g498" /><g
             id="g510"><g
               clip-path="url(#clipPath502)"
               opacity="0.300003"
               id="g508"><g
                 transform="translate(370.5104,248.0815)"
                 id="g506"><path
                   d="m 0,0 -187.592,176.57 11.801,13.708 L 12.556,11.442 12.692,11.12 c 0,0 -1.856,0.763 -4.236,0.48 C 6.864,11.41 4.947,10.778 3.318,9.439 1.222,7.717 0.251,5.498 -0.064,3.627 -0.404,1.609 0,0 0,0"
                   style="fill:#000000;fill-opacity:1;fill-rule:nonzero;stroke:none"
                   id="path504" /></g></g></g></g><g
           id="g512"><g
             id="g514" /><g
             id="g526"><g
               clip-path="url(#clipPath518)"
               opacity="0.300003"
               id="g524"><g
                 transform="translate(360.723,235.747)"
                 id="g522"><path
                   d="m 0,0 -188.667,179.221 -3.129,-3.624 L -3.622,-2.46 c 0,0 0.311,2.682 2.951,2.631 C -0.46,0.167 -0.24,0.062 0,0"
                   style="fill:#000000;fill-opacity:1;fill-rule:nonzero;stroke:none"
                   id="path520" /></g></g></g></g><g
           id="g528"
           transform="translate(380.4447,245.4139)"><path
             d="m 0,0 c -0.016,-0.02 -0.07,0.206 -0.404,0.314 -0.305,0.108 -0.945,0.026 -1.212,-0.602 -0.259,-0.592 -0.25,-1.455 -0.031,-2.351 0.125,-0.445 0.356,-0.905 0.761,-1.233 0.392,-0.329 0.969,-0.528 1.508,-0.343 0.545,0.173 0.945,0.69 1.195,1.267 0.257,0.583 0.371,1.252 0.456,1.942 0.151,1.375 0.1,2.907 -0.37,4.385 C 1.655,4.097 1.208,4.823 0.473,5.117 -0.252,5.415 -1.14,5.22 -1.801,4.742 -3.137,3.719 -3.669,1.853 -3.826,0.103 c -0.264,-3.596 1.613,-7.086 4.32,-8.595 0.682,-0.351 1.474,-0.385 2.128,-0.071 0.66,0.297 1.178,0.82 1.603,1.36 0.83,1.112 1.405,2.299 1.801,3.414 0.793,2.247 0.848,4.217 0.776,5.537 -0.049,0.664 -0.119,1.177 -0.178,1.523 -0.062,0.345 -0.082,0.53 -0.082,0.53 0,0 0.234,-0.709 0.361,-2.046 C 7.007,0.428 6.98,-1.564 6.199,-3.849 5.807,-4.986 5.24,-6.188 4.395,-7.335 3.96,-7.893 3.428,-8.445 2.716,-8.771 2.012,-9.119 1.115,-9.082 0.39,-8.708 c -2.832,1.568 -4.737,5.129 -4.475,8.83 0.062,0.922 0.272,1.82 0.592,2.663 0.329,0.833 0.811,1.635 1.543,2.164 0.721,0.516 1.688,0.736 2.516,0.398 C 1.4,5.006 1.873,4.205 2.128,3.458 2.61,1.917 2.648,0.375 2.487,-1.031 2.396,-1.731 2.275,-2.416 2,-3.029 1.734,-3.63 1.3,-4.196 0.679,-4.389 c -0.617,-0.204 -1.255,0.031 -1.67,0.39 -0.434,0.36 -0.673,0.857 -0.796,1.321 -0.212,0.937 -0.209,1.801 0.08,2.434 0.303,0.668 1.007,0.743 1.319,0.608 C -0.035,0.229 0,-0.015 0,0"
             style="fill:#ffffff;fill-opacity:1;fill-rule:nonzero;stroke:none"
             id="path530" /></g><g
           id="g532"
           transform="translate(375.6075,226.7757)"><path
             d="m 0,0 c -0.029,0.012 0.229,0.481 0.463,1.401 0.239,0.915 0.362,2.307 0.101,3.985 -0.24,1.684 -0.914,3.601 -1.763,5.689 -0.813,2.088 -1.813,4.433 -1.941,7.083 -0.125,2.638 0.623,5.14 1.8,7.084 1.175,1.964 2.79,3.332 4.26,4.205 1.484,0.876 2.839,1.269 3.773,1.462 0.94,0.188 1.473,0.187 1.473,0.187 0,-0.009 -0.13,-0.034 -0.377,-0.073 C 7.541,30.988 7.177,30.921 6.715,30.811 5.795,30.589 4.465,30.173 3.014,29.289 1.577,28.408 0.006,27.051 -1.135,25.118 -2.278,23.206 -3.003,20.751 -2.881,18.171 -2.758,15.581 -1.779,13.256 -0.976,11.162 -0.14,9.071 0.526,7.121 0.746,5.412 0.987,3.709 0.833,2.294 0.56,1.375 0.293,0.451 0,0 0,0"
             style="fill:#ffffff;fill-opacity:1;fill-rule:nonzero;stroke:none"
             id="path534" /></g><g
           id="g536"
           transform="translate(365.3022,230.0452)"><path
             d="M 0,0 C -0.063,0.044 1.154,0.38 1.828,2.026 2.48,3.626 2.693,6.074 2.791,8.72 2.858,11.382 2.608,13.789 2.327,15.51 2.192,16.372 2.05,17.065 1.956,17.544 1.854,18.022 1.806,18.289 1.823,18.294 1.841,18.298 1.922,18.04 2.054,17.567 2.179,17.094 2.349,16.404 2.508,15.541 2.837,13.819 3.118,11.396 3.05,8.714 3.021,7.374 2.908,6.101 2.748,4.951 2.592,3.803 2.368,2.762 1.996,1.952 1.636,1.134 1.105,0.598 0.694,0.325 0.273,0.056 0,0 0,0"
             style="fill:#ffffff;fill-opacity:1;fill-rule:nonzero;stroke:none"
             id="path538" /></g><g
           id="g540"
           transform="translate(362.2475,246.4813)"><path
             d="M 0,0 C 0.03,0.011 0.277,-0.523 0.587,-1.425 0.882,-2.32 1.261,-3.636 1.082,-5.118 0.93,-6.609 0.058,-7.803 -0.777,-8.298 -1.19,-8.558 -1.57,-8.683 -1.835,-8.731 c -0.266,-0.05 -0.416,-0.038 -0.417,-0.025 -0.014,0.051 0.607,0.072 1.372,0.61 0.769,0.514 1.556,1.635 1.704,3.06 C 0.996,-3.67 0.661,-2.381 0.412,-1.479 0.149,-0.572 -0.038,-0.013 0,0"
             style="fill:#ffffff;fill-opacity:1;fill-rule:nonzero;stroke:none"
             id="path542" /></g><g
           id="g544"
           transform="translate(381.5045,224.0527)"><path
             d="m 0,0 c -0.009,-0.003 -0.039,0.068 -0.088,0.205 -0.049,0.137 -0.122,0.339 -0.201,0.606 -0.075,0.266 -0.166,0.606 -0.133,1.014 0.025,0.409 0.212,0.848 0.464,1.275 0.487,0.875 1.264,1.776 2.02,2.828 0.759,1.054 1.488,2.287 2.142,3.637 1.309,2.705 2.098,5.326 2.673,7.211 0.244,0.82 0.464,1.561 0.667,2.241 0.159,0.53 0.255,0.82 0.272,0.815 C 7.833,19.828 7.77,19.528 7.641,18.991 7.511,18.454 7.316,17.678 7.053,16.725 6.522,14.825 5.758,12.183 4.438,9.452 3.778,8.09 3.034,6.846 2.256,5.788 1.478,4.729 0.696,3.852 0.2,3.006 -0.378,2.187 -0.35,1.362 -0.191,0.837 -0.06,0.303 0.02,0.005 0,0"
             style="fill:#ffffff;fill-opacity:1;fill-rule:nonzero;stroke:none"
             id="path546" /></g><g
           id="g548"
           transform="translate(195.7779,437.5256)"><path
             d="m 0,0 -26.314,-26.467 c -0.372,-0.373 -0.975,-0.375 -1.349,-0.004 l -8.155,8.109 c -0.374,0.371 -0.375,0.975 -0.004,1.349 L -9.508,9.453 c 0.371,0.374 0.975,0.375 1.349,0.004 L -0.004,1.349 C 0.37,0.977 0.371,0.373 0,0"
             style="fill:#e1e1e1;fill-opacity:1;fill-rule:nonzero;stroke:none"
             id="path550" /></g><g
           id="g552"
           transform="translate(195.778,437.5255)"><path
             d="M 0,0 C -0.009,0.008 0.058,0.073 0.136,0.227 0.209,0.377 0.288,0.644 0.178,0.957 0.079,1.27 -0.303,1.516 -0.649,1.88 -1.016,2.236 -1.434,2.64 -1.901,3.092 -2.85,4.018 -3.995,5.136 -5.321,6.429 -5.987,7.083 -6.697,7.78 -7.45,8.518 -7.638,8.703 -7.829,8.891 -8.023,9.081 -8.23,9.28 -8.385,9.472 -8.605,9.525 -8.823,9.591 -9.072,9.554 -9.264,9.423 -9.435,9.291 -9.659,9.033 -9.858,8.84 -16.481,2.151 -25.582,-7.041 -35.636,-17.195 c -0.237,-0.23 -0.27,-0.63 -0.075,-0.892 0.237,-0.266 0.608,-0.612 0.903,-0.913 0.627,-0.623 1.249,-1.242 1.866,-1.857 1.235,-1.229 2.451,-2.44 3.647,-3.631 0.597,-0.595 1.189,-1.185 1.775,-1.77 0.224,-0.248 0.568,-0.301 0.843,-0.165 0.067,0.034 0.129,0.078 0.184,0.131 l 0.215,0.216 0.431,0.432 c 1.146,1.149 2.268,2.273 3.363,3.371 4.38,4.375 8.327,8.318 11.653,11.641 3.309,3.278 5.996,5.941 7.888,7.816 0.917,0.893 1.64,1.597 2.164,2.107 0.233,0.219 0.421,0.396 0.571,0.538 C -0.077,-0.052 -0.006,0.006 0,0 0.006,-0.006 -0.051,-0.077 -0.17,-0.208 -0.311,-0.36 -0.487,-0.549 -0.705,-0.783 -1.212,-1.31 -1.911,-2.037 -2.799,-2.959 c -1.864,-1.903 -4.511,-4.605 -7.771,-7.933 -3.303,-3.345 -7.223,-7.315 -11.573,-11.72 -1.091,-1.101 -2.209,-2.23 -3.351,-3.382 l -0.43,-0.434 -0.216,-0.218 c -0.091,-0.09 -0.198,-0.166 -0.313,-0.225 -0.46,-0.246 -1.087,-0.121 -1.422,0.256 -0.588,0.583 -1.181,1.172 -1.78,1.766 -1.197,1.188 -2.416,2.397 -3.652,3.625 -0.618,0.614 -1.241,1.232 -1.867,1.855 -0.321,0.33 -0.61,0.58 -0.961,0.98 -0.343,0.461 -0.284,1.16 0.13,1.561 10.096,10.112 19.235,19.266 25.886,25.928 0.225,0.21 0.373,0.402 0.654,0.621 0.284,0.19 0.647,0.238 0.962,0.139 0.336,-0.096 0.541,-0.365 0.72,-0.537 0.192,-0.193 0.38,-0.382 0.566,-0.57 0.743,-0.748 1.444,-1.455 2.102,-2.117 1.301,-1.318 2.426,-2.457 3.357,-3.4 C -1.304,2.771 -0.897,2.356 -0.54,1.99 -0.212,1.617 0.169,1.362 0.277,0.99 0.383,0.635 0.275,0.351 0.183,0.201 0.084,0.047 0,0 0,0"
             style="fill:#1a2e35;fill-opacity:1;fill-rule:nonzero;stroke:none"
             id="path554" /></g><g
           id="g556"
           transform="translate(163.1214,423.3198)"><path
             d="M 0,0 C 0.099,0.104 2.296,-1.832 4.905,-4.323 7.515,-6.815 9.549,-8.919 9.45,-9.023 9.351,-9.127 7.155,-7.192 4.545,-4.7 1.936,-2.208 -0.099,-0.104 0,0"
             style="fill:#1a2e35;fill-opacity:1;fill-rule:nonzero;stroke:none"
             id="path558" /></g><g
           id="g560"
           transform="translate(172.8335,433.725)"><path
             d="m 0,0 c 0.101,0.107 2.378,-1.889 5.196,-4.333 2.817,-2.448 5.113,-4.42 5.022,-4.535 -0.087,-0.11 -2.537,1.686 -5.363,4.142 C 2.027,-2.274 -0.097,-0.102 0,0"
             style="fill:#1a2e35;fill-opacity:1;fill-rule:nonzero;stroke:none"
             id="path562" /></g><g
           id="g564"
           transform="translate(194.2856,436.1401)"><path
             d="m 0,0 c -0.101,-0.102 -2.353,1.833 -5.029,4.322 -2.677,2.489 -4.77,4.595 -4.675,4.703 0.095,0.108 2.346,-1.826 5.03,-4.322 C -1.992,2.208 0.101,0.102 0,0"
             style="fill:#1a2e35;fill-opacity:1;fill-rule:nonzero;stroke:none"
             id="path566" /></g><g
           id="g568"
           transform="translate(254.7205,378.5663)"><path
             d="m 0,0 c 0,0 -8.911,-0.955 -11.578,-1.336 -2.667,-0.38 -6.267,-1.113 -7.515,-3.228 -0.508,-0.862 -8.32,-12.289 -8.32,-12.289 l -2.984,-0.844 4.769,-13.119 8.067,4.012 c 0,0 2.742,3.074 4.927,5.979 2.185,2.904 2.854,3.962 2.854,3.962 0,0 7.99,-0.374 9.606,1.011 0.89,0.764 0.348,2.113 0.348,2.113 l -8.708,0.765 c 0,0 9.465,0.026 11.035,1.07 0.142,0.094 0.263,0.194 0.367,0.298 0.91,0.913 0.202,2.484 -1.087,2.492 l -10.189,0.068 c 0,0 11.7,1.062 11.963,2.369 0.046,0.227 0.072,0.441 0.084,0.64 0.051,0.838 -0.627,1.536 -1.466,1.51 l -9.549,-0.301 c 0,0 9.236,1.476 9.324,2.768 C 2.115,0.39 0,0 0,0"
             style="fill:#ffc19d;fill-opacity:1;fill-rule:nonzero;stroke:none"
             id="path570" /></g><g
           id="g572"
           transform="translate(194.3434,353.2169)"><path
             d="m 0,0 c 2.394,3.651 6.563,5.963 10.909,6.383 0.419,0.04 19.433,2.066 19.433,2.066 l 5.821,-18.195 -27.92,-7.266"
             style="fill:#375a64;fill-opacity:1;fill-rule:nonzero;stroke:none"
             id="path574" /></g><g
           id="g576"
           transform="translate(202.5865,336.2049)"><path
             d="m 0,0 c -0.004,0.014 0.176,0.076 0.525,0.182 0.393,0.112 0.904,0.259 1.541,0.443 1.4,0.382 3.355,0.917 5.788,1.581 5,1.325 11.955,3.169 20.003,5.301 L 27.682,7.19 c -1.091,3.398 -2.27,7.074 -3.492,10.879 -0.799,2.505 -1.581,4.955 -2.334,7.314 l 0.27,-0.176 C 17.509,24.728 13.174,24.277 9.26,23.871 7.309,23.673 5.464,23.485 3.74,23.31 2.014,23.169 0.458,22.924 -0.906,22.428 c -2.743,-0.936 -4.599,-2.434 -5.723,-3.545 -1.116,-1.141 -1.572,-1.901 -1.614,-1.871 -0.013,0.009 0.1,0.197 0.329,0.55 0.234,0.351 0.612,0.848 1.155,1.447 1.098,1.164 2.955,2.733 5.742,3.733 1.374,0.527 3.004,0.804 4.719,0.962 1.721,0.191 3.565,0.396 5.514,0.612 3.911,0.426 8.242,0.897 12.856,1.4 l 0.207,0.022 0.064,-0.199 C 23.099,23.18 23.884,20.732 24.686,18.228 25.9,14.42 27.073,10.742 28.157,7.342 L 28.238,7.089 27.982,7.024 C 19.916,4.964 12.945,3.183 7.933,1.902 5.485,1.297 3.518,0.81 2.109,0.462 1.462,0.311 0.945,0.19 0.547,0.098 0.191,0.02 0.004,-0.014 0,0"
             style="fill:#1a2e35;fill-opacity:1;fill-rule:nonzero;stroke:none"
             id="path578" /></g><g
           id="g580"
           transform="translate(298.5752,340.1678)"><path
             d="m 0,0 c 0,0 5.599,1.91 7.076,0.902 1.477,-1.009 1.981,-2.645 1.981,-2.645 0,0 3.416,-0.033 2.397,-3.599 0,0 2.998,-0.602 2.091,-4.099 0,0 2.201,0.059 1.149,-2.834 -1.053,-2.894 -5.542,-8.665 -6.565,-9.436 -2.138,-1.61 -2.729,0.945 -2.207,1.964 0.522,1.02 3.461,6.629 3.461,6.629 0,0 -5.088,-8.014 -6.811,-6.674 -0.981,0.763 -0.766,1.942 0.533,4.292 0.902,1.632 2.552,4.848 2.552,4.848 L 1.654,-15.59 c -0.748,-0.923 -2.258,-0.557 -2.461,0.614 -0.071,0.412 -0.031,0.908 0.198,1.5 0.948,2.443 2.965,5.397 2.965,5.397 l -3.249,-3.188 c -0.733,-0.719 -1.942,-0.659 -2.569,0.154 -0.391,0.507 -0.612,1.15 -0.251,1.876 0.891,1.79 5.845,7.001 5.845,7.001 z"
             style="fill:#ffc19d;fill-opacity:1;fill-rule:nonzero;stroke:none"
             id="path582" /></g><g
           id="g584"
           transform="translate(202.2737,313.9123)"><path
             d="m 0,0 c 0,0 -4.642,-23.298 0.078,-33.455 4.721,-10.157 17.102,-15.033 29.981,-18.982 17.206,-5.277 46.945,-21.643 46.945,-21.643 0,0 -3.846,-16.966 -6.388,-27.124 -2.44,-9.749 -9.255,-45.243 -9.255,-45.243 l 31.285,-4.311 22.311,80.285 c 0,0 6.231,16.489 -7.309,24.668 -11.598,7.005 -52.626,34.698 -52.626,34.698 l -3.175,7.355 z"
             style="fill:#1a2e35;fill-opacity:1;fill-rule:nonzero;stroke:none"
             id="path586" /></g><g
           id="g588"
           transform="translate(202.8362,286.166)"><path
             d="m 0,0 5.825,-13.349 -7.923,-63.394 c 0,0 -6.782,-20.842 -8.283,-31.841 -1.5,-11 -4.801,-55.298 -4.801,-55.298 h 30.67 c 0,0 4.754,53.899 13.961,70.089 7.251,12.75 12.176,34.94 12.476,36.388 0.3,1.447 10.991,36.96 10.991,36.96 L 37.937,10.387 Z"
             style="fill:#1a2e35;fill-opacity:1;fill-rule:nonzero;stroke:none"
             id="path590" /></g><g
           id="g592"
           transform="translate(290.0993,247.2519)"><path
             d="m 0,0 c 0.059,-0.154 -2.774,-1.137 -5.761,-3.235 -3.006,-2.072 -4.912,-4.386 -5.036,-4.277 -0.05,0.041 0.362,0.672 1.172,1.577 0.809,0.906 2.041,2.064 3.567,3.128 1.527,1.06 3.042,1.813 4.172,2.256 C -0.755,-0.105 -0.02,0.061 0,0"
             style="fill:#375a64;fill-opacity:1;fill-rule:nonzero;stroke:none"
             id="path594" /></g><g
           id="g596"
           transform="translate(294.9199,163.1543)"><path
             d="M 0,0 C 0,0 -0.188,0.008 -0.551,0.05 -0.934,0.097 -1.469,0.162 -2.165,0.247 -3.602,0.434 -5.69,0.705 -8.374,1.054 -13.79,1.781 -21.61,2.831 -31.31,4.133 l -0.187,0.025 0.035,0.187 c 1.77,9.271 3.895,20.302 6.413,32.562 0.632,3.065 1.289,6.206 2.009,9.409 0.749,3.195 1.514,6.461 2.294,9.788 1.563,6.65 3.185,13.548 4.85,20.632 l 0.128,-0.285 c -2.296,1.254 -4.769,2.567 -7.27,3.876 -6.968,3.635 -13.844,7.046 -20.575,10.141 -6.738,3.072 -13.328,5.865 -19.827,7.868 -6.5,2.031 -12.65,4.245 -17.915,7.325 -2.623,1.538 -5.011,3.303 -6.994,5.33 -1.982,2.022 -3.548,4.305 -4.563,6.699 -1.039,2.405 -1.375,4.883 -1.648,7.187 -0.113,1.16 -0.207,2.287 -0.223,3.383 -0.057,1.095 -0.043,2.156 -0.033,3.181 0.059,4.102 0.405,7.619 0.743,10.481 0.346,2.863 0.704,5.073 0.968,6.568 0.14,0.731 0.247,1.294 0.324,1.695 0.078,0.381 0.135,0.573 0.135,0.573 0,0 -0.022,-0.199 -0.083,-0.583 -0.064,-0.403 -0.155,-0.968 -0.272,-1.703 -0.231,-1.498 -0.556,-3.711 -0.87,-6.573 -0.307,-2.861 -0.622,-6.374 -0.654,-10.46 -0.003,-1.022 -0.01,-2.078 0.053,-3.167 0.023,-1.091 0.123,-2.21 0.242,-3.36 0.282,-2.282 0.631,-4.738 1.657,-7.077 1.005,-2.343 2.552,-4.58 4.511,-6.563 1.959,-1.988 4.322,-3.723 6.925,-5.238 5.224,-3.035 11.348,-5.226 17.839,-7.24 6.533,-1.999 13.147,-4.792 19.898,-7.862 6.744,-3.094 13.629,-6.505 20.603,-10.144 2.504,-1.31 4.977,-2.624 7.28,-3.882 l 0.173,-0.095 -0.045,-0.19 c -1.672,-7.086 -3.3,-13.985 -4.869,-20.637 -0.784,-3.323 -1.553,-6.584 -2.305,-9.776 -0.724,-3.196 -1.387,-6.335 -2.026,-9.396 -2.544,-12.25 -4.706,-23.274 -6.52,-32.535 L -31.26,4.489 C -21.571,3.119 -13.758,2.014 -8.348,1.25 -5.668,0.86 -3.585,0.556 -2.151,0.348 -1.458,0.241 -0.925,0.16 -0.544,0.101 -0.183,0.043 0,0 0,0"
             style="fill:#375a64;fill-opacity:1;fill-rule:nonzero;stroke:none"
             id="path598" /></g></g></g></g></svg>
