<?xml version="1.0" encoding="utf-8"?>
<!-- Generator: Adobe Illustrator 18.0.0, SVG Export Plug-In . SVG Version: 6.00 Build 0)  -->
<!DOCTYPE svg PUBLIC "-//W3C//DTD SVG 1.1//EN" "http://www.w3.org/Graphics/SVG/1.1/DTD/svg11.dtd">
<svg version="1.1" id="Layer_1" xmlns="http://www.w3.org/2000/svg" xmlns:xlink="http://www.w3.org/1999/xlink" x="0px" y="0px"
	 width="841.9px" height="595.3px" viewBox="0 0 841.9 595.3" enable-background="new 0 0 841.9 595.3" xml:space="preserve">
<g>
	<rect fill="#004157" width="841.9" height="595.3"/>
	<g>
		<polygon fill="#1C75BC" points="0,564.8 182.6,530.7 298.1,542.2 469.9,507.4 592.6,562.4 658.4,557.8 755.8,581.7 841.9,553.9 
			841.9,522.4 728.4,544.6 647.1,520 577.4,527.9 455.5,468.6 364,468.6 243.3,508.1 113.4,483.3 0,490.3 		"/>
		<polygon fill="#27AAE1" points="841.9,452.5 659.2,418.4 543.7,429.9 372,395.1 249.3,450.1 183.4,445.5 86.1,469.4 0,441.6 
			0,410.1 113.5,432.3 194.8,407.7 264.5,415.6 386.4,356.3 477.9,356.3 598.6,395.8 728.4,371 841.9,378 		"/>
	</g>
	<rect fill="none" width="841.9" height="595.3"/>
	<g>
		<g>
			<g>
				<polygon fill="#FFFFFF" points="304.7,42.2 271.1,36.4 266.3,102.2 309.1,99.6 306.9,76.8 294.9,76.8 294.9,89 281.7,87.6 
					279.9,50.1 291.9,50.1 292.3,58.5 302.9,58.5 				"/>
				<polygon fill="#FFFFFF" points="315.2,34.5 315.2,100.2 326.3,100.2 329.4,78.6 339.5,78.6 341.7,104.2 359.4,100.2 356.3,38 
					342.6,37.1 341.3,67.3 327.6,67.3 328,34.5 				"/>
				<path fill="#FFFFFF" d="M397.3,36.4l-23.4,3.1l-8.8,62.7h12.4l1.8-22.1h10.6l3.5,19l14.1,0.4L397.3,36.4z M380.1,71.3l3.5-19.4
					l4.9,17.4L380.1,71.3z"/>
				<path fill="#FFFFFF" d="M451.6,72.4l-1.8-38h-34.4l-2.2,65.8h11.9l2.2-19.9l7.9,23.8l16.3-4l-13.2-25.4L451.6,72.4z M427.8,67.3
					V44.2h11.9v21.2L427.8,67.3z"/>
				<polygon fill="#FFFFFF" points="456.6,39.8 460,101.1 473.2,101.1 475,37.6 				"/>
				<polygon fill="#FFFFFF" points="483,37.6 485.2,53.4 502.8,53.4 501.2,101.1 518.3,101.1 516.1,54.3 527.1,53 527.1,40.2 				
					"/>
				<polygon fill="#FFFFFF" points="534.6,41.5 549.6,64 539.4,102.4 552.2,102.4 575.6,38.9 560.2,36.2 555.1,53.9 543,38.9 				
					"/>
			</g>
		</g>
		<g>
			<polygon fill="#FFFFFF" points="431.3,113.9 431.3,148.7 437.1,148.7 438.8,137.2 444.1,137.2 445.3,150.8 454.7,148.7 
				453,115.7 445.8,115.3 445.1,131.3 437.8,131.3 438.1,113.9 			"/>
			<polygon fill="#FFFFFF" points="390.7,116.7 392.5,149.2 399.5,149.2 400.5,115.5 			"/>
			<polygon fill="#FFFFFF" points="457.3,115.5 458.5,123.9 467.8,123.9 467,149.2 476,149.2 474.8,124.4 480.7,123.7 480.7,116.9 
							"/>
			<polygon fill="#FFFFFF" points="361.2,114.9 363.2,149.8 370.1,149.8 371.4,128 377.2,149.2 386.2,147.6 387.6,114.9 
				381.7,113.9 380.1,135.2 368.8,113.9 			"/>
			<polygon fill="#FFFFFF" points="425.7,136.3 425.7,136.3 425.5,133.8 416.4,134.5 416.4,137.6 419.4,138.1 419.4,142.7 
				412.4,142 411.4,122.2 417.8,122.2 418,126.6 423.6,126.6 424.5,117.9 406.8,114.9 404.2,149.8 426.9,148.3 			"/>
		</g>
	</g>
	<g>
		<path fill="#FFFFFF" d="M288.8,183.5C288.8,183.5,288.9,183.6,288.8,183.5l0.1,1.2c0,0,0,0.1-0.1,0.1h-3.3h-0.1c0,0-0.1,0-0.1-0.1
			v-9.7c0,0,0,0,0.1,0h1.4c0,0,0.1,0,0.1,0v8.4c0,0,0,0,0,0H288.8z"/>
		<path fill="#FFFFFF" d="M293.1,177.9c0.4,0,0.7,0.1,0.9,0.4c0.2,0.3,0.4,0.6,0.4,0.9v4.3c0,0.4-0.1,0.7-0.4,0.9s-0.6,0.4-0.9,0.4
			h0h-2h0c-0.4,0-0.7-0.1-0.9-0.4c-0.2-0.3-0.4-0.6-0.4-0.9v-4.3c0-0.4,0.1-0.7,0.4-0.9c0.2-0.3,0.5-0.4,0.9-0.4H293.1z
			 M292.9,179.1C292.9,179.1,292.9,179.1,292.9,179.1l-1.5,0c0,0-0.1,0-0.1,0v4.5c0,0,0,0,0.1,0.1h1.5c0,0,0,0,0-0.1V179.1z"/>
		<path fill="#FFFFFF" d="M297.2,177.9h2c0,0,0,0,0,0v1.1c0,0,0,0,0,0h-1.8c0,0,0,0,0,0v5.6c0,0,0,0,0,0h-1.4c0,0,0,0,0,0v-5.5
			c0-0.2,0-0.4,0.1-0.5c0.1-0.2,0.2-0.3,0.3-0.4c0.1-0.1,0.3-0.2,0.4-0.3C296.8,178,297,177.9,297.2,177.9z"/>
		<path fill="#FFFFFF" d="M303.6,177.9c0.2,0,0.3,0,0.5,0.1c0.2,0.1,0.3,0.2,0.4,0.3c0.1,0.1,0.2,0.3,0.3,0.4
			c0.1,0.2,0.1,0.3,0.1,0.5v2.6c0,0,0,0-0.1,0h-3v1.8c0,0,0,0,0,0h1.6c0,0,0,0,0,0v-0.9c0,0,0-0.1,0.1-0.1h1.3c0,0,0,0,0,0.1v0.7
			c0,0.2,0,0.4-0.1,0.5c-0.1,0.2-0.2,0.3-0.3,0.4c-0.1,0.1-0.2,0.2-0.4,0.3c-0.2,0.1-0.3,0.1-0.5,0.1h-2c-0.4,0-0.7-0.1-0.9-0.4
			c-0.3-0.3-0.4-0.6-0.4-0.9v-4.3c0-0.2,0-0.3,0.1-0.5c0.1-0.2,0.2-0.3,0.3-0.4c0.1-0.1,0.3-0.2,0.4-0.3c0.2-0.1,0.3-0.1,0.5-0.1
			H303.6z M301.7,180.9h1.7v-1.8c0,0,0-0.1,0-0.1h-1.6c0,0,0,0,0,0.1V180.9z"/>
		<path fill="#FFFFFF" d="M306.2,179.3c0-0.4,0.1-0.7,0.4-0.9c0.2-0.3,0.6-0.4,0.9-0.4h1.1c0.2,0,0.4,0,0.5,0.1
			c0.1,0.1,0.3,0.2,0.3,0.3s0.2,0.2,0.2,0.3c0,0.1,0.1,0.2,0.1,0.3c0-0.1,0-0.2,0-0.3c0-0.1,0.1-0.2,0.1-0.3
			c0.1-0.1,0.2-0.2,0.4-0.3c0.2-0.1,0.4-0.1,0.6-0.1h1.1c0.2,0,0.3,0,0.5,0.1c0.2,0.1,0.3,0.2,0.4,0.3c0.1,0.1,0.2,0.3,0.3,0.4
			c0.1,0.2,0.1,0.3,0.1,0.5v5.5c0,0,0,0-0.1,0H312c0,0-0.1,0-0.1,0v-5.5c0-0.1,0-0.1-0.1-0.1H311c-0.1,0-0.3,0-0.4,0.1
			c-0.1,0.1-0.2,0.2-0.2,0.4v5.1c0,0,0,0-0.1,0h-1.1c0,0-0.1,0-0.1,0v-5.1c0-0.2-0.1-0.3-0.2-0.4c-0.1-0.1-0.3-0.1-0.4-0.1h-0.8
			c-0.1,0-0.1,0-0.1,0.1v5.5c0,0,0,0-0.1,0h-1.4c0,0-0.1,0-0.1,0V179.3z"/>
		<path fill="#FFFFFF" d="M319.7,175C319.7,175,319.7,175,319.7,175l0.1,1.4c0,0,0,0.1-0.1,0.1h-1.4c0,0-0.1,0-0.1-0.1V175
			c0,0,0,0,0.1,0H319.7z M319.7,177.9C319.7,177.9,319.7,177.9,319.7,177.9l0.1,6.9c0,0,0,0.1-0.1,0.1h-1.4c0,0-0.1,0-0.1-0.1V178
			c0,0,0,0,0.1,0H319.7z"/>
		<path fill="#FFFFFF" d="M324.7,177.9c0.4,0,0.7,0.1,0.9,0.4c0.2,0.3,0.4,0.6,0.4,0.9v4.3c0,0.4-0.1,0.7-0.4,0.9s-0.6,0.4-0.9,0.4
			h-1.9v2.7c0,0,0,0-0.1,0h-1.4c0,0-0.1,0-0.1,0c0-1.4,0-2.6,0-3.6s0-1.9,0-2.6s0-1.3,0-1.7c0-0.4,0-0.8,0-1c0-0.2,0-0.4,0-0.5
			s0-0.2,0-0.2c0,0,0,0,0,0H324.7z M324.5,179.2C324.5,179.2,324.5,179.2,324.5,179.2l-1.7-0.1c0,0-0.1,0-0.1,0v4.4c0,0,0,0,0.1,0
			h1.6c0,0,0,0,0,0V179.2z"/>
		<path fill="#FFFFFF" d="M329,180.1c0.4,0.2,0.9,0.4,1.2,0.6c0.3,0.2,0.6,0.3,0.9,0.4s0.4,0.2,0.5,0.2c0.3,0.2,0.4,0.4,0.4,0.7
			l0,1.5c0,0.2,0,0.3-0.1,0.5c-0.1,0.2-0.2,0.3-0.3,0.4c-0.1,0.1-0.3,0.2-0.4,0.3c-0.2,0.1-0.3,0.1-0.5,0.1h-2c-0.2,0-0.3,0-0.5-0.1
			c-0.2-0.1-0.3-0.2-0.4-0.3c-0.1-0.1-0.2-0.3-0.3-0.4c-0.1-0.2-0.1-0.3-0.1-0.5v-1h1.4v1.1c0,0,0,0,0,0h1.6c0,0,0,0,0,0v-1.2
			c0,0,0,0,0-0.1c-0.5-0.3-1-0.5-1.4-0.7c-0.2-0.1-0.3-0.2-0.5-0.3c-0.2-0.1-0.3-0.2-0.4-0.2c-0.1-0.1-0.2-0.1-0.3-0.2
			s-0.1-0.1-0.1-0.1c-0.1,0-0.1-0.1-0.1-0.1s0-0.1,0-0.2v-1.7c0-0.3,0.1-0.6,0.2-0.8c0.2-0.2,0.4-0.3,0.8-0.3h2.3
			c0.3,0,0.6,0.1,0.8,0.3c0.2,0.2,0.3,0.5,0.3,0.8v0.8h-1.4v-0.8c0,0,0,0,0,0H329l0,0c0,0,0,0,0,0v1L329,180.1
			C329,180.1,329,180.1,329,180.1z"/>
		<path fill="#FFFFFF" d="M334.7,184.8L334.7,184.8c-0.2,0-0.3,0-0.5-0.1c-0.2-0.1-0.3-0.2-0.4-0.3c-0.1-0.1-0.2-0.3-0.3-0.4
			s-0.1-0.3-0.1-0.5V178c0,0,0,0,0,0h1.4c0,0,0,0,0,0v5.6c0,0,0,0,0,0h1.7c0,0,0,0,0,0V178c0,0,0,0,0,0h1.4c0,0,0,0,0,0v5.5
			c0,0.2,0,0.4-0.1,0.5s-0.2,0.3-0.3,0.4c-0.1,0.1-0.3,0.2-0.4,0.3c-0.2,0.1-0.3,0.1-0.5,0.1H334.7z"/>
		<path fill="#FFFFFF" d="M339.6,179.3c0-0.4,0.1-0.7,0.4-0.9c0.2-0.3,0.6-0.4,0.9-0.4h1.1c0.2,0,0.4,0,0.5,0.1
			c0.1,0.1,0.3,0.2,0.3,0.3s0.2,0.2,0.2,0.3c0,0.1,0.1,0.2,0.1,0.3c0-0.1,0-0.2,0-0.3c0-0.1,0.1-0.2,0.1-0.3
			c0.1-0.1,0.2-0.2,0.4-0.3c0.2-0.1,0.4-0.1,0.6-0.1h1.1c0.2,0,0.3,0,0.5,0.1c0.2,0.1,0.3,0.2,0.4,0.3c0.1,0.1,0.2,0.3,0.3,0.4
			c0.1,0.2,0.1,0.3,0.1,0.5v5.5c0,0,0,0-0.1,0h-1.4c0,0-0.1,0-0.1,0v-5.5c0-0.1,0-0.1-0.1-0.1h-0.7c-0.1,0-0.3,0-0.4,0.1
			c-0.1,0.1-0.2,0.2-0.2,0.4v5.1c0,0,0,0-0.1,0h-1.1c0,0-0.1,0-0.1,0v-5.1c0-0.2-0.1-0.3-0.2-0.4c-0.1-0.1-0.3-0.1-0.4-0.1h-0.8
			c-0.1,0-0.1,0-0.1,0.1v5.5c0,0,0,0-0.1,0h-1.4c0,0-0.1,0-0.1,0V179.3z"/>
		<path fill="#FFFFFF" d="M352.8,184.8c-0.4,0-0.7-0.1-0.9-0.4s-0.4-0.6-0.4-0.9v-4.3c0-0.4,0.1-0.7,0.4-0.9
			c0.2-0.3,0.6-0.4,0.9-0.4h1.9v-3.2c0,0,0,0,0.1,0h1.4c0,0,0.1,0,0.1,0c0,1.4,0,2.6,0,3.7s0,1.9,0,2.7s0,1.3,0,1.8
			c0,0.5,0,0.9,0,1.1s0,0.5,0,0.6c0,0.1,0,0.2,0,0.2c0,0,0,0,0,0H352.8z M352.9,183.7C352.9,183.7,353,183.7,352.9,183.7l1.7,0.1
			c0,0,0.1,0,0.1,0v-4.5c0,0,0,0-0.1,0H353c0,0,0,0,0,0V183.7z"/>
		<path fill="#FFFFFF" d="M360.9,177.9c0.4,0,0.7,0.1,0.9,0.4c0.2,0.3,0.4,0.6,0.4,0.9v4.3c0,0.4-0.1,0.7-0.4,0.9s-0.6,0.4-0.9,0.4
			h0h-2h0c-0.4,0-0.7-0.1-0.9-0.4c-0.2-0.3-0.4-0.6-0.4-0.9v-4.3c0-0.4,0.1-0.7,0.4-0.9c0.2-0.3,0.5-0.4,0.9-0.4H360.9z
			 M360.7,179.1C360.7,179.1,360.7,179.1,360.7,179.1l-1.5,0c0,0-0.1,0-0.1,0v4.5c0,0,0,0,0.1,0.1h1.5c0,0,0,0,0-0.1V179.1z"/>
		<path fill="#FFFFFF" d="M365.1,174.7C365.1,174.7,365.1,174.7,365.1,174.7l0.1,10.1c0,0,0,0.1-0.1,0.1h-1.4c0,0-0.1,0-0.1-0.1
			v-10.1c0,0,0,0,0.1,0H365.1z"/>
		<path fill="#FFFFFF" d="M369.9,177.9c0.4,0,0.7,0.1,0.9,0.4c0.2,0.3,0.4,0.6,0.4,0.9v4.3c0,0.4-0.1,0.7-0.4,0.9s-0.6,0.4-0.9,0.4
			h0h-2h0c-0.4,0-0.7-0.1-0.9-0.4c-0.2-0.3-0.4-0.6-0.4-0.9v-4.3c0-0.4,0.1-0.7,0.4-0.9c0.2-0.3,0.5-0.4,0.9-0.4H369.9z
			 M369.7,179.1C369.7,179.1,369.7,179.1,369.7,179.1l-1.5,0c0,0-0.1,0-0.1,0v4.5c0,0,0,0,0.1,0.1h1.5c0,0,0,0,0-0.1V179.1z"/>
		<path fill="#FFFFFF" d="M374,177.9h2c0,0,0,0,0,0v1.1c0,0,0,0,0,0h-1.8c0,0,0,0,0,0v5.6c0,0,0,0,0,0h-1.4c0,0,0,0,0,0v-5.5
			c0-0.2,0-0.4,0.1-0.5c0.1-0.2,0.2-0.3,0.3-0.4c0.1-0.1,0.3-0.2,0.4-0.3C373.6,178,373.8,177.9,374,177.9z"/>
		<path fill="#FFFFFF" d="M382,180.1c0.4,0.2,0.9,0.4,1.2,0.6c0.3,0.2,0.6,0.3,0.9,0.4s0.4,0.2,0.5,0.2c0.3,0.2,0.4,0.4,0.4,0.7
			l0,1.5c0,0.2,0,0.3-0.1,0.5c-0.1,0.2-0.2,0.3-0.3,0.4c-0.1,0.1-0.3,0.2-0.4,0.3c-0.2,0.1-0.3,0.1-0.5,0.1h-2c-0.2,0-0.3,0-0.5-0.1
			c-0.2-0.1-0.3-0.2-0.4-0.3c-0.1-0.1-0.2-0.3-0.3-0.4c-0.1-0.2-0.1-0.3-0.1-0.5v-1h1.4v1.1c0,0,0,0,0,0h1.6c0,0,0,0,0,0v-1.2
			c0,0,0,0,0-0.1c-0.5-0.3-1-0.5-1.4-0.7c-0.2-0.1-0.3-0.2-0.5-0.3c-0.2-0.1-0.3-0.2-0.4-0.2c-0.1-0.1-0.2-0.1-0.3-0.2
			s-0.1-0.1-0.1-0.1c-0.1,0-0.1-0.1-0.1-0.1s0-0.1,0-0.2v-1.7c0-0.3,0.1-0.6,0.2-0.8c0.2-0.2,0.4-0.3,0.8-0.3h2.3
			c0.3,0,0.6,0.1,0.8,0.3c0.2,0.2,0.3,0.5,0.3,0.8v0.8h-1.4v-0.8c0,0,0,0,0,0H382l0,0c0,0,0,0,0,0v1L382,180.1
			C382,180.1,382,180.1,382,180.1z"/>
		<path fill="#FFFFFF" d="M387.9,175C388,175,388,175,387.9,175l0.1,1.4c0,0,0,0.1-0.1,0.1h-1.4c0,0-0.1,0-0.1-0.1V175
			c0,0,0,0,0.1,0H387.9z M387.9,177.9C388,177.9,388,177.9,387.9,177.9l0.1,6.9c0,0,0,0.1-0.1,0.1h-1.4c0,0-0.1,0-0.1-0.1V178
			c0,0,0,0,0.1,0H387.9z"/>
		<path fill="#FFFFFF" d="M390.1,176.3C390.1,176.3,390.1,176.3,390.1,176.3l1.4,0c0,0,0,0,0.1,0v1.6h1c0,0,0,0,0,0.1v1.1
			c0,0,0,0,0,0.1h-1v5.7c0,0,0,0.1-0.1,0.1h-1.4c0,0-0.1,0-0.1-0.1v-5.7h-1c0,0,0,0,0-0.1V178c0,0,0-0.1,0-0.1h1V176.3z"/>
		<path fill="#FFFFFF" d="M400,180.9v-1.8c0,0,0,0,0,0h-1.5c0,0,0,0,0,0v0.8c0,0,0,0.1-0.1,0.1H397c0,0,0,0,0-0.1v-0.7
			c0-0.2,0-0.3,0.1-0.5c0.1-0.2,0.2-0.3,0.3-0.4c0.1-0.1,0.2-0.2,0.4-0.3c0.2-0.1,0.3-0.1,0.5-0.1h1.9c0.2,0,0.3,0,0.5,0.1
			c0.2,0.1,0.3,0.2,0.4,0.3c0.1,0.1,0.2,0.3,0.3,0.4c0.1,0.2,0.1,0.3,0.1,0.5v5.6c0,0,0,0,0,0l0,0h-3.3c-0.2,0-0.3,0-0.5-0.1
			c-0.2-0.1-0.3-0.2-0.4-0.3c-0.1-0.1-0.2-0.3-0.3-0.4c-0.1-0.2-0.1-0.3-0.1-0.5v-1.3c0-0.2,0-0.3,0.1-0.5s0.2-0.3,0.3-0.4
			c0.1-0.1,0.2-0.2,0.4-0.3c0.2-0.1,0.3-0.1,0.5-0.1H400z M400,181.9h-1.7c0,0,0,0,0,0v1.7c0,0,0,0.1,0,0.1h1.7c0,0,0,0,0-0.1V181.9
			z"/>
		<path fill="#FFFFFF" d="M402.9,179.3c0-0.4,0.1-0.7,0.4-0.9c0.2-0.3,0.6-0.4,0.9-0.4h1.1c0.2,0,0.4,0,0.5,0.1
			c0.1,0.1,0.3,0.2,0.3,0.3s0.2,0.2,0.2,0.3c0,0.1,0.1,0.2,0.1,0.3c0-0.1,0-0.2,0-0.3c0-0.1,0.1-0.2,0.1-0.3
			c0.1-0.1,0.2-0.2,0.4-0.3c0.2-0.1,0.4-0.1,0.6-0.1h1.1c0.2,0,0.3,0,0.5,0.1c0.2,0.1,0.3,0.2,0.4,0.3c0.1,0.1,0.2,0.3,0.3,0.4
			c0.1,0.2,0.1,0.3,0.1,0.5v5.5c0,0,0,0-0.1,0h-1.4c0,0-0.1,0-0.1,0v-5.5c0-0.1,0-0.1-0.1-0.1h-0.7c-0.1,0-0.3,0-0.4,0.1
			c-0.1,0.1-0.2,0.2-0.2,0.4v5.1c0,0,0,0-0.1,0h-1.1c0,0-0.1,0-0.1,0v-5.1c0-0.2-0.1-0.3-0.2-0.4c-0.1-0.1-0.3-0.1-0.4-0.1h-0.8
			c-0.1,0-0.1,0-0.1,0.1v5.5c0,0,0,0-0.1,0H403c0,0-0.1,0-0.1,0V179.3z"/>
		<path fill="#FFFFFF" d="M414.8,177.9c0.2,0,0.3,0,0.5,0.1c0.2,0.1,0.3,0.2,0.4,0.3c0.1,0.1,0.2,0.3,0.3,0.4
			c0.1,0.2,0.1,0.3,0.1,0.5v2.6c0,0,0,0-0.1,0h-3v1.8c0,0,0,0,0,0h1.6c0,0,0,0,0,0v-0.9c0,0,0-0.1,0.1-0.1h1.3c0,0,0,0,0,0.1v0.7
			c0,0.2,0,0.4-0.1,0.5c-0.1,0.2-0.2,0.3-0.3,0.4c-0.1,0.1-0.2,0.2-0.4,0.3c-0.2,0.1-0.3,0.1-0.5,0.1h-2c-0.4,0-0.7-0.1-0.9-0.4
			c-0.3-0.3-0.4-0.6-0.4-0.9v-4.3c0-0.2,0-0.3,0.1-0.5c0.1-0.2,0.2-0.3,0.3-0.4c0.1-0.1,0.3-0.2,0.4-0.3c0.2-0.1,0.3-0.1,0.5-0.1
			H414.8z M413,180.9h1.7v-1.8c0,0,0-0.1,0-0.1H413c0,0,0,0,0,0.1V180.9z"/>
		<path fill="#FFFFFF" d="M418.1,176.3C418.1,176.3,418.1,176.3,418.1,176.3l1.4,0c0,0,0,0,0.1,0v1.6h1c0,0,0,0,0,0.1v1.1
			c0,0,0,0,0,0.1h-1v5.7c0,0,0,0.1-0.1,0.1h-1.4c0,0-0.1,0-0.1-0.1v-5.7h-1c0,0,0,0,0-0.1V178c0,0,0-0.1,0-0.1h1V176.3z"/>
		<path fill="#FFFFFF" d="M422.2,183.3C422.2,183.3,422.2,183.3,422.2,183.3l0.1,2.7c0,0,0,0.1-0.1,0.1l-0.9-1.2h-0.8
			c0,0-0.1,0-0.1-0.1v-1.4c0,0,0,0,0.1,0H422.2z"/>
		<path fill="#FFFFFF" d="M429.6,180.9v-1.8c0,0,0,0,0,0h-1.5c0,0,0,0,0,0v0.8c0,0,0,0.1-0.1,0.1h-1.3c0,0,0,0,0-0.1v-0.7
			c0-0.2,0-0.3,0.1-0.5c0.1-0.2,0.2-0.3,0.3-0.4c0.1-0.1,0.2-0.2,0.4-0.3c0.2-0.1,0.3-0.1,0.5-0.1h1.9c0.2,0,0.3,0,0.5,0.1
			c0.2,0.1,0.3,0.2,0.4,0.3c0.1,0.1,0.2,0.3,0.3,0.4c0.1,0.2,0.1,0.3,0.1,0.5v5.6c0,0,0,0,0,0l0,0h-3.3c-0.2,0-0.3,0-0.5-0.1
			c-0.2-0.1-0.3-0.2-0.4-0.3c-0.1-0.1-0.2-0.3-0.3-0.4c-0.1-0.2-0.1-0.3-0.1-0.5v-1.3c0-0.2,0-0.3,0.1-0.5s0.2-0.3,0.3-0.4
			c0.1-0.1,0.2-0.2,0.4-0.3c0.2-0.1,0.3-0.1,0.5-0.1H429.6z M429.6,181.9h-1.7c0,0,0,0,0,0v1.7c0,0,0,0.1,0,0.1h1.7c0,0,0,0,0-0.1
			V181.9z"/>
		<path fill="#FFFFFF" d="M436,177.9c0.4,0,0.7,0.1,0.9,0.4c0.2,0.3,0.4,0.6,0.4,0.9v4.3c0,0.4-0.1,0.7-0.4,0.9s-0.6,0.4-0.9,0.4
			h-1.9v2.7c0,0,0,0-0.1,0h-1.4c0,0-0.1,0-0.1,0c0-1.4,0-2.6,0-3.6s0-1.9,0-2.6s0-1.3,0-1.7c0-0.4,0-0.8,0-1c0-0.2,0-0.4,0-0.5
			s0-0.2,0-0.2c0,0,0,0,0,0H436z M435.8,179.2C435.8,179.2,435.8,179.2,435.8,179.2l-1.7-0.1c0,0-0.1,0-0.1,0v4.4c0,0,0,0,0.1,0h1.6
			c0,0,0,0,0,0V179.2z"/>
		<path fill="#FFFFFF" d="M442.1,177.9c0.2,0,0.3,0,0.5,0.1c0.2,0.1,0.3,0.2,0.4,0.3c0.1,0.1,0.2,0.3,0.3,0.4
			c0.1,0.2,0.1,0.3,0.1,0.5v2.6c0,0,0,0-0.1,0h-3v1.8c0,0,0,0,0,0h1.6c0,0,0,0,0,0v-0.9c0,0,0-0.1,0.1-0.1h1.3c0,0,0,0,0,0.1v0.7
			c0,0.2,0,0.4-0.1,0.5c-0.1,0.2-0.2,0.3-0.3,0.4c-0.1,0.1-0.2,0.2-0.4,0.3c-0.2,0.1-0.3,0.1-0.5,0.1h-2c-0.4,0-0.7-0.1-0.9-0.4
			c-0.3-0.3-0.4-0.6-0.4-0.9v-4.3c0-0.2,0-0.3,0.1-0.5c0.1-0.2,0.2-0.3,0.3-0.4c0.1-0.1,0.3-0.2,0.4-0.3c0.2-0.1,0.3-0.1,0.5-0.1
			H442.1z M440.2,180.9h1.7v-1.8c0,0,0-0.1,0-0.1h-1.6c0,0,0,0,0,0.1V180.9z"/>
		<path fill="#FFFFFF" d="M446.1,177.9h2c0,0,0,0,0,0v1.1c0,0,0,0,0,0h-1.8c0,0,0,0,0,0v5.6c0,0,0,0,0,0h-1.4c0,0,0,0,0,0v-5.5
			c0-0.2,0-0.4,0.1-0.5c0.1-0.2,0.2-0.3,0.3-0.4c0.1-0.1,0.3-0.2,0.4-0.3C445.7,178,445.9,177.9,446.1,177.9z"/>
		<path fill="#FFFFFF" d="M450.7,175C450.7,175,450.8,175,450.7,175l0.1,1.4c0,0,0,0.1-0.1,0.1h-1.4c0,0-0.1,0-0.1-0.1V175
			c0,0,0,0,0.1,0H450.7z M450.7,177.9C450.7,177.9,450.8,177.9,450.7,177.9l0.1,6.9c0,0,0,0.1-0.1,0.1h-1.4c0,0-0.1,0-0.1-0.1V178
			c0,0,0,0,0.1,0H450.7z"/>
		<path fill="#FFFFFF" d="M455.4,180.9v-1.8c0,0,0,0,0,0h-1.5c0,0,0,0,0,0v0.8c0,0,0,0.1-0.1,0.1h-1.3c0,0,0,0,0-0.1v-0.7
			c0-0.2,0-0.3,0.1-0.5c0.1-0.2,0.2-0.3,0.3-0.4c0.1-0.1,0.2-0.2,0.4-0.3c0.2-0.1,0.3-0.1,0.5-0.1h1.9c0.2,0,0.3,0,0.5,0.1
			c0.2,0.1,0.3,0.2,0.4,0.3c0.1,0.1,0.2,0.3,0.3,0.4c0.1,0.2,0.1,0.3,0.1,0.5v5.6c0,0,0,0,0,0l0,0h-3.3c-0.2,0-0.3,0-0.5-0.1
			c-0.2-0.1-0.3-0.2-0.4-0.3c-0.1-0.1-0.2-0.3-0.3-0.4c-0.1-0.2-0.1-0.3-0.1-0.5v-1.3c0-0.2,0-0.3,0.1-0.5s0.2-0.3,0.3-0.4
			c0.1-0.1,0.2-0.2,0.4-0.3c0.2-0.1,0.3-0.1,0.5-0.1H455.4z M455.4,181.9h-1.7c0,0,0,0,0,0v1.7c0,0,0,0.1,0,0.1h1.7c0,0,0,0,0-0.1
			V181.9z"/>
		<path fill="#FFFFFF" d="M458.3,179.3c0-0.4,0.1-0.7,0.4-0.9c0.2-0.3,0.6-0.4,0.9-0.4h1.1c0.2,0,0.4,0,0.5,0.1
			c0.1,0.1,0.3,0.2,0.3,0.3s0.2,0.2,0.2,0.3c0,0.1,0.1,0.2,0.1,0.3c0-0.1,0-0.2,0-0.3c0-0.1,0.1-0.2,0.1-0.3
			c0.1-0.1,0.2-0.2,0.4-0.3c0.2-0.1,0.4-0.1,0.6-0.1h1.1c0.2,0,0.3,0,0.5,0.1c0.2,0.1,0.3,0.2,0.4,0.3c0.1,0.1,0.2,0.3,0.3,0.4
			c0.1,0.2,0.1,0.3,0.1,0.5v5.5c0,0,0,0-0.1,0h-1.4c0,0-0.1,0-0.1,0v-5.5c0-0.1,0-0.1-0.1-0.1h-0.7c-0.1,0-0.3,0-0.4,0.1
			c-0.1,0.1-0.2,0.2-0.2,0.4v5.1c0,0,0,0-0.1,0h-1.1c0,0-0.1,0-0.1,0v-5.1c0-0.2-0.1-0.3-0.2-0.4c-0.1-0.1-0.3-0.1-0.4-0.1h-0.8
			c-0.1,0-0.1,0-0.1,0.1v5.5c0,0,0,0-0.1,0h-1.4c0,0-0.1,0-0.1,0V179.3z"/>
		<path fill="#FFFFFF" d="M473.7,177.9c0.4,0,0.7,0.1,0.9,0.4c0.2,0.3,0.4,0.6,0.4,0.9v4.3c0,0.4-0.1,0.7-0.4,0.9s-0.6,0.4-0.9,0.4
			h-1.9v2.7c0,0,0,0-0.1,0h-1.4c0,0-0.1,0-0.1,0c0-1.4,0-2.6,0-3.6s0-1.9,0-2.6s0-1.3,0-1.7c0-0.4,0-0.8,0-1c0-0.2,0-0.4,0-0.5
			s0-0.2,0-0.2c0,0,0,0,0,0H473.7z M473.5,179.2C473.5,179.2,473.5,179.2,473.5,179.2l-1.7-0.1c0,0-0.1,0-0.1,0v4.4c0,0,0,0,0.1,0
			h1.6c0,0,0,0,0,0V179.2z"/>
		<path fill="#FFFFFF" d="M477.9,174.7C477.9,174.7,477.9,174.7,477.9,174.7l0.1,3.3h1.9c0.2,0,0.3,0,0.5,0.1
			c0.2,0.1,0.3,0.2,0.4,0.3c0.1,0.1,0.2,0.3,0.3,0.4c0.1,0.2,0.1,0.3,0.1,0.5v5.5c0,0,0,0,0,0h-1.4c0,0,0,0,0,0v-5.6c0,0,0,0,0,0
			H478c0,0,0,0,0,0l0,5.6c0,0,0,0,0,0h-1.4c0,0,0,0,0,0l0-10.1c0,0,0,0,0.1,0H477.9z"/>
		<path fill="#FFFFFF" d="M485.7,180.9v-1.8c0,0,0,0,0,0h-1.5c0,0,0,0,0,0v0.8c0,0,0,0.1-0.1,0.1h-1.3c0,0,0,0,0-0.1v-0.7
			c0-0.2,0-0.3,0.1-0.5c0.1-0.2,0.2-0.3,0.3-0.4c0.1-0.1,0.2-0.2,0.4-0.3c0.2-0.1,0.3-0.1,0.5-0.1h1.9c0.2,0,0.3,0,0.5,0.1
			c0.2,0.1,0.3,0.2,0.4,0.3c0.1,0.1,0.2,0.3,0.3,0.4c0.1,0.2,0.1,0.3,0.1,0.5v5.6c0,0,0,0,0,0l0,0h-3.3c-0.2,0-0.3,0-0.5-0.1
			c-0.2-0.1-0.3-0.2-0.4-0.3c-0.1-0.1-0.2-0.3-0.3-0.4c-0.1-0.2-0.1-0.3-0.1-0.5v-1.3c0-0.2,0-0.3,0.1-0.5s0.2-0.3,0.3-0.4
			c0.1-0.1,0.2-0.2,0.4-0.3c0.2-0.1,0.3-0.1,0.5-0.1H485.7z M485.7,181.9H484c0,0,0,0,0,0v1.7c0,0,0,0.1,0,0.1h1.7c0,0,0,0,0-0.1
			V181.9z"/>
		<path fill="#FFFFFF" d="M492,177.9c0.2,0,0.3,0,0.5,0.1c0.2,0.1,0.3,0.2,0.4,0.3c0.1,0.1,0.2,0.3,0.3,0.4c0.1,0.2,0.1,0.3,0.1,0.5
			v2.6c0,0,0,0-0.1,0h-3v1.8c0,0,0,0,0,0h1.6c0,0,0,0,0,0v-0.9c0,0,0-0.1,0.1-0.1h1.3c0,0,0,0,0,0.1v0.7c0,0.2,0,0.4-0.1,0.5
			c-0.1,0.2-0.2,0.3-0.3,0.4c-0.1,0.1-0.2,0.2-0.4,0.3c-0.2,0.1-0.3,0.1-0.5,0.1h-2c-0.4,0-0.7-0.1-0.9-0.4
			c-0.3-0.3-0.4-0.6-0.4-0.9v-4.3c0-0.2,0-0.3,0.1-0.5c0.1-0.2,0.2-0.3,0.3-0.4c0.1-0.1,0.3-0.2,0.4-0.3c0.2-0.1,0.3-0.1,0.5-0.1
			H492z M490.2,180.9h1.7v-1.8c0,0,0-0.1,0-0.1h-1.6c0,0,0,0,0,0.1V180.9z"/>
		<path fill="#FFFFFF" d="M495.9,184.8c-0.4,0-0.7-0.1-0.9-0.4s-0.4-0.6-0.4-0.9v-4.3c0-0.4,0.1-0.7,0.4-0.9
			c0.2-0.3,0.6-0.4,0.9-0.4h1.9v-3.2c0,0,0,0,0.1,0h1.4c0,0,0.1,0,0.1,0c0,1.4,0,2.6,0,3.7s0,1.9,0,2.7s0,1.3,0,1.8
			c0,0.5,0,0.9,0,1.1s0,0.5,0,0.6c0,0.1,0,0.2,0,0.2c0,0,0,0,0,0H495.9z M496.1,183.7C496.1,183.7,496.1,183.7,496.1,183.7l1.7,0.1
			c0,0,0.1,0,0.1,0v-4.5c0,0,0,0-0.1,0h-1.6c0,0,0,0,0,0V183.7z"/>
		<path fill="#FFFFFF" d="M502.2,177.9h2c0,0,0,0,0,0v1.1c0,0,0,0,0,0h-1.8c0,0,0,0,0,0v5.6c0,0,0,0,0,0h-1.4c0,0,0,0,0,0v-5.5
			c0-0.2,0-0.4,0.1-0.5c0.1-0.2,0.2-0.3,0.3-0.4c0.1-0.1,0.3-0.2,0.4-0.3C501.8,178,502,177.9,502.2,177.9z"/>
		<path fill="#FFFFFF" d="M506.5,184.8L506.5,184.8c-0.2,0-0.3,0-0.5-0.1c-0.2-0.1-0.3-0.2-0.4-0.3c-0.1-0.1-0.2-0.3-0.3-0.4
			s-0.1-0.3-0.1-0.5V178c0,0,0,0,0,0h1.4c0,0,0,0,0,0v5.6c0,0,0,0,0,0h1.7c0,0,0,0,0,0V178c0,0,0,0,0,0h1.4c0,0,0,0,0,0v5.5
			c0,0.2,0,0.4-0.1,0.5s-0.2,0.3-0.3,0.4c-0.1,0.1-0.3,0.2-0.4,0.3c-0.2,0.1-0.3,0.1-0.5,0.1H506.5z"/>
		<path fill="#FFFFFF" d="M511.4,179.3c0-0.4,0.1-0.7,0.4-0.9c0.2-0.3,0.6-0.4,0.9-0.4h1.1c0.2,0,0.4,0,0.5,0.1
			c0.1,0.1,0.3,0.2,0.3,0.3s0.2,0.2,0.2,0.3c0,0.1,0.1,0.2,0.1,0.3c0-0.1,0-0.2,0-0.3c0-0.1,0.1-0.2,0.1-0.3
			c0.1-0.1,0.2-0.2,0.4-0.3c0.2-0.1,0.4-0.1,0.6-0.1h1.1c0.2,0,0.3,0,0.5,0.1c0.2,0.1,0.3,0.2,0.4,0.3c0.1,0.1,0.2,0.3,0.3,0.4
			c0.1,0.2,0.1,0.3,0.1,0.5v5.5c0,0,0,0-0.1,0h-1.4c0,0-0.1,0-0.1,0v-5.5c0-0.1,0-0.1-0.1-0.1h-0.7c-0.1,0-0.3,0-0.4,0.1
			c-0.1,0.1-0.2,0.2-0.2,0.4v5.1c0,0,0,0-0.1,0h-1.1c0,0-0.1,0-0.1,0v-5.1c0-0.2-0.1-0.3-0.2-0.4c-0.1-0.1-0.3-0.1-0.4-0.1H513
			c-0.1,0-0.1,0-0.1,0.1v5.5c0,0,0,0-0.1,0h-1.4c0,0-0.1,0-0.1,0V179.3z"/>
		<path fill="#FFFFFF" d="M523.8,176.3C523.8,176.3,523.9,176.3,523.8,176.3l1.4,0c0,0,0,0,0.1,0v1.6h1c0,0,0,0,0,0.1v1.1
			c0,0,0,0,0,0.1h-1v5.7c0,0,0,0.1-0.1,0.1h-1.4c0,0-0.1,0-0.1-0.1v-5.7h-1c0,0,0,0,0-0.1V178c0,0,0-0.1,0-0.1h1V176.3z"/>
		<path fill="#FFFFFF" d="M528.7,177.9h2c0,0,0,0,0,0v1.1c0,0,0,0,0,0h-1.8c0,0,0,0,0,0v5.6c0,0,0,0,0,0h-1.4c0,0,0,0,0,0v-5.5
			c0-0.2,0-0.4,0.1-0.5c0.1-0.2,0.2-0.3,0.3-0.4c0.1-0.1,0.3-0.2,0.4-0.3C528.3,178,528.5,177.9,528.7,177.9z"/>
		<path fill="#FFFFFF" d="M534.8,180.9v-1.8c0,0,0,0,0,0h-1.5c0,0,0,0,0,0v0.8c0,0,0,0.1-0.1,0.1h-1.3c0,0,0,0,0-0.1v-0.7
			c0-0.2,0-0.3,0.1-0.5c0.1-0.2,0.2-0.3,0.3-0.4c0.1-0.1,0.2-0.2,0.4-0.3c0.2-0.1,0.3-0.1,0.5-0.1h1.9c0.2,0,0.3,0,0.5,0.1
			c0.2,0.1,0.3,0.2,0.4,0.3c0.1,0.1,0.2,0.3,0.3,0.4c0.1,0.2,0.1,0.3,0.1,0.5v5.6c0,0,0,0,0,0l0,0h-3.3c-0.2,0-0.3,0-0.5-0.1
			c-0.2-0.1-0.3-0.2-0.4-0.3c-0.1-0.1-0.2-0.3-0.3-0.4c-0.1-0.2-0.1-0.3-0.1-0.5v-1.3c0-0.2,0-0.3,0.1-0.5s0.2-0.3,0.3-0.4
			c0.1-0.1,0.2-0.2,0.4-0.3c0.2-0.1,0.3-0.1,0.5-0.1H534.8z M534.8,181.9H533c0,0,0,0,0,0v1.7c0,0,0,0.1,0,0.1h1.7c0,0,0,0,0-0.1
			V181.9z"/>
		<path fill="#FFFFFF" d="M540.8,177.9c0.4,0,0.7,0.1,0.9,0.4c0.2,0.3,0.4,0.6,0.4,0.9v1c0,0,0,0-0.1,0h-1.3c0,0,0,0,0,0v-1
			c0,0,0-0.1,0-0.1h-1.4c0,0,0,0,0,0.1v4.3c0,0,0,0,0,0h1.4c0,0,0,0,0,0v-1.2c0,0,0-0.1,0.1-0.1h1.3c0,0,0,0,0,0.1v1.2
			c0,0.4-0.1,0.7-0.4,0.9c-0.2,0.3-0.5,0.4-0.9,0.4h0H539h0c-0.4,0-0.7-0.1-0.9-0.4c-0.3-0.3-0.4-0.6-0.4-0.9v-4.3
			c0-0.2,0-0.3,0.1-0.5c0.1-0.2,0.2-0.3,0.3-0.4c0.1-0.1,0.3-0.2,0.4-0.3c0.2-0.1,0.3-0.1,0.5-0.1h0H540.8L540.8,177.9z"/>
		<path fill="#FFFFFF" d="M544,176.3C544,176.3,544.1,176.3,544,176.3l1.4,0c0,0,0,0,0.1,0v1.6h1c0,0,0,0,0,0.1v1.1c0,0,0,0,0,0.1
			h-1v5.7c0,0,0,0.1-0.1,0.1h-1.4c0,0-0.1,0-0.1-0.1v-5.7h-1c0,0,0,0,0-0.1V178c0,0,0-0.1,0-0.1h1V176.3z"/>
		<path fill="#FFFFFF" d="M550.5,180.9v-1.8c0,0,0,0,0,0h-1.5c0,0,0,0,0,0v0.8c0,0,0,0.1-0.1,0.1h-1.3c0,0,0,0,0-0.1v-0.7
			c0-0.2,0-0.3,0.1-0.5c0.1-0.2,0.2-0.3,0.3-0.4c0.1-0.1,0.2-0.2,0.4-0.3c0.2-0.1,0.3-0.1,0.5-0.1h1.9c0.2,0,0.3,0,0.5,0.1
			c0.2,0.1,0.3,0.2,0.4,0.3c0.1,0.1,0.2,0.3,0.3,0.4c0.1,0.2,0.1,0.3,0.1,0.5v5.6c0,0,0,0,0,0l0,0h-3.3c-0.2,0-0.3,0-0.5-0.1
			c-0.2-0.1-0.3-0.2-0.4-0.3c-0.1-0.1-0.2-0.3-0.3-0.4c-0.1-0.2-0.1-0.3-0.1-0.5v-1.3c0-0.2,0-0.3,0.1-0.5s0.2-0.3,0.3-0.4
			c0.1-0.1,0.2-0.2,0.4-0.3c0.2-0.1,0.3-0.1,0.5-0.1H550.5z M550.5,181.9h-1.7c0,0,0,0,0,0v1.7c0,0,0,0.1,0,0.1h1.7c0,0,0,0,0-0.1
			V181.9z"/>
		<path fill="#FFFFFF" d="M557.2,180.6C557.2,180.6,557.3,180.7,557.2,180.6l0.1,0.9c0,0,0,0.1,0,0.1h-4c0,0,0,0,0-0.1v-0.8
			c0,0,0,0,0,0c0,0,0,0,0,0H557.2z"/>
		<path fill="#FFFFFF" d="M283.1,193.1C283.1,193.1,283.1,193.1,283.1,193.1l1.4,0c0,0,0,0,0.1,0v1.6h1c0,0,0,0,0,0.1v1.1
			c0,0,0,0,0,0.1h-1v5.7c0,0,0,0.1-0.1,0.1h-1.4c0,0-0.1,0-0.1-0.1v-5.7h-1c0,0,0,0,0-0.1v-1.1c0,0,0-0.1,0-0.1h1V193.1z"/>
		<path fill="#FFFFFF" d="M289.7,194.7c0.4,0,0.7,0.1,0.9,0.4c0.2,0.3,0.4,0.6,0.4,0.9v4.3c0,0.4-0.1,0.7-0.4,0.9s-0.6,0.4-0.9,0.4
			h0h-2h0c-0.4,0-0.7-0.1-0.9-0.4c-0.2-0.3-0.4-0.6-0.4-0.9V196c0-0.4,0.1-0.7,0.4-0.9c0.2-0.3,0.5-0.4,0.9-0.4H289.7z M289.5,195.9
			C289.5,195.9,289.5,195.9,289.5,195.9l-1.5,0c0,0-0.1,0-0.1,0v4.5c0,0,0,0,0.1,0.1h1.5c0,0,0,0,0-0.1V195.9z"/>
		<path fill="#FFFFFF" d="M294,196.9c0.4,0.2,0.9,0.4,1.2,0.6c0.3,0.2,0.6,0.3,0.9,0.4s0.4,0.2,0.5,0.2c0.3,0.2,0.4,0.4,0.4,0.7
			l0,1.5c0,0.2,0,0.3-0.1,0.5c-0.1,0.2-0.2,0.3-0.3,0.4c-0.1,0.1-0.3,0.2-0.4,0.3c-0.2,0.1-0.3,0.1-0.5,0.1h-2c-0.2,0-0.3,0-0.5-0.1
			c-0.2-0.1-0.3-0.2-0.4-0.3c-0.1-0.1-0.2-0.3-0.3-0.4c-0.1-0.2-0.1-0.3-0.1-0.5v-1h1.4v1.1c0,0,0,0,0,0h1.6c0,0,0,0,0,0v-1.2
			c0,0,0,0,0-0.1c-0.5-0.3-1-0.5-1.4-0.7c-0.2-0.1-0.3-0.2-0.5-0.3c-0.2-0.1-0.3-0.2-0.4-0.2c-0.1-0.1-0.2-0.1-0.3-0.2
			s-0.1-0.1-0.1-0.1c-0.1,0-0.1-0.1-0.1-0.1s0-0.1,0-0.2v-1.7c0-0.3,0.1-0.6,0.2-0.8c0.2-0.2,0.4-0.3,0.8-0.3h2.3
			c0.3,0,0.6,0.1,0.8,0.3c0.2,0.2,0.3,0.5,0.3,0.8v0.8h-1.4v-0.8c0,0,0,0,0,0H294l0,0c0,0,0,0,0,0v1L294,196.9
			C294,196.9,294,196.9,294,196.9z"/>
		<path fill="#FFFFFF" d="M304.8,194.7c0.4,0,0.7,0.1,0.9,0.4c0.2,0.3,0.4,0.6,0.4,0.9v1c0,0,0,0-0.1,0h-1.3c0,0,0,0,0,0v-1
			c0,0,0-0.1,0-0.1h-1.4c0,0,0,0,0,0.1v4.3c0,0,0,0,0,0h1.4c0,0,0,0,0,0v-1.2c0,0,0-0.1,0.1-0.1h1.3c0,0,0,0,0,0.1v1.2
			c0,0.4-0.1,0.7-0.4,0.9c-0.2,0.3-0.5,0.4-0.9,0.4h0H303h0c-0.4,0-0.7-0.1-0.9-0.4c-0.3-0.3-0.4-0.6-0.4-0.9V196
			c0-0.2,0-0.3,0.1-0.5c0.1-0.2,0.2-0.3,0.3-0.4c0.1-0.1,0.3-0.2,0.4-0.3c0.2-0.1,0.3-0.1,0.5-0.1h0H304.8L304.8,194.7z"/>
		<path fill="#FFFFFF" d="M308.8,201.6L308.8,201.6c-0.2,0-0.3,0-0.5-0.1c-0.2-0.1-0.3-0.2-0.4-0.3c-0.1-0.1-0.2-0.3-0.3-0.4
			s-0.1-0.3-0.1-0.5v-5.5c0,0,0,0,0,0h1.4c0,0,0,0,0,0v5.6c0,0,0,0,0,0h1.7c0,0,0,0,0,0v-5.6c0,0,0,0,0,0h1.4c0,0,0,0,0,0v5.5
			c0,0.2,0,0.4-0.1,0.5s-0.2,0.3-0.3,0.4c-0.1,0.1-0.3,0.2-0.4,0.3c-0.2,0.1-0.3,0.1-0.5,0.1H308.8z"/>
		<path fill="#FFFFFF" d="M320.2,194.7c0.2,0,0.3,0,0.5,0.1c0.2,0.1,0.3,0.2,0.4,0.3c0.1,0.1,0.2,0.3,0.3,0.4
			c0.1,0.2,0.1,0.3,0.1,0.5v2.6c0,0,0,0-0.1,0h-3v1.8c0,0,0,0,0,0h1.6c0,0,0,0,0,0v-0.9c0,0,0-0.1,0.1-0.1h1.3c0,0,0,0,0,0.1v0.7
			c0,0.2,0,0.4-0.1,0.5c-0.1,0.2-0.2,0.3-0.3,0.4c-0.1,0.1-0.2,0.2-0.4,0.3c-0.2,0.1-0.3,0.1-0.5,0.1h-2c-0.4,0-0.7-0.1-0.9-0.4
			c-0.3-0.3-0.4-0.6-0.4-0.9V196c0-0.2,0-0.3,0.1-0.5c0.1-0.2,0.2-0.3,0.3-0.4c0.1-0.1,0.3-0.2,0.4-0.3c0.2-0.1,0.3-0.1,0.5-0.1
			H320.2z M318.4,197.7h1.7v-1.8c0,0,0-0.1,0-0.1h-1.6c0,0,0,0,0,0.1V197.7z"/>
		<path fill="#FFFFFF" d="M326,197.7v-1.8c0,0,0,0,0,0h-1.5c0,0,0,0,0,0v0.8c0,0,0,0.1-0.1,0.1H323c0,0,0,0,0-0.1V196
			c0-0.2,0-0.3,0.1-0.5c0.1-0.2,0.2-0.3,0.3-0.4c0.1-0.1,0.2-0.2,0.4-0.3c0.2-0.1,0.3-0.1,0.5-0.1h1.9c0.2,0,0.3,0,0.5,0.1
			c0.2,0.1,0.3,0.2,0.4,0.3c0.1,0.1,0.2,0.3,0.3,0.4c0.1,0.2,0.1,0.3,0.1,0.5v5.6c0,0,0,0,0,0l0,0h-3.3c-0.2,0-0.3,0-0.5-0.1
			c-0.2-0.1-0.3-0.2-0.4-0.3c-0.1-0.1-0.2-0.3-0.3-0.4c-0.1-0.2-0.1-0.3-0.1-0.5V199c0-0.2,0-0.3,0.1-0.5s0.2-0.3,0.3-0.4
			c0.1-0.1,0.2-0.2,0.4-0.3c0.2-0.1,0.3-0.1,0.5-0.1H326z M326,198.7h-1.7c0,0,0,0,0,0v1.7c0,0,0,0.1,0,0.1h1.7c0,0,0,0,0-0.1V198.7
			z"/>
		<path fill="#FFFFFF" d="M328.9,196.1c0-0.4,0.1-0.7,0.4-0.9c0.2-0.3,0.6-0.4,0.9-0.4h1.1c0.2,0,0.4,0,0.5,0.1
			c0.1,0.1,0.3,0.2,0.3,0.3s0.2,0.2,0.2,0.3c0,0.1,0.1,0.2,0.1,0.3c0-0.1,0-0.2,0-0.3c0-0.1,0.1-0.2,0.1-0.3
			c0.1-0.1,0.2-0.2,0.4-0.3c0.2-0.1,0.4-0.1,0.6-0.1h1.1c0.2,0,0.3,0,0.5,0.1c0.2,0.1,0.3,0.2,0.4,0.3c0.1,0.1,0.2,0.3,0.3,0.4
			c0.1,0.2,0.1,0.3,0.1,0.5v5.5c0,0,0,0-0.1,0h-1.4c0,0-0.1,0-0.1,0v-5.5c0-0.1,0-0.1-0.1-0.1h-0.7c-0.1,0-0.3,0-0.4,0.1
			c-0.1,0.1-0.2,0.2-0.2,0.4v5.1c0,0,0,0-0.1,0h-1.1c0,0-0.1,0-0.1,0v-5.1c0-0.2-0.1-0.3-0.2-0.4c-0.1-0.1-0.3-0.1-0.4-0.1h-0.8
			c-0.1,0-0.1,0-0.1,0.1v5.5c0,0,0,0-0.1,0H329c0,0-0.1,0-0.1,0V196.1z"/>
		<path fill="#FFFFFF" d="M338.8,200.1C338.8,200.1,338.8,200.1,338.8,200.1l0.1,2.7c0,0,0,0.1-0.1,0.1l-0.9-1.2h-0.8
			c0,0-0.1,0-0.1-0.1v-1.4c0,0,0,0,0.1,0H338.8z"/>
		<path fill="#FFFFFF" d="M344.6,191.5C344.6,191.5,344.7,191.5,344.6,191.5l0.1,3.3h1.9c0.2,0,0.3,0,0.5,0.1
			c0.2,0.1,0.3,0.2,0.4,0.3c0.1,0.1,0.2,0.3,0.3,0.4c0.1,0.2,0.1,0.3,0.1,0.5v5.5c0,0,0,0,0,0h-1.4c0,0,0,0,0,0V196c0,0,0,0,0,0
			h-1.7c0,0,0,0,0,0l0,5.6c0,0,0,0,0,0h-1.4c0,0,0,0,0,0l0-10.1c0,0,0,0,0.1,0H344.6z"/>
		<path fill="#FFFFFF" d="M352.5,197.7v-1.8c0,0,0,0,0,0h-1.5c0,0,0,0,0,0v0.8c0,0,0,0.1-0.1,0.1h-1.3c0,0,0,0,0-0.1V196
			c0-0.2,0-0.3,0.1-0.5c0.1-0.2,0.2-0.3,0.3-0.4c0.1-0.1,0.2-0.2,0.4-0.3c0.2-0.1,0.3-0.1,0.5-0.1h1.9c0.2,0,0.3,0,0.5,0.1
			c0.2,0.1,0.3,0.2,0.4,0.3c0.1,0.1,0.2,0.3,0.3,0.4c0.1,0.2,0.1,0.3,0.1,0.5v5.6c0,0,0,0,0,0l0,0h-3.3c-0.2,0-0.3,0-0.5-0.1
			c-0.2-0.1-0.3-0.2-0.4-0.3c-0.1-0.1-0.2-0.3-0.3-0.4c-0.1-0.2-0.1-0.3-0.1-0.5V199c0-0.2,0-0.3,0.1-0.5s0.2-0.3,0.3-0.4
			c0.1-0.1,0.2-0.2,0.4-0.3c0.2-0.1,0.3-0.1,0.5-0.1H352.5z M352.5,198.7h-1.7c0,0,0,0,0,0v1.7c0,0,0,0.1,0,0.1h1.7c0,0,0,0,0-0.1
			V198.7z"/>
		<path fill="#FFFFFF" d="M357,196.9c0.4,0.2,0.9,0.4,1.2,0.6c0.3,0.2,0.6,0.3,0.9,0.4s0.4,0.2,0.5,0.2c0.3,0.2,0.4,0.4,0.4,0.7
			l0,1.5c0,0.2,0,0.3-0.1,0.5c-0.1,0.2-0.2,0.3-0.3,0.4c-0.1,0.1-0.3,0.2-0.4,0.3c-0.2,0.1-0.3,0.1-0.5,0.1h-2c-0.2,0-0.3,0-0.5-0.1
			c-0.2-0.1-0.3-0.2-0.4-0.3c-0.1-0.1-0.2-0.3-0.3-0.4c-0.1-0.2-0.1-0.3-0.1-0.5v-1h1.4v1.1c0,0,0,0,0,0h1.6c0,0,0,0,0,0v-1.2
			c0,0,0,0,0-0.1c-0.5-0.3-1-0.5-1.4-0.7c-0.2-0.1-0.3-0.2-0.5-0.3c-0.2-0.1-0.3-0.2-0.4-0.2c-0.1-0.1-0.2-0.1-0.3-0.2
			s-0.1-0.1-0.1-0.1c-0.1,0-0.1-0.1-0.1-0.1s0-0.1,0-0.2v-1.7c0-0.3,0.1-0.6,0.2-0.8c0.2-0.2,0.4-0.3,0.8-0.3h2.3
			c0.3,0,0.6,0.1,0.8,0.3c0.2,0.2,0.3,0.5,0.3,0.8v0.8h-1.4v-0.8c0,0,0,0,0,0H357l0,0c0,0,0,0,0,0v1L357,196.9
			C357,196.9,357,196.9,357,196.9z"/>
		<path fill="#FFFFFF" d="M368.1,194.7c0.2,0,0.3,0,0.5,0.1c0.2,0.1,0.3,0.2,0.4,0.3c0.1,0.1,0.2,0.3,0.3,0.4
			c0.1,0.2,0.1,0.3,0.1,0.5v5.5c0,0,0,0,0,0H368c0,0,0,0,0,0V196c0,0,0,0,0,0h-1.7c0,0,0,0,0,0v5.6c0,0,0,0,0,0h-1.4c0,0,0,0,0,0
			v-5.5c0-0.2,0-0.4,0.1-0.5c0.1-0.2,0.2-0.3,0.3-0.4c0.1-0.1,0.3-0.2,0.4-0.3c0.2-0.1,0.3-0.1,0.5-0.1h0H368.1z"/>
		<path fill="#FFFFFF" d="M374.1,194.7c0.4,0,0.7,0.1,0.9,0.4c0.2,0.3,0.4,0.6,0.4,0.9v4.3c0,0.4-0.1,0.7-0.4,0.9s-0.6,0.4-0.9,0.4
			h0h-2h0c-0.4,0-0.7-0.1-0.9-0.4c-0.2-0.3-0.4-0.6-0.4-0.9V196c0-0.4,0.1-0.7,0.4-0.9c0.2-0.3,0.5-0.4,0.9-0.4H374.1z M373.9,195.9
			C373.9,195.9,373.9,195.9,373.9,195.9l-1.5,0c0,0-0.1,0-0.1,0v4.5c0,0,0,0,0.1,0.1h1.5c0,0,0,0,0-0.1V195.9z"/>
		<path fill="#FFFFFF" d="M380.2,196.1c0-0.4,0.1-0.7,0.4-0.9c0.2-0.3,0.6-0.4,0.9-0.4h1.1c0.2,0,0.4,0,0.5,0.1
			c0.1,0.1,0.3,0.2,0.3,0.3s0.2,0.2,0.2,0.3c0,0.1,0.1,0.2,0.1,0.3c0-0.1,0-0.2,0-0.3c0-0.1,0.1-0.2,0.1-0.3
			c0.1-0.1,0.2-0.2,0.4-0.3c0.2-0.1,0.4-0.1,0.6-0.1h1.1c0.2,0,0.3,0,0.5,0.1c0.2,0.1,0.3,0.2,0.4,0.3c0.1,0.1,0.2,0.3,0.3,0.4
			c0.1,0.2,0.1,0.3,0.1,0.5v5.5c0,0,0,0-0.1,0h-1.4c0,0-0.1,0-0.1,0v-5.5c0-0.1,0-0.1-0.1-0.1H385c-0.1,0-0.3,0-0.4,0.1
			c-0.1,0.1-0.2,0.2-0.2,0.4v5.1c0,0,0,0-0.1,0h-1.1c0,0-0.1,0-0.1,0v-5.1c0-0.2-0.1-0.3-0.2-0.4c-0.1-0.1-0.3-0.1-0.4-0.1h-0.8
			c-0.1,0-0.1,0-0.1,0.1v5.5c0,0,0,0-0.1,0h-1.4c0,0-0.1,0-0.1,0V196.1z"/>
		<path fill="#FFFFFF" d="M392,194.7c0.4,0,0.7,0.1,0.9,0.4c0.2,0.3,0.4,0.6,0.4,0.9v4.3c0,0.4-0.1,0.7-0.4,0.9s-0.6,0.4-0.9,0.4h0
			h-2h0c-0.4,0-0.7-0.1-0.9-0.4c-0.2-0.3-0.4-0.6-0.4-0.9V196c0-0.4,0.1-0.7,0.4-0.9c0.2-0.3,0.5-0.4,0.9-0.4H392z M391.8,195.9
			C391.8,195.9,391.8,195.9,391.8,195.9l-1.5,0c0,0-0.1,0-0.1,0v4.5c0,0,0,0,0.1,0.1h1.5c0,0,0,0,0-0.1V195.9z"/>
		<path fill="#FFFFFF" d="M394.7,194.8C394.7,194.7,394.7,194.7,394.7,194.8l1.4,0c0,0,0,0,0,0.1v4.5c0,0.1,0,0.1,0.1,0.2
			c0.1,0.1,0.2,0.2,0.2,0.3c0.1,0.1,0.2,0.2,0.3,0.3c0.1,0.1,0.1,0.1,0.2,0.1c0.1,0,0.1,0,0.2-0.1c0.1-0.1,0.2-0.2,0.3-0.3
			s0.2-0.2,0.2-0.3c0.1-0.1,0.1-0.2,0.1-0.2v-4.5c0,0,0,0,0,0h1.4c0,0,0,0,0,0.1v4.7c0,0,0,0,0,0.1s0,0.1,0,0.1
			c0,0.1-0.1,0.3-0.3,0.5s-0.3,0.4-0.5,0.7c-0.2,0.2-0.4,0.4-0.7,0.6c-0.2,0.2-0.5,0.3-0.7,0.3s-0.4-0.1-0.7-0.3
			c-0.2-0.2-0.5-0.4-0.7-0.6c-0.2-0.2-0.4-0.4-0.6-0.7c-0.2-0.2-0.3-0.4-0.3-0.5c0,0,0,0,0-0.1c0,0,0-0.1,0-0.1V194.8z"/>
		<path fill="#FFFFFF" d="M404,194.7c0.2,0,0.3,0,0.5,0.1c0.2,0.1,0.3,0.2,0.4,0.3c0.1,0.1,0.2,0.3,0.3,0.4c0.1,0.2,0.1,0.3,0.1,0.5
			v2.6c0,0,0,0-0.1,0h-3v1.8c0,0,0,0,0,0h1.6c0,0,0,0,0,0v-0.9c0,0,0-0.1,0.1-0.1h1.3c0,0,0,0,0,0.1v0.7c0,0.2,0,0.4-0.1,0.5
			c-0.1,0.2-0.2,0.3-0.3,0.4c-0.1,0.1-0.2,0.2-0.4,0.3c-0.2,0.1-0.3,0.1-0.5,0.1h-2c-0.4,0-0.7-0.1-0.9-0.4
			c-0.3-0.3-0.4-0.6-0.4-0.9V196c0-0.2,0-0.3,0.1-0.5c0.1-0.2,0.2-0.3,0.3-0.4c0.1-0.1,0.3-0.2,0.4-0.3c0.2-0.1,0.3-0.1,0.5-0.1H404
			z M402.1,197.7h1.7v-1.8c0,0,0-0.1,0-0.1h-1.6c0,0,0,0,0,0.1V197.7z"/>
		<path fill="#FFFFFF" d="M407.2,193.1C407.2,193.1,407.2,193.1,407.2,193.1l1.4,0c0,0,0,0,0.1,0v1.6h1c0,0,0,0,0,0.1v1.1
			c0,0,0,0,0,0.1h-1v5.7c0,0,0,0.1-0.1,0.1h-1.4c0,0-0.1,0-0.1-0.1v-5.7h-1c0,0,0,0,0-0.1v-1.1c0,0,0-0.1,0-0.1h1V193.1z"/>
		<path fill="#FFFFFF" d="M415.6,196.9c0.4,0.2,0.9,0.4,1.2,0.6c0.3,0.2,0.6,0.3,0.9,0.4s0.4,0.2,0.5,0.2c0.3,0.2,0.4,0.4,0.4,0.7
			l0,1.5c0,0.2,0,0.3-0.1,0.5c-0.1,0.2-0.2,0.3-0.3,0.4c-0.1,0.1-0.3,0.2-0.4,0.3c-0.2,0.1-0.3,0.1-0.5,0.1h-2c-0.2,0-0.3,0-0.5-0.1
			c-0.2-0.1-0.3-0.2-0.4-0.3c-0.1-0.1-0.2-0.3-0.3-0.4c-0.1-0.2-0.1-0.3-0.1-0.5v-1h1.4v1.1c0,0,0,0,0,0h1.6c0,0,0,0,0,0v-1.2
			c0,0,0,0,0-0.1c-0.5-0.3-1-0.5-1.4-0.7c-0.2-0.1-0.3-0.2-0.5-0.3c-0.2-0.1-0.3-0.2-0.4-0.2c-0.1-0.1-0.2-0.1-0.3-0.2
			s-0.1-0.1-0.1-0.1c-0.1,0-0.1-0.1-0.1-0.1s0-0.1,0-0.2v-1.7c0-0.3,0.1-0.6,0.2-0.8c0.2-0.2,0.4-0.3,0.8-0.3h2.3
			c0.3,0,0.6,0.1,0.8,0.3c0.2,0.2,0.3,0.5,0.3,0.8v0.8h-1.4v-0.8c0,0,0,0,0,0h-1.5l0,0c0,0,0,0,0,0v1L415.6,196.9
			C415.6,196.9,415.6,196.9,415.6,196.9z"/>
		<path fill="#FFFFFF" d="M423.3,194.7c0.2,0,0.3,0,0.5,0.1c0.2,0.1,0.3,0.2,0.4,0.3c0.1,0.1,0.2,0.3,0.3,0.4
			c0.1,0.2,0.1,0.3,0.1,0.5v2.6c0,0,0,0-0.1,0h-3v1.8c0,0,0,0,0,0h1.6c0,0,0,0,0,0v-0.9c0,0,0-0.1,0.1-0.1h1.3c0,0,0,0,0,0.1v0.7
			c0,0.2,0,0.4-0.1,0.5c-0.1,0.2-0.2,0.3-0.3,0.4c-0.1,0.1-0.2,0.2-0.4,0.3c-0.2,0.1-0.3,0.1-0.5,0.1h-2c-0.4,0-0.7-0.1-0.9-0.4
			c-0.3-0.3-0.4-0.6-0.4-0.9V196c0-0.2,0-0.3,0.1-0.5c0.1-0.2,0.2-0.3,0.3-0.4c0.1-0.1,0.3-0.2,0.4-0.3c0.2-0.1,0.3-0.1,0.5-0.1
			H423.3z M421.5,197.7h1.7v-1.8c0,0,0-0.1,0-0.1h-1.6c0,0,0,0,0,0.1V197.7z"/>
		<path fill="#FFFFFF" d="M429.4,194.7c0.2,0,0.3,0,0.5,0.1c0.2,0.1,0.3,0.2,0.4,0.3c0.1,0.1,0.2,0.3,0.3,0.4
			c0.1,0.2,0.1,0.3,0.1,0.5v5.5c0,0,0,0,0,0h-1.4c0,0,0,0,0,0V196c0,0,0,0,0,0h-1.7c0,0,0,0,0,0v5.6c0,0,0,0,0,0H426c0,0,0,0,0,0
			v-5.5c0-0.2,0-0.4,0.1-0.5c0.1-0.2,0.2-0.3,0.3-0.4c0.1-0.1,0.3-0.2,0.4-0.3c0.2-0.1,0.3-0.1,0.5-0.1h0H429.4z"/>
		<path fill="#FFFFFF" d="M433.8,196.9c0.4,0.2,0.9,0.4,1.2,0.6c0.3,0.2,0.6,0.3,0.9,0.4s0.4,0.2,0.5,0.2c0.3,0.2,0.4,0.4,0.4,0.7
			l0,1.5c0,0.2,0,0.3-0.1,0.5c-0.1,0.2-0.2,0.3-0.3,0.4c-0.1,0.1-0.3,0.2-0.4,0.3c-0.2,0.1-0.3,0.1-0.5,0.1h-2c-0.2,0-0.3,0-0.5-0.1
			c-0.2-0.1-0.3-0.2-0.4-0.3c-0.1-0.1-0.2-0.3-0.3-0.4c-0.1-0.2-0.1-0.3-0.1-0.5v-1h1.4v1.1c0,0,0,0,0,0h1.6c0,0,0,0,0,0v-1.2
			c0,0,0,0,0-0.1c-0.5-0.3-1-0.5-1.4-0.7c-0.2-0.1-0.3-0.2-0.5-0.3c-0.2-0.1-0.3-0.2-0.4-0.2c-0.1-0.1-0.2-0.1-0.3-0.2
			s-0.1-0.1-0.1-0.1c-0.1,0-0.1-0.1-0.1-0.1s0-0.1,0-0.2v-1.7c0-0.3,0.1-0.6,0.2-0.8c0.2-0.2,0.4-0.3,0.8-0.3h2.3
			c0.3,0,0.6,0.1,0.8,0.3c0.2,0.2,0.3,0.5,0.3,0.8v0.8h-1.4v-0.8c0,0,0,0,0,0h-1.5l0,0c0,0,0,0,0,0v1L433.8,196.9
			C433.7,196.9,433.7,196.9,433.8,196.9z"/>
		<path fill="#FFFFFF" d="M441.5,194.7c0.2,0,0.3,0,0.5,0.1c0.2,0.1,0.3,0.2,0.4,0.3c0.1,0.1,0.2,0.3,0.3,0.4
			c0.1,0.2,0.1,0.3,0.1,0.5v2.6c0,0,0,0-0.1,0h-3v1.8c0,0,0,0,0,0h1.6c0,0,0,0,0,0v-0.9c0,0,0-0.1,0.1-0.1h1.3c0,0,0,0,0,0.1v0.7
			c0,0.2,0,0.4-0.1,0.5c-0.1,0.2-0.2,0.3-0.3,0.4c-0.1,0.1-0.2,0.2-0.4,0.3c-0.2,0.1-0.3,0.1-0.5,0.1h-2c-0.4,0-0.7-0.1-0.9-0.4
			c-0.3-0.3-0.4-0.6-0.4-0.9V196c0-0.2,0-0.3,0.1-0.5c0.1-0.2,0.2-0.3,0.3-0.4c0.1-0.1,0.3-0.2,0.4-0.3c0.2-0.1,0.3-0.1,0.5-0.1
			H441.5z M439.6,197.7h1.7v-1.8c0,0,0-0.1,0-0.1h-1.6c0,0,0,0,0,0.1V197.7z"/>
		<path fill="#FFFFFF" d="M445.5,194.7h2c0,0,0,0,0,0v1.1c0,0,0,0,0,0h-1.8c0,0,0,0,0,0v5.6c0,0,0,0,0,0h-1.4c0,0,0,0,0,0v-5.5
			c0-0.2,0-0.4,0.1-0.5c0.1-0.2,0.2-0.3,0.3-0.4c0.1-0.1,0.3-0.2,0.4-0.3C445.1,194.8,445.3,194.7,445.5,194.7z"/>
		<path fill="#FFFFFF" d="M450.1,191.8C450.1,191.8,450.1,191.8,450.1,191.8l0.1,1.4c0,0,0,0.1-0.1,0.1h-1.4c0,0-0.1,0-0.1-0.1v-1.4
			c0,0,0,0,0.1,0H450.1z M450.1,194.7C450.1,194.7,450.1,194.7,450.1,194.7l0.1,6.9c0,0,0,0.1-0.1,0.1h-1.4c0,0-0.1,0-0.1-0.1v-6.8
			c0,0,0,0,0.1,0H450.1z"/>
		<path fill="#FFFFFF" d="M452.2,193.1C452.2,193.1,452.3,193.1,452.2,193.1l1.4,0c0,0,0,0,0.1,0v1.6h1c0,0,0,0,0,0.1v1.1
			c0,0,0,0,0,0.1h-1v5.7c0,0,0,0.1-0.1,0.1h-1.4c0,0-0.1,0-0.1-0.1v-5.7h-1c0,0,0,0,0-0.1v-1.1c0,0,0-0.1,0-0.1h1V193.1z"/>
		<path fill="#FFFFFF" d="M462.1,194.7c0.4,0,0.7,0.1,0.9,0.4c0.2,0.3,0.4,0.6,0.4,0.9v1c0,0,0,0-0.1,0H462c0,0,0,0,0,0v-1
			c0,0,0-0.1,0-0.1h-1.4c0,0,0,0,0,0.1v4.3c0,0,0,0,0,0h1.4c0,0,0,0,0,0v-1.2c0,0,0-0.1,0.1-0.1h1.3c0,0,0,0,0,0.1v1.2
			c0,0.4-0.1,0.7-0.4,0.9c-0.2,0.3-0.5,0.4-0.9,0.4h0h-1.8h0c-0.4,0-0.7-0.1-0.9-0.4c-0.3-0.3-0.4-0.6-0.4-0.9V196
			c0-0.2,0-0.3,0.1-0.5c0.1-0.2,0.2-0.3,0.3-0.4c0.1-0.1,0.3-0.2,0.4-0.3c0.2-0.1,0.3-0.1,0.5-0.1h0H462.1L462.1,194.7z"/>
		<path fill="#FFFFFF" d="M468,194.7c0.4,0,0.7,0.1,0.9,0.4c0.2,0.3,0.4,0.6,0.4,0.9v4.3c0,0.4-0.1,0.7-0.4,0.9s-0.6,0.4-0.9,0.4h0
			h-2h0c-0.4,0-0.7-0.1-0.9-0.4c-0.2-0.3-0.4-0.6-0.4-0.9V196c0-0.4,0.1-0.7,0.4-0.9c0.2-0.3,0.5-0.4,0.9-0.4H468z M467.8,195.9
			C467.8,195.9,467.8,195.9,467.8,195.9l-1.5,0c0,0-0.1,0-0.1,0v4.5c0,0,0,0,0.1,0.1h1.5c0,0,0,0,0-0.1V195.9z"/>
		<path fill="#FFFFFF" d="M474.2,194.7c0.2,0,0.3,0,0.5,0.1c0.2,0.1,0.3,0.2,0.4,0.3c0.1,0.1,0.2,0.3,0.3,0.4
			c0.1,0.2,0.1,0.3,0.1,0.5v5.5c0,0,0,0,0,0H474c0,0,0,0,0,0V196c0,0,0,0,0,0h-1.7c0,0,0,0,0,0v5.6c0,0,0,0,0,0h-1.4c0,0,0,0,0,0
			v-5.5c0-0.2,0-0.4,0.1-0.5c0.1-0.2,0.2-0.3,0.3-0.4c0.1-0.1,0.3-0.2,0.4-0.3c0.2-0.1,0.3-0.1,0.5-0.1h0H474.2z"/>
		<path fill="#FFFFFF" d="M476.9,194.8C476.9,194.7,476.9,194.7,476.9,194.8l1.4,0c0,0,0,0,0,0.1v4.5c0,0.1,0,0.1,0.1,0.2
			c0.1,0.1,0.2,0.2,0.2,0.3c0.1,0.1,0.2,0.2,0.3,0.3c0.1,0.1,0.1,0.1,0.2,0.1c0.1,0,0.1,0,0.2-0.1c0.1-0.1,0.2-0.2,0.3-0.3
			s0.2-0.2,0.2-0.3c0.1-0.1,0.1-0.2,0.1-0.2v-4.5c0,0,0,0,0,0h1.4c0,0,0,0,0,0.1v4.7c0,0,0,0,0,0.1s0,0.1,0,0.1
			c0,0.1-0.1,0.3-0.3,0.5s-0.3,0.4-0.5,0.7c-0.2,0.2-0.4,0.4-0.7,0.6c-0.2,0.2-0.5,0.3-0.7,0.3s-0.4-0.1-0.7-0.3
			c-0.2-0.2-0.5-0.4-0.7-0.6c-0.2-0.2-0.4-0.4-0.6-0.7c-0.2-0.2-0.3-0.4-0.3-0.5c0,0,0,0,0-0.1c0,0,0-0.1,0-0.1V194.8z"/>
		<path fill="#FFFFFF" d="M486.2,194.7c0.2,0,0.3,0,0.5,0.1c0.2,0.1,0.3,0.2,0.4,0.3c0.1,0.1,0.2,0.3,0.3,0.4
			c0.1,0.2,0.1,0.3,0.1,0.5v2.6c0,0,0,0-0.1,0h-3v1.8c0,0,0,0,0,0h1.6c0,0,0,0,0,0v-0.9c0,0,0-0.1,0.1-0.1h1.3c0,0,0,0,0,0.1v0.7
			c0,0.2,0,0.4-0.1,0.5c-0.1,0.2-0.2,0.3-0.3,0.4c-0.1,0.1-0.2,0.2-0.4,0.3c-0.2,0.1-0.3,0.1-0.5,0.1h-2c-0.4,0-0.7-0.1-0.9-0.4
			c-0.3-0.3-0.4-0.6-0.4-0.9V196c0-0.2,0-0.3,0.1-0.5c0.1-0.2,0.2-0.3,0.3-0.4c0.1-0.1,0.3-0.2,0.4-0.3c0.2-0.1,0.3-0.1,0.5-0.1
			H486.2z M484.3,197.7h1.7v-1.8c0,0,0-0.1,0-0.1h-1.6c0,0,0,0,0,0.1V197.7z"/>
		<path fill="#FFFFFF" d="M492.2,194.7c0.2,0,0.3,0,0.5,0.1c0.2,0.1,0.3,0.2,0.4,0.3c0.1,0.1,0.2,0.3,0.3,0.4
			c0.1,0.2,0.1,0.3,0.1,0.5v5.5c0,0,0,0,0,0h-1.4c0,0,0,0,0,0V196c0,0,0,0,0,0h-1.7c0,0,0,0,0,0v5.6c0,0,0,0,0,0h-1.4c0,0,0,0,0,0
			v-5.5c0-0.2,0-0.4,0.1-0.5c0.1-0.2,0.2-0.3,0.3-0.4c0.1-0.1,0.3-0.2,0.4-0.3c0.2-0.1,0.3-0.1,0.5-0.1h0H492.2z"/>
		<path fill="#FFFFFF" d="M496.5,191.8C496.5,191.8,496.6,191.8,496.5,191.8l0.1,1.4c0,0,0,0.1-0.1,0.1h-1.4c0,0-0.1,0-0.1-0.1v-1.4
			c0,0,0,0,0.1,0H496.5z M496.5,194.7C496.5,194.7,496.6,194.7,496.5,194.7l0.1,6.9c0,0,0,0.1-0.1,0.1h-1.4c0,0-0.1,0-0.1-0.1v-6.8
			c0,0,0,0,0.1,0H496.5z"/>
		<path fill="#FFFFFF" d="M499.4,194.7h2c0,0,0,0,0,0v1.1c0,0,0,0,0,0h-1.8c0,0,0,0,0,0v5.6c0,0,0,0,0,0h-1.4c0,0,0,0,0,0v-5.5
			c0-0.2,0-0.4,0.1-0.5c0.1-0.2,0.2-0.3,0.3-0.4c0.1-0.1,0.3-0.2,0.4-0.3C499.1,194.8,499.2,194.7,499.4,194.7z"/>
		<path fill="#FFFFFF" d="M505.8,194.7c0.2,0,0.3,0,0.5,0.1c0.2,0.1,0.3,0.2,0.4,0.3c0.1,0.1,0.2,0.3,0.3,0.4
			c0.1,0.2,0.1,0.3,0.1,0.5v2.6c0,0,0,0-0.1,0h-3v1.8c0,0,0,0,0,0h1.6c0,0,0,0,0,0v-0.9c0,0,0-0.1,0.1-0.1h1.3c0,0,0,0,0,0.1v0.7
			c0,0.2,0,0.4-0.1,0.5c-0.1,0.2-0.2,0.3-0.3,0.4c-0.1,0.1-0.2,0.2-0.4,0.3c-0.2,0.1-0.3,0.1-0.5,0.1h-2c-0.4,0-0.7-0.1-0.9-0.4
			c-0.3-0.3-0.4-0.6-0.4-0.9V196c0-0.2,0-0.3,0.1-0.5c0.1-0.2,0.2-0.3,0.3-0.4c0.1-0.1,0.3-0.2,0.4-0.3c0.2-0.1,0.3-0.1,0.5-0.1
			H505.8z M504,197.7h1.7v-1.8c0,0,0-0.1,0-0.1H504c0,0,0,0,0,0.1V197.7z"/>
		<path fill="#FFFFFF" d="M509.7,200.2C509.7,200.2,509.7,200.2,509.7,200.2l0.1,1.4c0,0,0,0.1-0.1,0.1h-1.6c0,0-0.1,0-0.1-0.1v-1.3
			c0,0,0,0,0.1,0H509.7z"/>
		<path fill="#FFFFFF" d="M517.3,191.8c0.4,0,0.7,0.1,0.9,0.4s0.4,0.6,0.4,0.9v2c0,0,0,0-0.1,0h-1.4c0,0,0,0,0,0v-2c0,0,0-0.1,0-0.1
			h-1.3c0,0,0,0,0,0.1v7.2c0,0,0,0,0,0h1.3c0,0,0,0,0,0v-2.6c0,0,0-0.1,0.1-0.1h1.4c0,0,0,0,0,0.1v2.5c0,0.4-0.1,0.7-0.4,0.9
			s-0.5,0.4-0.9,0.4h0h-1.8h0c-0.2,0-0.4,0-0.5-0.1c-0.2-0.1-0.3-0.2-0.4-0.3c-0.1-0.1-0.2-0.3-0.3-0.4c-0.1-0.2-0.1-0.3-0.1-0.5
			v-7.2c0-0.2,0-0.3,0.1-0.5c0.1-0.2,0.2-0.3,0.3-0.4c0.1-0.1,0.3-0.2,0.4-0.3c0.2-0.1,0.3-0.1,0.5-0.1h0H517.3L517.3,191.8z"/>
		<path fill="#FFFFFF" d="M521.4,201.6L521.4,201.6c-0.2,0-0.3,0-0.5-0.1c-0.2-0.1-0.3-0.2-0.4-0.3c-0.1-0.1-0.2-0.3-0.3-0.4
			s-0.1-0.3-0.1-0.5v-5.5c0,0,0,0,0,0h1.4c0,0,0,0,0,0v5.6c0,0,0,0,0,0h1.7c0,0,0,0,0,0v-5.6c0,0,0,0,0,0h1.4c0,0,0,0,0,0v5.5
			c0,0.2,0,0.4-0.1,0.5s-0.2,0.3-0.3,0.4c-0.1,0.1-0.3,0.2-0.4,0.3c-0.2,0.1-0.3,0.1-0.5,0.1H521.4z"/>
		<path fill="#FFFFFF" d="M532.7,197.7v-1.8c0,0,0,0,0,0h-1.5c0,0,0,0,0,0v0.8c0,0,0,0.1-0.1,0.1h-1.3c0,0,0,0,0-0.1V196
			c0-0.2,0-0.3,0.1-0.5c0.1-0.2,0.2-0.3,0.3-0.4c0.1-0.1,0.2-0.2,0.4-0.3c0.2-0.1,0.3-0.1,0.5-0.1h1.9c0.2,0,0.3,0,0.5,0.1
			c0.2,0.1,0.3,0.2,0.4,0.3c0.1,0.1,0.2,0.3,0.3,0.4c0.1,0.2,0.1,0.3,0.1,0.5v5.6c0,0,0,0,0,0l0,0h-3.3c-0.2,0-0.3,0-0.5-0.1
			c-0.2-0.1-0.3-0.2-0.4-0.3c-0.1-0.1-0.2-0.3-0.3-0.4c-0.1-0.2-0.1-0.3-0.1-0.5V199c0-0.2,0-0.3,0.1-0.5s0.2-0.3,0.3-0.4
			c0.1-0.1,0.2-0.2,0.4-0.3c0.2-0.1,0.3-0.1,0.5-0.1H532.7z M532.7,198.7H531c0,0,0,0,0,0v1.7c0,0,0,0.1,0,0.1h1.7c0,0,0,0,0-0.1
			V198.7z"/>
		<path fill="#FFFFFF" d="M538.9,194.7c0.2,0,0.3,0,0.5,0.1c0.2,0.1,0.3,0.2,0.4,0.3c0.1,0.1,0.2,0.3,0.3,0.4
			c0.1,0.2,0.1,0.3,0.1,0.5v2.6c0,0,0,0-0.1,0h-3v1.8c0,0,0,0,0,0h1.6c0,0,0,0,0,0v-0.9c0,0,0-0.1,0.1-0.1h1.3c0,0,0,0,0,0.1v0.7
			c0,0.2,0,0.4-0.1,0.5c-0.1,0.2-0.2,0.3-0.3,0.4c-0.1,0.1-0.2,0.2-0.4,0.3c-0.2,0.1-0.3,0.1-0.5,0.1h-2c-0.4,0-0.7-0.1-0.9-0.4
			c-0.3-0.3-0.4-0.6-0.4-0.9V196c0-0.2,0-0.3,0.1-0.5c0.1-0.2,0.2-0.3,0.3-0.4c0.1-0.1,0.3-0.2,0.4-0.3c0.2-0.1,0.3-0.1,0.5-0.1
			H538.9z M537.1,197.7h1.7v-1.8c0,0,0-0.1,0-0.1h-1.6c0,0,0,0,0,0.1V197.7z"/>
		<path fill="#FFFFFF" d="M542.2,193.1C542.2,193.1,542.2,193.1,542.2,193.1l1.4,0c0,0,0,0,0.1,0v1.6h1c0,0,0,0,0,0.1v1.1
			c0,0,0,0,0,0.1h-1v5.7c0,0,0,0.1-0.1,0.1h-1.4c0,0-0.1,0-0.1-0.1v-5.7h-1c0,0,0,0,0-0.1v-1.1c0,0,0-0.1,0-0.1h1V193.1z"/>
		<path fill="#FFFFFF" d="M549,194.7c0.2,0,0.3,0,0.5,0.1c0.2,0.1,0.3,0.2,0.4,0.3c0.1,0.1,0.2,0.3,0.3,0.4c0.1,0.2,0.1,0.3,0.1,0.5
			v2.6c0,0,0,0-0.1,0h-3v1.8c0,0,0,0,0,0h1.6c0,0,0,0,0,0v-0.9c0,0,0-0.1,0.1-0.1h1.3c0,0,0,0,0,0.1v0.7c0,0.2,0,0.4-0.1,0.5
			c-0.1,0.2-0.2,0.3-0.3,0.4c-0.1,0.1-0.2,0.2-0.4,0.3c-0.2,0.1-0.3,0.1-0.5,0.1h-2c-0.4,0-0.7-0.1-0.9-0.4
			c-0.3-0.3-0.4-0.6-0.4-0.9V196c0-0.2,0-0.3,0.1-0.5c0.1-0.2,0.2-0.3,0.3-0.4c0.1-0.1,0.3-0.2,0.4-0.3c0.2-0.1,0.3-0.1,0.5-0.1H549
			z M547.1,197.7h1.7v-1.8c0,0,0-0.1,0-0.1h-1.6c0,0,0,0,0,0.1V197.7z"/>
		<path fill="#FFFFFF" d="M553,194.7h2c0,0,0,0,0,0v1.1c0,0,0,0,0,0h-1.8c0,0,0,0,0,0v5.6c0,0,0,0,0,0h-1.4c0,0,0,0,0,0v-5.5
			c0-0.2,0-0.4,0.1-0.5c0.1-0.2,0.2-0.3,0.3-0.4c0.1-0.1,0.3-0.2,0.4-0.3C552.6,194.8,552.8,194.7,553,194.7z"/>
		<path fill="#FFFFFF" d="M559.8,197.4C559.9,197.4,559.9,197.5,559.8,197.4l0.1,0.9c0,0,0,0.1,0,0.1h-4c0,0,0,0,0-0.1v-0.8
			c0,0,0,0,0,0c0,0,0,0,0,0H559.8z"/>
		<path fill="#FFFFFF" d="M288.6,211.5c0.2,0,0.3,0,0.5,0.1c0.2,0.1,0.3,0.2,0.4,0.3c0.1,0.1,0.2,0.3,0.3,0.4
			c0.1,0.2,0.1,0.3,0.1,0.5v5.5c0,0,0,0,0,0h-1.4c0,0,0,0,0,0v-5.6c0,0,0,0,0,0h-1.7c0,0,0,0,0,0v5.6c0,0,0,0,0,0h-1.4c0,0,0,0,0,0
			v-5.5c0-0.2,0-0.4,0.1-0.5c0.1-0.2,0.2-0.3,0.3-0.4c0.1-0.1,0.3-0.2,0.4-0.3c0.2-0.1,0.3-0.1,0.5-0.1h0H288.6z"/>
		<path fill="#FFFFFF" d="M294.6,211.5c0.4,0,0.7,0.1,0.9,0.4c0.2,0.3,0.4,0.6,0.4,0.9v4.3c0,0.4-0.1,0.7-0.4,0.9s-0.6,0.4-0.9,0.4
			h0h-2h0c-0.4,0-0.7-0.1-0.9-0.4c-0.2-0.3-0.4-0.6-0.4-0.9v-4.3c0-0.4,0.1-0.7,0.4-0.9c0.2-0.3,0.5-0.4,0.9-0.4H294.6z
			 M294.5,212.7C294.5,212.7,294.4,212.7,294.5,212.7l-1.5,0c0,0-0.1,0-0.1,0v4.5c0,0,0,0,0.1,0.1h1.5c0,0,0,0,0-0.1V212.7z"/>
		<path fill="#FFFFFF" d="M304.1,211.5c0.4,0,0.7,0.1,0.9,0.4c0.2,0.3,0.4,0.6,0.4,0.9v4.3c0,0.4-0.1,0.7-0.4,0.9s-0.6,0.4-0.9,0.4
			h-1.9v2.7c0,0,0,0-0.1,0h-1.4c0,0-0.1,0-0.1,0c0-1.4,0-2.6,0-3.6s0-1.9,0-2.6s0-1.3,0-1.7c0-0.4,0-0.8,0-1c0-0.2,0-0.4,0-0.5
			s0-0.2,0-0.2c0,0,0,0,0,0H304.1z M303.9,212.8C303.9,212.8,303.9,212.8,303.9,212.8l-1.7-0.1c0,0-0.1,0-0.1,0v4.4c0,0,0,0,0.1,0
			h1.6c0,0,0,0,0,0V212.8z"/>
		<path fill="#FFFFFF" d="M310.2,211.5c0.2,0,0.3,0,0.5,0.1c0.2,0.1,0.3,0.2,0.4,0.3c0.1,0.1,0.2,0.3,0.3,0.4
			c0.1,0.2,0.1,0.3,0.1,0.5v2.6c0,0,0,0-0.1,0h-3v1.8c0,0,0,0,0,0h1.6c0,0,0,0,0,0v-0.9c0,0,0-0.1,0.1-0.1h1.3c0,0,0,0,0,0.1v0.7
			c0,0.2,0,0.4-0.1,0.5c-0.1,0.2-0.2,0.3-0.3,0.4c-0.1,0.1-0.2,0.2-0.4,0.3c-0.2,0.1-0.3,0.1-0.5,0.1h-2c-0.4,0-0.7-0.1-0.9-0.4
			c-0.3-0.3-0.4-0.6-0.4-0.9v-4.3c0-0.2,0-0.3,0.1-0.5c0.1-0.2,0.2-0.3,0.3-0.4c0.1-0.1,0.3-0.2,0.4-0.3c0.2-0.1,0.3-0.1,0.5-0.1
			H310.2z M308.3,214.5h1.7v-1.8c0,0,0-0.1,0-0.1h-1.6c0,0,0,0,0,0.1V214.5z"/>
		<path fill="#FFFFFF" d="M314.2,211.5h2c0,0,0,0,0,0v1.1c0,0,0,0,0,0h-1.8c0,0,0,0,0,0v5.6c0,0,0,0,0,0h-1.4c0,0,0,0,0,0v-5.5
			c0-0.2,0-0.4,0.1-0.5c0.1-0.2,0.2-0.3,0.3-0.4c0.1-0.1,0.3-0.2,0.4-0.3C313.8,211.6,314,211.5,314.2,211.5z"/>
		<path fill="#FFFFFF" d="M318.8,213.7c0.4,0.2,0.9,0.4,1.2,0.6c0.3,0.2,0.6,0.3,0.9,0.4s0.4,0.2,0.5,0.2c0.3,0.2,0.4,0.4,0.4,0.7
			l0,1.5c0,0.2,0,0.3-0.1,0.5c-0.1,0.2-0.2,0.3-0.3,0.4c-0.1,0.1-0.3,0.2-0.4,0.3c-0.2,0.1-0.3,0.1-0.5,0.1h-2c-0.2,0-0.3,0-0.5-0.1
			c-0.2-0.1-0.3-0.2-0.4-0.3c-0.1-0.1-0.2-0.3-0.3-0.4c-0.1-0.2-0.1-0.3-0.1-0.5v-1h1.4v1.1c0,0,0,0,0,0h1.6c0,0,0,0,0,0v-1.2
			c0,0,0,0,0-0.1c-0.5-0.3-1-0.5-1.4-0.7c-0.2-0.1-0.3-0.2-0.5-0.3c-0.2-0.1-0.3-0.2-0.4-0.2c-0.1-0.1-0.2-0.1-0.3-0.2
			s-0.1-0.1-0.1-0.1c-0.1,0-0.1-0.1-0.1-0.1s0-0.1,0-0.2v-1.7c0-0.3,0.1-0.6,0.2-0.8c0.2-0.2,0.4-0.3,0.8-0.3h2.3
			c0.3,0,0.6,0.1,0.8,0.3c0.2,0.2,0.3,0.5,0.3,0.8v0.8h-1.4v-0.8c0,0,0,0,0,0h-1.5l0,0c0,0,0,0,0,0v1L318.8,213.7
			C318.8,213.7,318.8,213.7,318.8,213.7z"/>
		<path fill="#FFFFFF" d="M324.8,208.6C324.8,208.6,324.8,208.6,324.8,208.6l0.1,1.4c0,0,0,0.1-0.1,0.1h-1.4c0,0-0.1,0-0.1-0.1v-1.4
			c0,0,0,0,0.1,0H324.8z M324.8,211.5C324.8,211.5,324.8,211.5,324.8,211.5l0.1,6.9c0,0,0,0.1-0.1,0.1h-1.4c0,0-0.1,0-0.1-0.1v-6.8
			c0,0,0,0,0.1,0H324.8z"/>
		<path fill="#FFFFFF" d="M327.6,218.4L327.6,218.4c-0.2,0-0.3,0-0.5-0.1c-0.2-0.1-0.3-0.2-0.4-0.3c-0.1-0.1-0.2-0.3-0.3-0.4
			s-0.1-0.3-0.1-0.5v-5.5c0,0,0,0,0,0h1.4c0,0,0,0,0,0v5.6c0,0,0,0,0,0h1.7c0,0,0,0,0,0v-5.6c0,0,0,0,0,0h1.4c0,0,0,0,0,0v5.5
			c0,0.2,0,0.4-0.1,0.5s-0.2,0.3-0.3,0.4c-0.1,0.1-0.3,0.2-0.4,0.3c-0.2,0.1-0.3,0.1-0.5,0.1H327.6z"/>
		<path fill="#FFFFFF" d="M334.1,213.7c0.4,0.2,0.9,0.4,1.2,0.6c0.3,0.2,0.6,0.3,0.9,0.4s0.4,0.2,0.5,0.2c0.3,0.2,0.4,0.4,0.4,0.7
			l0,1.5c0,0.2,0,0.3-0.1,0.5c-0.1,0.2-0.2,0.3-0.3,0.4c-0.1,0.1-0.3,0.2-0.4,0.3c-0.2,0.1-0.3,0.1-0.5,0.1h-2c-0.2,0-0.3,0-0.5-0.1
			c-0.2-0.1-0.3-0.2-0.4-0.3c-0.1-0.1-0.2-0.3-0.3-0.4c-0.1-0.2-0.1-0.3-0.1-0.5v-1h1.4v1.1c0,0,0,0,0,0h1.6c0,0,0,0,0,0v-1.2
			c0,0,0,0,0-0.1c-0.5-0.3-1-0.5-1.4-0.7c-0.2-0.1-0.3-0.2-0.5-0.3c-0.2-0.1-0.3-0.2-0.4-0.2c-0.1-0.1-0.2-0.1-0.3-0.2
			s-0.1-0.1-0.1-0.1c-0.1,0-0.1-0.1-0.1-0.1s0-0.1,0-0.2v-1.7c0-0.3,0.1-0.6,0.2-0.8c0.2-0.2,0.4-0.3,0.8-0.3h2.3
			c0.3,0,0.6,0.1,0.8,0.3c0.2,0.2,0.3,0.5,0.3,0.8v0.8h-1.4v-0.8c0,0,0,0,0,0h-1.5l0,0c0,0,0,0,0,0v1L334.1,213.7
			C334.1,213.7,334.1,213.7,334.1,213.7z"/>
		<path fill="#FFFFFF" d="M343.3,208.6C343.4,208.6,343.4,208.6,343.3,208.6l0.1,1.4c0,0,0,0.1-0.1,0.1h-1.4c0,0-0.1,0-0.1-0.1v-1.4
			c0,0,0,0,0.1,0H343.3z M343.3,211.5C343.4,211.5,343.4,211.5,343.3,211.5l0.1,6.9c0,0,0,0.1-0.1,0.1H342c0,0-0.1,0-0.1-0.1v-6.8
			c0,0,0,0,0.1,0H343.3z"/>
		<path fill="#FFFFFF" d="M348.3,211.5c0.2,0,0.3,0,0.5,0.1c0.2,0.1,0.3,0.2,0.4,0.3c0.1,0.1,0.2,0.3,0.3,0.4
			c0.1,0.2,0.1,0.3,0.1,0.5v5.5c0,0,0,0,0,0h-1.4c0,0,0,0,0,0v-5.6c0,0,0,0,0,0h-1.7c0,0,0,0,0,0v5.6c0,0,0,0,0,0H345c0,0,0,0,0,0
			v-5.5c0-0.2,0-0.4,0.1-0.5c0.1-0.2,0.2-0.3,0.3-0.4c0.1-0.1,0.3-0.2,0.4-0.3c0.2-0.1,0.3-0.1,0.5-0.1h0H348.3z"/>
		<path fill="#FFFFFF" d="M351.1,211.6C351.1,211.5,351.1,211.5,351.1,211.6l1.4,0c0,0,0,0,0,0.1v4.5c0,0.1,0,0.1,0.1,0.2
			c0.1,0.1,0.2,0.2,0.2,0.3c0.1,0.1,0.2,0.2,0.3,0.3c0.1,0.1,0.1,0.1,0.2,0.1c0.1,0,0.1,0,0.2-0.1c0.1-0.1,0.2-0.2,0.3-0.3
			s0.2-0.2,0.2-0.3c0.1-0.1,0.1-0.2,0.1-0.2v-4.5c0,0,0,0,0,0h1.4c0,0,0,0,0,0.1v4.7c0,0,0,0,0,0.1s0,0.1,0,0.1
			c0,0.1-0.1,0.3-0.3,0.5s-0.3,0.4-0.5,0.7c-0.2,0.2-0.4,0.4-0.7,0.6c-0.2,0.2-0.5,0.3-0.7,0.3s-0.4-0.1-0.7-0.3
			c-0.2-0.2-0.5-0.4-0.7-0.6c-0.2-0.2-0.4-0.4-0.6-0.7c-0.2-0.2-0.3-0.4-0.3-0.5c0,0,0,0,0-0.1c0,0,0-0.1,0-0.1V211.6z"/>
		<path fill="#FFFFFF" d="M360.3,211.5c0.2,0,0.3,0,0.5,0.1c0.2,0.1,0.3,0.2,0.4,0.3c0.1,0.1,0.2,0.3,0.3,0.4
			c0.1,0.2,0.1,0.3,0.1,0.5v2.6c0,0,0,0-0.1,0h-3v1.8c0,0,0,0,0,0h1.6c0,0,0,0,0,0v-0.9c0,0,0-0.1,0.1-0.1h1.3c0,0,0,0,0,0.1v0.7
			c0,0.2,0,0.4-0.1,0.5c-0.1,0.2-0.2,0.3-0.3,0.4c-0.1,0.1-0.2,0.2-0.4,0.3c-0.2,0.1-0.3,0.1-0.5,0.1h-2c-0.4,0-0.7-0.1-0.9-0.4
			c-0.3-0.3-0.4-0.6-0.4-0.9v-4.3c0-0.2,0-0.3,0.1-0.5c0.1-0.2,0.2-0.3,0.3-0.4c0.1-0.1,0.3-0.2,0.4-0.3c0.2-0.1,0.3-0.1,0.5-0.1
			H360.3z M358.5,214.5h1.7v-1.8c0,0,0-0.1,0-0.1h-1.6c0,0,0,0,0,0.1V214.5z"/>
		<path fill="#FFFFFF" d="M366.4,211.5c0.2,0,0.3,0,0.5,0.1c0.2,0.1,0.3,0.2,0.4,0.3c0.1,0.1,0.2,0.3,0.3,0.4
			c0.1,0.2,0.1,0.3,0.1,0.5v5.5c0,0,0,0,0,0h-1.4c0,0,0,0,0,0v-5.6c0,0,0,0,0,0h-1.7c0,0,0,0,0,0v5.6c0,0,0,0,0,0H363c0,0,0,0,0,0
			v-5.5c0-0.2,0-0.4,0.1-0.5c0.1-0.2,0.2-0.3,0.3-0.4c0.1-0.1,0.3-0.2,0.4-0.3c0.2-0.1,0.3-0.1,0.5-0.1h0H366.4z"/>
		<path fill="#FFFFFF" d="M370.7,208.6C370.7,208.6,370.7,208.6,370.7,208.6l0.1,1.4c0,0,0,0.1-0.1,0.1h-1.4c0,0-0.1,0-0.1-0.1v-1.4
			c0,0,0,0,0.1,0H370.7z M370.7,211.5C370.7,211.5,370.7,211.5,370.7,211.5l0.1,6.9c0,0,0,0.1-0.1,0.1h-1.4c0,0-0.1,0-0.1-0.1v-6.8
			c0,0,0,0,0.1,0H370.7z"/>
		<path fill="#FFFFFF" d="M373.6,211.5h2c0,0,0,0,0,0v1.1c0,0,0,0,0,0h-1.8c0,0,0,0,0,0v5.6c0,0,0,0,0,0h-1.4c0,0,0,0,0,0v-5.5
			c0-0.2,0-0.4,0.1-0.5c0.1-0.2,0.2-0.3,0.3-0.4c0.1-0.1,0.3-0.2,0.4-0.3C373.2,211.6,373.4,211.5,373.6,211.5z"/>
		<path fill="#FFFFFF" d="M380,211.5c0.2,0,0.3,0,0.5,0.1c0.2,0.1,0.3,0.2,0.4,0.3c0.1,0.1,0.2,0.3,0.3,0.4c0.1,0.2,0.1,0.3,0.1,0.5
			v2.6c0,0,0,0-0.1,0h-3v1.8c0,0,0,0,0,0h1.6c0,0,0,0,0,0v-0.9c0,0,0-0.1,0.1-0.1h1.3c0,0,0,0,0,0.1v0.7c0,0.2,0,0.4-0.1,0.5
			c-0.1,0.2-0.2,0.3-0.3,0.4c-0.1,0.1-0.2,0.2-0.4,0.3c-0.2,0.1-0.3,0.1-0.5,0.1h-2c-0.4,0-0.7-0.1-0.9-0.4
			c-0.3-0.3-0.4-0.6-0.4-0.9v-4.3c0-0.2,0-0.3,0.1-0.5c0.1-0.2,0.2-0.3,0.3-0.4c0.1-0.1,0.3-0.2,0.4-0.3c0.2-0.1,0.3-0.1,0.5-0.1
			H380z M378.1,214.5h1.7v-1.8c0,0,0-0.1,0-0.1h-1.6c0,0,0,0,0,0.1V214.5z"/>
		<path fill="#FFFFFF" d="M387.5,208.6C387.5,208.6,387.5,208.6,387.5,208.6l0.1,1.4c0,0,0,0.1-0.1,0.1H386c0,0-0.1,0-0.1-0.1v-1.4
			c0,0,0,0,0.1,0H387.5z M387.5,211.5C387.5,211.5,387.5,211.5,387.5,211.5l0.1,6.9c0,0,0,0.1-0.1,0.1h-1.4c0,0-0.1,0-0.1-0.1v-6.8
			c0,0,0,0,0.1,0H387.5z"/>
		<path fill="#FFFFFF" d="M390.3,218.4L390.3,218.4c-0.2,0-0.3,0-0.5-0.1c-0.2-0.1-0.3-0.2-0.4-0.3c-0.1-0.1-0.2-0.3-0.3-0.4
			s-0.1-0.3-0.1-0.5v-5.5c0,0,0,0,0,0h1.4c0,0,0,0,0,0v5.6c0,0,0,0,0,0h1.7c0,0,0,0,0,0v-5.6c0,0,0,0,0,0h1.4c0,0,0,0,0,0v5.5
			c0,0.2,0,0.4-0.1,0.5s-0.2,0.3-0.3,0.4c-0.1,0.1-0.3,0.2-0.4,0.3c-0.2,0.1-0.3,0.1-0.5,0.1H390.3z"/>
		<path fill="#FFFFFF" d="M396.8,213.7c0.4,0.2,0.9,0.4,1.2,0.6c0.3,0.2,0.6,0.3,0.9,0.4s0.4,0.2,0.5,0.2c0.3,0.2,0.4,0.4,0.4,0.7
			l0,1.5c0,0.2,0,0.3-0.1,0.5c-0.1,0.2-0.2,0.3-0.3,0.4c-0.1,0.1-0.3,0.2-0.4,0.3c-0.2,0.1-0.3,0.1-0.5,0.1h-2c-0.2,0-0.3,0-0.5-0.1
			c-0.2-0.1-0.3-0.2-0.4-0.3c-0.1-0.1-0.2-0.3-0.3-0.4c-0.1-0.2-0.1-0.3-0.1-0.5v-1h1.4v1.1c0,0,0,0,0,0h1.6c0,0,0,0,0,0v-1.2
			c0,0,0,0,0-0.1c-0.5-0.3-1-0.5-1.4-0.7c-0.2-0.1-0.3-0.2-0.5-0.3c-0.2-0.1-0.3-0.2-0.4-0.2c-0.1-0.1-0.2-0.1-0.3-0.2
			s-0.1-0.1-0.1-0.1c-0.1,0-0.1-0.1-0.1-0.1s0-0.1,0-0.2v-1.7c0-0.3,0.1-0.6,0.2-0.8c0.2-0.2,0.4-0.3,0.8-0.3h2.3
			c0.3,0,0.6,0.1,0.8,0.3c0.2,0.2,0.3,0.5,0.3,0.8v0.8h-1.4v-0.8c0,0,0,0,0,0h-1.5l0,0c0,0,0,0,0,0v1L396.8,213.7
			C396.8,213.7,396.8,213.7,396.8,213.7z"/>
		<path fill="#FFFFFF" d="M402.5,216.9C402.5,216.9,402.5,216.9,402.5,216.9l0.1,2.7c0,0,0,0.1-0.1,0.1l-0.9-1.2h-0.8
			c0,0-0.1,0-0.1-0.1V217c0,0,0,0,0.1,0H402.5z"/>
		<path fill="#FFFFFF" d="M410.1,221.2C410.1,221.2,410,221.2,410.1,221.2l-0.1-2.8h-1.9c-0.4,0-0.7-0.1-0.9-0.4
			c-0.2-0.3-0.4-0.6-0.4-0.9v-4.3c0-0.4,0.1-0.7,0.4-0.9s0.6-0.4,0.9-0.4h2.1c0.4,0,0.7,0.1,0.9,0.4c0.2,0.3,0.4,0.6,0.4,0.9v0v8.3
			c0,0,0,0-0.1,0H410.1z M408.3,217.2C408.3,217.2,408.3,217.3,408.3,217.2l1.7,0c0,0,0.1,0,0.1,0v-4.4c0,0,0,0-0.1,0h-1.6
			c0,0,0,0,0,0.1V217.2z"/>
		<path fill="#FFFFFF" d="M414.3,218.4L414.3,218.4c-0.2,0-0.3,0-0.5-0.1c-0.2-0.1-0.3-0.2-0.4-0.3c-0.1-0.1-0.2-0.3-0.3-0.4
			s-0.1-0.3-0.1-0.5v-5.5c0,0,0,0,0,0h1.4c0,0,0,0,0,0v5.6c0,0,0,0,0,0h1.7c0,0,0,0,0,0v-5.6c0,0,0,0,0,0h1.4c0,0,0,0,0,0v5.5
			c0,0.2,0,0.4-0.1,0.5s-0.2,0.3-0.3,0.4c-0.1,0.1-0.3,0.2-0.4,0.3c-0.2,0.1-0.3,0.1-0.5,0.1H414.3z"/>
		<path fill="#FFFFFF" d="M422.2,214.5v-1.8c0,0,0,0,0,0h-1.5c0,0,0,0,0,0v0.8c0,0,0,0.1-0.1,0.1h-1.3c0,0,0,0,0-0.1v-0.7
			c0-0.2,0-0.3,0.1-0.5c0.1-0.2,0.2-0.3,0.3-0.4c0.1-0.1,0.2-0.2,0.4-0.3c0.2-0.1,0.3-0.1,0.5-0.1h1.9c0.2,0,0.3,0,0.5,0.1
			c0.2,0.1,0.3,0.2,0.4,0.3c0.1,0.1,0.2,0.3,0.3,0.4c0.1,0.2,0.1,0.3,0.1,0.5v5.6c0,0,0,0,0,0l0,0h-3.3c-0.2,0-0.3,0-0.5-0.1
			c-0.2-0.1-0.3-0.2-0.4-0.3c-0.1-0.1-0.2-0.3-0.3-0.4c-0.1-0.2-0.1-0.3-0.1-0.5v-1.3c0-0.2,0-0.3,0.1-0.5s0.2-0.3,0.3-0.4
			c0.1-0.1,0.2-0.2,0.4-0.3c0.2-0.1,0.3-0.1,0.5-0.1H422.2z M422.2,215.5h-1.7c0,0,0,0,0,0v1.7c0,0,0,0.1,0,0.1h1.7c0,0,0,0,0-0.1
			V215.5z"/>
		<path fill="#FFFFFF" d="M428.5,211.5c0.2,0,0.3,0,0.5,0.1c0.2,0.1,0.3,0.2,0.4,0.3c0.1,0.1,0.2,0.3,0.3,0.4
			c0.1,0.2,0.1,0.3,0.1,0.5v2.6c0,0,0,0-0.1,0h-3v1.8c0,0,0,0,0,0h1.6c0,0,0,0,0,0v-0.9c0,0,0-0.1,0.1-0.1h1.3c0,0,0,0,0,0.1v0.7
			c0,0.2,0,0.4-0.1,0.5c-0.1,0.2-0.2,0.3-0.3,0.4c-0.1,0.1-0.2,0.2-0.4,0.3c-0.2,0.1-0.3,0.1-0.5,0.1h-2c-0.4,0-0.7-0.1-0.9-0.4
			c-0.3-0.3-0.4-0.6-0.4-0.9v-4.3c0-0.2,0-0.3,0.1-0.5c0.1-0.2,0.2-0.3,0.3-0.4c0.1-0.1,0.3-0.2,0.4-0.3c0.2-0.1,0.3-0.1,0.5-0.1
			H428.5z M426.7,214.5h1.7v-1.8c0,0,0-0.1,0-0.1h-1.6c0,0,0,0,0,0.1V214.5z"/>
		<path fill="#FFFFFF" d="M432.8,213.7c0.4,0.2,0.9,0.4,1.2,0.6c0.3,0.2,0.6,0.3,0.9,0.4s0.4,0.2,0.5,0.2c0.3,0.2,0.4,0.4,0.4,0.7
			l0,1.5c0,0.2,0,0.3-0.1,0.5c-0.1,0.2-0.2,0.3-0.3,0.4c-0.1,0.1-0.3,0.2-0.4,0.3c-0.2,0.1-0.3,0.1-0.5,0.1h-2c-0.2,0-0.3,0-0.5-0.1
			c-0.2-0.1-0.3-0.2-0.4-0.3c-0.1-0.1-0.2-0.3-0.3-0.4c-0.1-0.2-0.1-0.3-0.1-0.5v-1h1.4v1.1c0,0,0,0,0,0h1.6c0,0,0,0,0,0v-1.2
			c0,0,0,0,0-0.1c-0.5-0.3-1-0.5-1.4-0.7c-0.2-0.1-0.3-0.2-0.5-0.3c-0.2-0.1-0.3-0.2-0.4-0.2c-0.1-0.1-0.2-0.1-0.3-0.2
			s-0.1-0.1-0.1-0.1c-0.1,0-0.1-0.1-0.1-0.1s0-0.1,0-0.2v-1.7c0-0.3,0.1-0.6,0.2-0.8c0.2-0.2,0.4-0.3,0.8-0.3h2.3
			c0.3,0,0.6,0.1,0.8,0.3c0.2,0.2,0.3,0.5,0.3,0.8v0.8h-1.4v-0.8c0,0,0,0,0,0h-1.5l0,0c0,0,0,0,0,0v1L432.8,213.7
			C432.7,213.7,432.8,213.7,432.8,213.7z"/>
		<path fill="#FFFFFF" d="M437.8,209.9C437.8,209.9,437.8,209.9,437.8,209.9l1.4,0c0,0,0,0,0.1,0v1.6h1c0,0,0,0,0,0.1v1.1
			c0,0,0,0,0,0.1h-1v5.7c0,0,0,0.1-0.1,0.1h-1.4c0,0-0.1,0-0.1-0.1v-5.7h-1c0,0,0,0,0-0.1v-1.1c0,0,0-0.1,0-0.1h1V209.9z"/>
		<path fill="#FFFFFF" d="M442.8,208.6C442.8,208.6,442.8,208.6,442.8,208.6l0.1,1.4c0,0,0,0.1-0.1,0.1h-1.4c0,0-0.1,0-0.1-0.1v-1.4
			c0,0,0,0,0.1,0H442.8z M442.8,211.5C442.8,211.5,442.8,211.5,442.8,211.5l0.1,6.9c0,0,0,0.1-0.1,0.1h-1.4c0,0-0.1,0-0.1-0.1v-6.8
			c0,0,0,0,0.1,0H442.8z"/>
		<path fill="#FFFFFF" d="M447.6,211.5c0.4,0,0.7,0.1,0.9,0.4c0.2,0.3,0.4,0.6,0.4,0.9v4.3c0,0.4-0.1,0.7-0.4,0.9s-0.6,0.4-0.9,0.4
			h0h-2h0c-0.4,0-0.7-0.1-0.9-0.4c-0.2-0.3-0.4-0.6-0.4-0.9v-4.3c0-0.4,0.1-0.7,0.4-0.9c0.2-0.3,0.5-0.4,0.9-0.4H447.6z
			 M447.4,212.7C447.4,212.7,447.4,212.7,447.4,212.7l-1.5,0c0,0-0.1,0-0.1,0v4.5c0,0,0,0,0.1,0.1h1.5c0,0,0,0,0-0.1V212.7z"/>
		<path fill="#FFFFFF" d="M455.2,208.6C455.2,208.6,455.2,208.6,455.2,208.6l0.1,1.4c0,0,0,0.1-0.1,0.1h-1.4c0,0-0.1,0-0.1-0.1v-1.4
			c0,0,0,0,0.1,0H455.2z M455.2,211.5C455.2,211.5,455.2,211.5,455.2,211.5l0.1,6.9c0,0,0,0.1-0.1,0.1h-1.4c0,0-0.1,0-0.1-0.1v-6.8
			c0,0,0,0,0.1,0H455.2z"/>
		<path fill="#FFFFFF" d="M460.1,211.5c0.2,0,0.3,0,0.5,0.1c0.2,0.1,0.3,0.2,0.4,0.3c0.1,0.1,0.2,0.3,0.3,0.4
			c0.1,0.2,0.1,0.3,0.1,0.5v5.5c0,0,0,0,0,0H460c0,0,0,0,0,0v-5.6c0,0,0,0,0,0h-1.7c0,0,0,0,0,0v5.6c0,0,0,0,0,0h-1.4c0,0,0,0,0,0
			v-5.5c0-0.2,0-0.4,0.1-0.5c0.1-0.2,0.2-0.3,0.3-0.4c0.1-0.1,0.3-0.2,0.4-0.3c0.2-0.1,0.3-0.1,0.5-0.1h0H460.1z"/>
		<path fill="#FFFFFF" d="M464.5,213.7c0.4,0.2,0.9,0.4,1.2,0.6c0.3,0.2,0.6,0.3,0.9,0.4s0.4,0.2,0.5,0.2c0.3,0.2,0.4,0.4,0.4,0.7
			l0,1.5c0,0.2,0,0.3-0.1,0.5c-0.1,0.2-0.2,0.3-0.3,0.4c-0.1,0.1-0.3,0.2-0.4,0.3c-0.2,0.1-0.3,0.1-0.5,0.1h-2c-0.2,0-0.3,0-0.5-0.1
			c-0.2-0.1-0.3-0.2-0.4-0.3c-0.1-0.1-0.2-0.3-0.3-0.4c-0.1-0.2-0.1-0.3-0.1-0.5v-1h1.4v1.1c0,0,0,0,0,0h1.6c0,0,0,0,0,0v-1.2
			c0,0,0,0,0-0.1c-0.5-0.3-1-0.5-1.4-0.7c-0.2-0.1-0.3-0.2-0.5-0.3c-0.2-0.1-0.3-0.2-0.4-0.2c-0.1-0.1-0.2-0.1-0.3-0.2
			s-0.1-0.1-0.1-0.1c-0.1,0-0.1-0.1-0.1-0.1s0-0.1,0-0.2v-1.7c0-0.3,0.1-0.6,0.2-0.8c0.2-0.2,0.4-0.3,0.8-0.3h2.3
			c0.3,0,0.6,0.1,0.8,0.3c0.2,0.2,0.3,0.5,0.3,0.8v0.8H466v-0.8c0,0,0,0,0,0h-1.5l0,0c0,0,0,0,0,0v1L464.5,213.7
			C464.5,213.7,464.5,213.7,464.5,213.7z"/>
		<path fill="#FFFFFF" d="M469.5,209.9C469.5,209.9,469.5,209.9,469.5,209.9l1.4,0c0,0,0,0,0.1,0v1.6h1c0,0,0,0,0,0.1v1.1
			c0,0,0,0,0,0.1h-1v5.7c0,0,0,0.1-0.1,0.1h-1.4c0,0-0.1,0-0.1-0.1v-5.7h-1c0,0,0,0,0-0.1v-1.1c0,0,0-0.1,0-0.1h1V209.9z"/>
		<path fill="#FFFFFF" d="M474.3,211.5h2c0,0,0,0,0,0v1.1c0,0,0,0,0,0h-1.8c0,0,0,0,0,0v5.6c0,0,0,0,0,0h-1.4c0,0,0,0,0,0v-5.5
			c0-0.2,0-0.4,0.1-0.5c0.1-0.2,0.2-0.3,0.3-0.4c0.1-0.1,0.3-0.2,0.4-0.3C474,211.6,474.1,211.5,474.3,211.5z"/>
		<path fill="#FFFFFF" d="M478.7,218.4L478.7,218.4c-0.2,0-0.3,0-0.5-0.1c-0.2-0.1-0.3-0.2-0.4-0.3c-0.1-0.1-0.2-0.3-0.3-0.4
			s-0.1-0.3-0.1-0.5v-5.5c0,0,0,0,0,0h1.4c0,0,0,0,0,0v5.6c0,0,0,0,0,0h1.7c0,0,0,0,0,0v-5.6c0,0,0,0,0,0h1.4c0,0,0,0,0,0v5.5
			c0,0.2,0,0.4-0.1,0.5s-0.2,0.3-0.3,0.4c-0.1,0.1-0.3,0.2-0.4,0.3c-0.2,0.1-0.3,0.1-0.5,0.1H478.7z"/>
		<path fill="#FFFFFF" d="M486.6,211.5c0.4,0,0.7,0.1,0.9,0.4c0.2,0.3,0.4,0.6,0.4,0.9v1c0,0,0,0-0.1,0h-1.3c0,0,0,0,0,0v-1
			c0,0,0-0.1,0-0.1H485c0,0,0,0,0,0.1v4.3c0,0,0,0,0,0h1.4c0,0,0,0,0,0V216c0,0,0-0.1,0.1-0.1h1.3c0,0,0,0,0,0.1v1.2
			c0,0.4-0.1,0.7-0.4,0.9c-0.2,0.3-0.5,0.4-0.9,0.4h0h-1.8h0c-0.4,0-0.7-0.1-0.9-0.4c-0.3-0.3-0.4-0.6-0.4-0.9v-4.3
			c0-0.2,0-0.3,0.1-0.5c0.1-0.2,0.2-0.3,0.3-0.4c0.1-0.1,0.3-0.2,0.4-0.3c0.2-0.1,0.3-0.1,0.5-0.1h0H486.6L486.6,211.5z"/>
		<path fill="#FFFFFF" d="M489.9,209.9C489.9,209.9,489.9,209.9,489.9,209.9l1.4,0c0,0,0,0,0.1,0v1.6h1c0,0,0,0,0,0.1v1.1
			c0,0,0,0,0,0.1h-1v5.7c0,0,0,0.1-0.1,0.1h-1.4c0,0-0.1,0-0.1-0.1v-5.7h-1c0,0,0,0,0-0.1v-1.1c0,0,0-0.1,0-0.1h1V209.9z"/>
		<path fill="#FFFFFF" d="M494.9,208.6C494.9,208.6,494.9,208.6,494.9,208.6l0.1,1.4c0,0,0,0.1-0.1,0.1h-1.4c0,0-0.1,0-0.1-0.1v-1.4
			c0,0,0,0,0.1,0H494.9z M494.9,211.5C494.9,211.5,494.9,211.5,494.9,211.5l0.1,6.9c0,0,0,0.1-0.1,0.1h-1.4c0,0-0.1,0-0.1-0.1v-6.8
			c0,0,0,0,0.1,0H494.9z"/>
		<path fill="#FFFFFF" d="M499.7,211.5c0.4,0,0.7,0.1,0.9,0.4c0.2,0.3,0.4,0.6,0.4,0.9v4.3c0,0.4-0.1,0.7-0.4,0.9s-0.6,0.4-0.9,0.4
			h0h-2h0c-0.4,0-0.7-0.1-0.9-0.4c-0.2-0.3-0.4-0.6-0.4-0.9v-4.3c0-0.4,0.1-0.7,0.4-0.9c0.2-0.3,0.5-0.4,0.9-0.4H499.7z
			 M499.5,212.7C499.5,212.7,499.5,212.7,499.5,212.7l-1.5,0c0,0-0.1,0-0.1,0v4.5c0,0,0,0,0.1,0.1h1.5c0,0,0,0,0-0.1V212.7z"/>
		<path fill="#FFFFFF" d="M503.8,211.5h2c0,0,0,0,0,0v1.1c0,0,0,0,0,0H504c0,0,0,0,0,0v5.6c0,0,0,0,0,0h-1.4c0,0,0,0,0,0v-5.5
			c0-0.2,0-0.4,0.1-0.5c0.1-0.2,0.2-0.3,0.3-0.4c0.1-0.1,0.3-0.2,0.4-0.3C503.4,211.6,503.6,211.5,503.8,211.5z"/>
		<path fill="#FFFFFF" d="M511.7,208.6C511.7,208.6,511.8,208.6,511.7,208.6l0.1,1.4c0,0,0,0.1-0.1,0.1h-1.4c0,0-0.1,0-0.1-0.1v-1.4
			c0,0,0,0,0.1,0H511.7z M511.7,211.5C511.7,211.5,511.8,211.5,511.7,211.5l0.1,6.9c0,0,0,0.1-0.1,0.1h-1.4c0,0-0.1,0-0.1-0.1v-6.8
			c0,0,0,0,0.1,0H511.7z"/>
		<path fill="#FFFFFF" d="M516.7,211.5c0.2,0,0.3,0,0.5,0.1c0.2,0.1,0.3,0.2,0.4,0.3c0.1,0.1,0.2,0.3,0.3,0.4
			c0.1,0.2,0.1,0.3,0.1,0.5v5.5c0,0,0,0,0,0h-1.4c0,0,0,0,0,0v-5.6c0,0,0,0,0,0h-1.7c0,0,0,0,0,0v5.6c0,0,0,0,0,0h-1.4c0,0,0,0,0,0
			v-5.5c0-0.2,0-0.4,0.1-0.5c0.1-0.2,0.2-0.3,0.3-0.4c0.1-0.1,0.3-0.2,0.4-0.3c0.2-0.1,0.3-0.1,0.5-0.1h0H516.7z"/>
		<path fill="#FFFFFF" d="M520,209.9C520,209.9,520,209.9,520,209.9l1.4,0c0,0,0,0,0.1,0v1.6h1c0,0,0,0,0,0.1v1.1c0,0,0,0,0,0.1h-1
			v5.7c0,0,0,0.1-0.1,0.1h-1.4c0,0-0.1,0-0.1-0.1v-5.7h-1c0,0,0,0,0-0.1v-1.1c0,0,0-0.1,0-0.1h1V209.9z"/>
		<path fill="#FFFFFF" d="M526.8,211.5c0.2,0,0.3,0,0.5,0.1c0.2,0.1,0.3,0.2,0.4,0.3c0.1,0.1,0.2,0.3,0.3,0.4
			c0.1,0.2,0.1,0.3,0.1,0.5v2.6c0,0,0,0-0.1,0h-3v1.8c0,0,0,0,0,0h1.6c0,0,0,0,0,0v-0.9c0,0,0-0.1,0.1-0.1h1.3c0,0,0,0,0,0.1v0.7
			c0,0.2,0,0.4-0.1,0.5c-0.1,0.2-0.2,0.3-0.3,0.4c-0.1,0.1-0.2,0.2-0.4,0.3c-0.2,0.1-0.3,0.1-0.5,0.1h-2c-0.4,0-0.7-0.1-0.9-0.4
			c-0.3-0.3-0.4-0.6-0.4-0.9v-4.3c0-0.2,0-0.3,0.1-0.5c0.1-0.2,0.2-0.3,0.3-0.4c0.1-0.1,0.3-0.2,0.4-0.3c0.2-0.1,0.3-0.1,0.5-0.1
			H526.8z M525,214.5h1.7v-1.8c0,0,0-0.1,0-0.1H525c0,0,0,0,0,0.1V214.5z"/>
		<path fill="#FFFFFF" d="M531,208.3C531,208.3,531,208.3,531,208.3l0.1,10.1c0,0,0,0.1-0.1,0.1h-1.4c0,0-0.1,0-0.1-0.1v-10.1
			c0,0,0,0,0.1,0H531z"/>
		<path fill="#FFFFFF" d="M534,208.3C534,208.3,534,208.3,534,208.3l0.1,10.1c0,0,0,0.1-0.1,0.1h-1.4c0,0-0.1,0-0.1-0.1v-10.1
			c0,0,0,0,0.1,0H534z"/>
		<path fill="#FFFFFF" d="M538.9,211.5c0.2,0,0.3,0,0.5,0.1c0.2,0.1,0.3,0.2,0.4,0.3c0.1,0.1,0.2,0.3,0.3,0.4
			c0.1,0.2,0.1,0.3,0.1,0.5v2.6c0,0,0,0-0.1,0h-3v1.8c0,0,0,0,0,0h1.6c0,0,0,0,0,0v-0.9c0,0,0-0.1,0.1-0.1h1.3c0,0,0,0,0,0.1v0.7
			c0,0.2,0,0.4-0.1,0.5c-0.1,0.2-0.2,0.3-0.3,0.4c-0.1,0.1-0.2,0.2-0.4,0.3c-0.2,0.1-0.3,0.1-0.5,0.1h-2c-0.4,0-0.7-0.1-0.9-0.4
			c-0.3-0.3-0.4-0.6-0.4-0.9v-4.3c0-0.2,0-0.3,0.1-0.5c0.1-0.2,0.2-0.3,0.3-0.4c0.1-0.1,0.3-0.2,0.4-0.3c0.2-0.1,0.3-0.1,0.5-0.1
			H538.9z M537,214.5h1.7v-1.8c0,0,0-0.1,0-0.1h-1.6c0,0,0,0,0,0.1V214.5z"/>
		<path fill="#FFFFFF" d="M541.5,212.8c0-0.2,0-0.3,0.1-0.5c0.1-0.2,0.2-0.3,0.3-0.4c0.1-0.1,0.2-0.2,0.4-0.3
			c0.2-0.1,0.3-0.1,0.5-0.1h1.8c0.2,0,0.3,0,0.5,0.1c0.2,0.1,0.3,0.2,0.4,0.3c0.1,0.1,0.2,0.3,0.3,0.4c0.1,0.2,0.1,0.3,0.1,0.5v7.1
			c0,0.2,0,0.4-0.1,0.5c-0.1,0.2-0.2,0.3-0.3,0.4c-0.1,0.1-0.3,0.2-0.4,0.3s-0.3,0.1-0.5,0.1h-1.8c-0.2,0-0.3,0-0.5-0.1
			c-0.2-0.1-0.3-0.2-0.4-0.3c-0.1-0.1-0.2-0.3-0.3-0.4c-0.1-0.2-0.1-0.3-0.1-0.5v-0.5c0,0,0-0.1,0-0.1h1.3c0,0,0.1,0,0.1,0.1v0.6
			c0,0,0,0,0,0h1.4c0,0,0,0,0,0v-1.5h-1.6c-0.3,0-0.6-0.2-0.9-0.4c-0.2-0.2-0.4-0.5-0.4-0.9V212.8z M544.4,212.8
			C544.4,212.8,544.4,212.8,544.4,212.8l-1.4-0.1c0,0,0,0,0,0.1v4.4h1.4V212.8z"/>
		<path fill="#FFFFFF" d="M550.7,211.5c0.2,0,0.3,0,0.5,0.1c0.2,0.1,0.3,0.2,0.4,0.3c0.1,0.1,0.2,0.3,0.3,0.4
			c0.1,0.2,0.1,0.3,0.1,0.5v2.6c0,0,0,0-0.1,0h-3v1.8c0,0,0,0,0,0h1.6c0,0,0,0,0,0v-0.9c0,0,0-0.1,0.1-0.1h1.3c0,0,0,0,0,0.1v0.7
			c0,0.2,0,0.4-0.1,0.5c-0.1,0.2-0.2,0.3-0.3,0.4c-0.1,0.1-0.2,0.2-0.4,0.3c-0.2,0.1-0.3,0.1-0.5,0.1h-2c-0.4,0-0.7-0.1-0.9-0.4
			c-0.3-0.3-0.4-0.6-0.4-0.9v-4.3c0-0.2,0-0.3,0.1-0.5c0.1-0.2,0.2-0.3,0.3-0.4c0.1-0.1,0.3-0.2,0.4-0.3c0.2-0.1,0.3-0.1,0.5-0.1
			H550.7z M548.8,214.5h1.7v-1.8c0,0,0-0.1,0-0.1h-1.6c0,0,0,0,0,0.1V214.5z"/>
		<path fill="#FFFFFF" d="M557.1,214.2C557.1,214.2,557.1,214.3,557.1,214.2l0.1,0.9c0,0,0,0.1,0,0.1h-4c0,0,0,0,0-0.1v-0.8
			c0,0,0,0,0,0c0,0,0,0,0,0H557.1z"/>
		<path fill="#FFFFFF" d="M297.2,225.1C297.2,225.1,297.3,225.1,297.2,225.1l0.1,3.3h1.8c0.2,0,0.3,0,0.5,0.1
			c0.2,0.1,0.3,0.2,0.4,0.3c0.1,0.1,0.2,0.3,0.3,0.4c0.1,0.2,0.1,0.3,0.1,0.5v4.3c0,0.4-0.1,0.7-0.4,0.9c-0.2,0.3-0.6,0.4-0.9,0.4
			h-2c-0.2,0-0.4,0-0.5-0.1c-0.2-0.1-0.3-0.2-0.4-0.3c-0.1-0.1-0.2-0.3-0.3-0.4c-0.1-0.2-0.1-0.3-0.1-0.5v0v-8.8c0,0,0,0,0.1,0
			H297.2z M299,229.6C299,229.6,299,229.6,299,229.6l-1.7,0c0,0-0.1,0-0.1,0v4.4c0,0,0,0,0.1,0h1.6c0,0,0,0,0-0.1V229.6z"/>
		<path fill="#FFFFFF" d="M305,231.3v-1.8c0,0,0,0,0,0h-1.5c0,0,0,0,0,0v0.8c0,0,0,0.1-0.1,0.1h-1.3c0,0,0,0,0-0.1v-0.7
			c0-0.2,0-0.3,0.1-0.5c0.1-0.2,0.2-0.3,0.3-0.4c0.1-0.1,0.2-0.2,0.4-0.3c0.2-0.1,0.3-0.1,0.5-0.1h1.9c0.2,0,0.3,0,0.5,0.1
			c0.2,0.1,0.3,0.2,0.4,0.3c0.1,0.1,0.2,0.3,0.3,0.4c0.1,0.2,0.1,0.3,0.1,0.5v5.6c0,0,0,0,0,0l0,0h-3.3c-0.2,0-0.3,0-0.5-0.1
			c-0.2-0.1-0.3-0.2-0.4-0.3c-0.1-0.1-0.2-0.3-0.3-0.4c-0.1-0.2-0.1-0.3-0.1-0.5v-1.3c0-0.2,0-0.3,0.1-0.5s0.2-0.3,0.3-0.4
			c0.1-0.1,0.2-0.2,0.4-0.3c0.2-0.1,0.3-0.1,0.5-0.1H305z M305,232.3h-1.7c0,0,0,0,0,0v1.7c0,0,0,0.1,0,0.1h1.7c0,0,0,0,0-0.1V232.3
			z"/>
		<path fill="#FFFFFF" d="M308.6,226.7C308.6,226.7,308.6,226.7,308.6,226.7l1.4,0c0,0,0,0,0.1,0v1.6h1c0,0,0,0,0,0.1v1.1
			c0,0,0,0,0,0.1h-1v5.7c0,0,0,0.1-0.1,0.1h-1.4c0,0-0.1,0-0.1-0.1v-5.7h-1c0,0,0,0,0-0.1v-1.1c0,0,0-0.1,0-0.1h1V226.7z"/>
		<path fill="#FFFFFF" d="M318.5,231.3v-1.8c0,0,0,0,0,0h-1.5c0,0,0,0,0,0v0.8c0,0,0,0.1-0.1,0.1h-1.3c0,0,0,0,0-0.1v-0.7
			c0-0.2,0-0.3,0.1-0.5c0.1-0.2,0.2-0.3,0.3-0.4c0.1-0.1,0.2-0.2,0.4-0.3c0.2-0.1,0.3-0.1,0.5-0.1h1.9c0.2,0,0.3,0,0.5,0.1
			c0.2,0.1,0.3,0.2,0.4,0.3c0.1,0.1,0.2,0.3,0.3,0.4c0.1,0.2,0.1,0.3,0.1,0.5v5.6c0,0,0,0,0,0l0,0h-3.3c-0.2,0-0.3,0-0.5-0.1
			c-0.2-0.1-0.3-0.2-0.4-0.3c-0.1-0.1-0.2-0.3-0.3-0.4c-0.1-0.2-0.1-0.3-0.1-0.5v-1.3c0-0.2,0-0.3,0.1-0.5s0.2-0.3,0.3-0.4
			c0.1-0.1,0.2-0.2,0.4-0.3c0.2-0.1,0.3-0.1,0.5-0.1H318.5z M318.5,232.3h-1.7c0,0,0,0,0,0v1.7c0,0,0,0.1,0,0.1h1.7c0,0,0,0,0-0.1
			V232.3z"/>
		<path fill="#FFFFFF" d="M324.8,228.3c0.2,0,0.3,0,0.5,0.1c0.2,0.1,0.3,0.2,0.4,0.3c0.1,0.1,0.2,0.3,0.3,0.4
			c0.1,0.2,0.1,0.3,0.1,0.5v5.5c0,0,0,0,0,0h-1.4c0,0,0,0,0,0v-5.6c0,0,0,0,0,0h-1.7c0,0,0,0,0,0v5.6c0,0,0,0,0,0h-1.4c0,0,0,0,0,0
			v-5.5c0-0.2,0-0.4,0.1-0.5c0.1-0.2,0.2-0.3,0.3-0.4c0.1-0.1,0.3-0.2,0.4-0.3c0.2-0.1,0.3-0.1,0.5-0.1h0H324.8z"/>
		<path fill="#FFFFFF" d="M332.4,225.1C332.4,225.1,332.4,225.1,332.4,225.1l0.1,3.3h1.9c0.2,0,0.3,0,0.5,0.1
			c0.2,0.1,0.3,0.2,0.4,0.3c0.1,0.1,0.2,0.3,0.3,0.4c0.1,0.2,0.1,0.3,0.1,0.5v5.5c0,0,0,0,0,0h-1.4c0,0,0,0,0,0v-5.6c0,0,0,0,0,0
			h-1.7c0,0,0,0,0,0l0,5.6c0,0,0,0,0,0H331c0,0,0,0,0,0l0-10.1c0,0,0,0,0.1,0H332.4z"/>
		<path fill="#FFFFFF" d="M338.6,225.4C338.6,225.4,338.7,225.4,338.6,225.4l0.1,1.4c0,0,0,0.1-0.1,0.1h-1.4c0,0-0.1,0-0.1-0.1v-1.4
			c0,0,0,0,0.1,0H338.6z M338.6,228.3C338.6,228.3,338.7,228.3,338.6,228.3l0.1,6.9c0,0,0,0.1-0.1,0.1h-1.4c0,0-0.1,0-0.1-0.1v-6.8
			c0,0,0,0,0.1,0H338.6z"/>
		<path fill="#FFFFFF" d="M341.8,230.5c0.4,0.2,0.9,0.4,1.2,0.6c0.3,0.2,0.6,0.3,0.9,0.4s0.4,0.2,0.5,0.2c0.3,0.2,0.4,0.4,0.4,0.7
			l0,1.5c0,0.2,0,0.3-0.1,0.5c-0.1,0.2-0.2,0.3-0.3,0.4c-0.1,0.1-0.3,0.2-0.4,0.3c-0.2,0.1-0.3,0.1-0.5,0.1h-2c-0.2,0-0.3,0-0.5-0.1
			c-0.2-0.1-0.3-0.2-0.4-0.3c-0.1-0.1-0.2-0.3-0.3-0.4c-0.1-0.2-0.1-0.3-0.1-0.5v-1h1.4v1.1c0,0,0,0,0,0h1.6c0,0,0,0,0,0v-1.2
			c0,0,0,0,0-0.1c-0.5-0.3-1-0.5-1.4-0.7c-0.2-0.1-0.3-0.2-0.5-0.3c-0.2-0.1-0.3-0.2-0.4-0.2c-0.1-0.1-0.2-0.1-0.3-0.2
			s-0.1-0.1-0.1-0.1c-0.1,0-0.1-0.1-0.1-0.1s0-0.1,0-0.2v-1.7c0-0.3,0.1-0.6,0.2-0.8c0.2-0.2,0.4-0.3,0.8-0.3h2.3
			c0.3,0,0.6,0.1,0.8,0.3c0.2,0.2,0.3,0.5,0.3,0.8v0.8h-1.4v-0.8c0,0,0,0,0,0h-1.5l0,0c0,0,0,0,0,0v1L341.8,230.5
			C341.8,230.5,341.8,230.5,341.8,230.5z"/>
		<path fill="#FFFFFF" d="M347.4,233.8C347.4,233.8,347.4,233.8,347.4,233.8l0.1,1.4c0,0,0,0.1-0.1,0.1h-1.6c0,0-0.1,0-0.1-0.1v-1.3
			c0,0,0,0,0.1,0H347.4z"/>
		<path fill="#FFFFFF" d="M359.1,235.2C359.1,235.2,359,235.2,359.1,235.2l-1.5,0c0,0-0.1,0-0.1,0v-8c0-0.1,0-0.2-0.1-0.3
			c-0.1-0.1-0.2-0.2-0.4-0.2h-0.3c-0.2,0-0.3,0-0.4,0.1c-0.1,0.1-0.2,0.2-0.2,0.4v8c0,0,0,0-0.1,0h-1.2c0,0-0.1,0-0.1,0v-8
			c0-0.2-0.1-0.3-0.2-0.4c-0.1-0.1-0.3-0.1-0.4-0.1h-0.3c-0.2,0-0.3,0.1-0.4,0.2c-0.1,0.1-0.1,0.2-0.1,0.3v8c0,0,0,0-0.1,0H352
			c0,0-0.1,0-0.1,0v-8.4c0-0.4,0.1-0.7,0.4-0.9c0.2-0.3,0.6-0.4,0.9-0.4h1.2c0.2,0,0.4,0,0.5,0.1c0.1,0.1,0.2,0.2,0.3,0.3
			s0.1,0.2,0.2,0.3c0,0.1,0.1,0.2,0.1,0.3c0-0.1,0-0.2,0.1-0.3s0.1-0.2,0.2-0.3c0.1-0.1,0.2-0.2,0.3-0.3s0.3-0.1,0.5-0.1h1.2
			c0.4,0,0.7,0.1,0.9,0.4c0.2,0.3,0.4,0.6,0.4,0.9V235.2z"/>
		<path fill="#FFFFFF" d="M364,228.3c0.2,0,0.3,0,0.5,0.1c0.2,0.1,0.3,0.2,0.4,0.3c0.1,0.1,0.2,0.3,0.3,0.4c0.1,0.2,0.1,0.3,0.1,0.5
			v2.6c0,0,0,0-0.1,0h-3v1.8c0,0,0,0,0,0h1.6c0,0,0,0,0,0v-0.9c0,0,0-0.1,0.1-0.1h1.3c0,0,0,0,0,0.1v0.7c0,0.2,0,0.4-0.1,0.5
			c-0.1,0.2-0.2,0.3-0.3,0.4c-0.1,0.1-0.2,0.2-0.4,0.3c-0.2,0.1-0.3,0.1-0.5,0.1h-2c-0.4,0-0.7-0.1-0.9-0.4
			c-0.3-0.3-0.4-0.6-0.4-0.9v-4.3c0-0.2,0-0.3,0.1-0.5c0.1-0.2,0.2-0.3,0.3-0.4c0.1-0.1,0.3-0.2,0.4-0.3c0.2-0.1,0.3-0.1,0.5-0.1
			H364z M362.1,231.3h1.7v-1.8c0,0,0-0.1,0-0.1h-1.6c0,0,0,0,0,0.1V231.3z"/>
		<path fill="#FFFFFF" d="M369.7,231.3v-1.8c0,0,0,0,0,0h-1.5c0,0,0,0,0,0v0.8c0,0,0,0.1-0.1,0.1h-1.3c0,0,0,0,0-0.1v-0.7
			c0-0.2,0-0.3,0.1-0.5c0.1-0.2,0.2-0.3,0.3-0.4c0.1-0.1,0.2-0.2,0.4-0.3c0.2-0.1,0.3-0.1,0.5-0.1h1.9c0.2,0,0.3,0,0.5,0.1
			c0.2,0.1,0.3,0.2,0.4,0.3c0.1,0.1,0.2,0.3,0.3,0.4c0.1,0.2,0.1,0.3,0.1,0.5v5.6c0,0,0,0,0,0l0,0h-3.3c-0.2,0-0.3,0-0.5-0.1
			c-0.2-0.1-0.3-0.2-0.4-0.3c-0.1-0.1-0.2-0.3-0.3-0.4c-0.1-0.2-0.1-0.3-0.1-0.5v-1.3c0-0.2,0-0.3,0.1-0.5s0.2-0.3,0.3-0.4
			c0.1-0.1,0.2-0.2,0.4-0.3c0.2-0.1,0.3-0.1,0.5-0.1H369.7z M369.7,232.3H368c0,0,0,0,0,0v1.7c0,0,0,0.1,0,0.1h1.7c0,0,0,0,0-0.1
			V232.3z"/>
		<path fill="#FFFFFF" d="M379.1,231.3v-1.8c0,0,0,0,0,0h-1.5c0,0,0,0,0,0v0.8c0,0,0,0.1-0.1,0.1h-1.3c0,0,0,0,0-0.1v-0.7
			c0-0.2,0-0.3,0.1-0.5c0.1-0.2,0.2-0.3,0.3-0.4c0.1-0.1,0.2-0.2,0.4-0.3c0.2-0.1,0.3-0.1,0.5-0.1h1.9c0.2,0,0.3,0,0.5,0.1
			c0.2,0.1,0.3,0.2,0.4,0.3c0.1,0.1,0.2,0.3,0.3,0.4c0.1,0.2,0.1,0.3,0.1,0.5v5.6c0,0,0,0,0,0l0,0h-3.3c-0.2,0-0.3,0-0.5-0.1
			c-0.2-0.1-0.3-0.2-0.4-0.3c-0.1-0.1-0.2-0.3-0.3-0.4c-0.1-0.2-0.1-0.3-0.1-0.5v-1.3c0-0.2,0-0.3,0.1-0.5s0.2-0.3,0.3-0.4
			c0.1-0.1,0.2-0.2,0.4-0.3c0.2-0.1,0.3-0.1,0.5-0.1H379.1z M379.1,232.3h-1.7c0,0,0,0,0,0v1.7c0,0,0,0.1,0,0.1h1.7c0,0,0,0,0-0.1
			V232.3z"/>
		<path fill="#FFFFFF" d="M383.5,225.1C383.5,225.1,383.5,225.1,383.5,225.1l0.1,10.1c0,0,0,0.1-0.1,0.1h-1.4c0,0-0.1,0-0.1-0.1
			v-10.1c0,0,0,0,0.1,0H383.5z"/>
		<path fill="#FFFFFF" d="M386.6,225.4C386.6,225.4,386.6,225.4,386.6,225.4l0.1,1.4c0,0,0,0.1-0.1,0.1h-1.4c0,0-0.1,0-0.1-0.1v-1.4
			c0,0,0,0,0.1,0H386.6z M386.6,228.3C386.6,228.3,386.6,228.3,386.6,228.3l0.1,6.9c0,0,0,0.1-0.1,0.1h-1.4c0,0-0.1,0-0.1-0.1v-6.8
			c0,0,0,0,0.1,0H386.6z"/>
		<path fill="#FFFFFF" d="M391.4,238C391.4,238,391.4,238,391.4,238l-0.1-2.8h-1.9c-0.4,0-0.7-0.1-0.9-0.4c-0.2-0.3-0.4-0.6-0.4-0.9
			v-4.3c0-0.4,0.1-0.7,0.4-0.9s0.6-0.4,0.9-0.4h2.1c0.4,0,0.7,0.1,0.9,0.4c0.2,0.3,0.4,0.6,0.4,0.9v0v8.3c0,0,0,0-0.1,0H391.4z
			 M389.6,234C389.6,234,389.7,234.1,389.6,234l1.7,0c0,0,0.1,0,0.1,0v-4.4c0,0,0,0-0.1,0h-1.6c0,0,0,0,0,0.1V234z"/>
		<path fill="#FFFFFF" d="M395.6,235.2L395.6,235.2c-0.2,0-0.3,0-0.5-0.1c-0.2-0.1-0.3-0.2-0.4-0.3c-0.1-0.1-0.2-0.3-0.3-0.4
			s-0.1-0.3-0.1-0.5v-5.5c0,0,0,0,0,0h1.4c0,0,0,0,0,0v5.6c0,0,0,0,0,0h1.7c0,0,0,0,0,0v-5.6c0,0,0,0,0,0h1.4c0,0,0,0,0,0v5.5
			c0,0.2,0,0.4-0.1,0.5s-0.2,0.3-0.3,0.4c-0.1,0.1-0.3,0.2-0.4,0.3c-0.2,0.1-0.3,0.1-0.5,0.1H395.6z"/>
		<path fill="#FFFFFF" d="M403.6,231.3v-1.8c0,0,0,0,0,0H402c0,0,0,0,0,0v0.8c0,0,0,0.1-0.1,0.1h-1.3c0,0,0,0,0-0.1v-0.7
			c0-0.2,0-0.3,0.1-0.5c0.1-0.2,0.2-0.3,0.3-0.4c0.1-0.1,0.2-0.2,0.4-0.3c0.2-0.1,0.3-0.1,0.5-0.1h1.9c0.2,0,0.3,0,0.5,0.1
			c0.2,0.1,0.3,0.2,0.4,0.3c0.1,0.1,0.2,0.3,0.3,0.4c0.1,0.2,0.1,0.3,0.1,0.5v5.6c0,0,0,0,0,0l0,0h-3.3c-0.2,0-0.3,0-0.5-0.1
			c-0.2-0.1-0.3-0.2-0.4-0.3c-0.1-0.1-0.2-0.3-0.3-0.4c-0.1-0.2-0.1-0.3-0.1-0.5v-1.3c0-0.2,0-0.3,0.1-0.5s0.2-0.3,0.3-0.4
			c0.1-0.1,0.2-0.2,0.4-0.3c0.2-0.1,0.3-0.1,0.5-0.1H403.6z M403.6,232.3h-1.7c0,0,0,0,0,0v1.7c0,0,0,0.1,0,0.1h1.7c0,0,0,0,0-0.1
			V232.3z"/>
		<path fill="#FFFFFF" d="M409.9,228.3c0.2,0,0.3,0,0.5,0.1c0.2,0.1,0.3,0.2,0.4,0.3c0.1,0.1,0.2,0.3,0.3,0.4
			c0.1,0.2,0.1,0.3,0.1,0.5v5.5c0,0,0,0,0,0h-1.4c0,0,0,0,0,0v-5.6c0,0,0,0,0,0h-1.7c0,0,0,0,0,0v5.6c0,0,0,0,0,0h-1.4c0,0,0,0,0,0
			v-5.5c0-0.2,0-0.4,0.1-0.5c0.1-0.2,0.2-0.3,0.3-0.4c0.1-0.1,0.3-0.2,0.4-0.3c0.2-0.1,0.3-0.1,0.5-0.1h0H409.9z"/>
		<path fill="#FFFFFF" d="M414,235.2c-0.4,0-0.7-0.1-0.9-0.4s-0.4-0.6-0.4-0.9v-4.3c0-0.4,0.1-0.7,0.4-0.9c0.2-0.3,0.6-0.4,0.9-0.4
			h1.9v-3.2c0,0,0,0,0.1,0h1.4c0,0,0.1,0,0.1,0c0,1.4,0,2.6,0,3.7s0,1.9,0,2.7s0,1.3,0,1.8c0,0.5,0,0.9,0,1.1s0,0.5,0,0.6
			c0,0.1,0,0.2,0,0.2c0,0,0,0,0,0H414z M414.2,234.1C414.2,234.1,414.2,234.1,414.2,234.1l1.7,0.1c0,0,0.1,0,0.1,0v-4.5
			c0,0,0,0-0.1,0h-1.6c0,0,0,0,0,0V234.1z"/>
		<path fill="#FFFFFF" d="M422.1,228.3c0.4,0,0.7,0.1,0.9,0.4c0.2,0.3,0.4,0.6,0.4,0.9v4.3c0,0.4-0.1,0.7-0.4,0.9s-0.6,0.4-0.9,0.4
			h0h-2h0c-0.4,0-0.7-0.1-0.9-0.4c-0.2-0.3-0.4-0.6-0.4-0.9v-4.3c0-0.4,0.1-0.7,0.4-0.9c0.2-0.3,0.5-0.4,0.9-0.4H422.1z M422,229.5
			C422,229.5,421.9,229.5,422,229.5l-1.5,0c0,0-0.1,0-0.1,0v4.5c0,0,0,0,0.1,0.1h1.5c0,0,0,0,0-0.1V229.5z"/>
		<path fill="#FFFFFF" d="M431.6,228.3c0.4,0,0.7,0.1,0.9,0.4c0.2,0.3,0.4,0.6,0.4,0.9v4.3c0,0.4-0.1,0.7-0.4,0.9s-0.6,0.4-0.9,0.4
			h-1.9v2.7c0,0,0,0-0.1,0h-1.4c0,0-0.1,0-0.1,0c0-1.4,0-2.6,0-3.6s0-1.9,0-2.6s0-1.3,0-1.7c0-0.4,0-0.8,0-1c0-0.2,0-0.4,0-0.5
			s0-0.2,0-0.2c0,0,0,0,0,0H431.6z M431.4,229.6C431.4,229.6,431.4,229.6,431.4,229.6l-1.7-0.1c0,0-0.1,0-0.1,0v4.4c0,0,0,0,0.1,0
			h1.6c0,0,0,0,0,0V229.6z"/>
		<path fill="#FFFFFF" d="M435.7,228.3h2c0,0,0,0,0,0v1.1c0,0,0,0,0,0h-1.8c0,0,0,0,0,0v5.6c0,0,0,0,0,0h-1.4c0,0,0,0,0,0v-5.5
			c0-0.2,0-0.4,0.1-0.5c0.1-0.2,0.2-0.3,0.3-0.4c0.1-0.1,0.3-0.2,0.4-0.3C435.3,228.4,435.5,228.3,435.7,228.3z"/>
		<path fill="#FFFFFF" d="M442,228.3c0.4,0,0.7,0.1,0.9,0.4c0.2,0.3,0.4,0.6,0.4,0.9v4.3c0,0.4-0.1,0.7-0.4,0.9s-0.6,0.4-0.9,0.4h0
			h-2h0c-0.4,0-0.7-0.1-0.9-0.4c-0.2-0.3-0.4-0.6-0.4-0.9v-4.3c0-0.4,0.1-0.7,0.4-0.9c0.2-0.3,0.5-0.4,0.9-0.4H442z M441.8,229.5
			C441.8,229.5,441.8,229.5,441.8,229.5l-1.5,0c0,0-0.1,0-0.1,0v4.5c0,0,0,0,0.1,0.1h1.5c0,0,0,0,0-0.1V229.5z"/>
		<path fill="#FFFFFF" d="M446,235.2c-0.4,0-0.7-0.1-0.9-0.4s-0.4-0.6-0.4-0.9v-4.3c0-0.4,0.1-0.7,0.4-0.9c0.2-0.3,0.6-0.4,0.9-0.4
			h1.9v-3.2c0,0,0,0,0.1,0h1.4c0,0,0.1,0,0.1,0c0,1.4,0,2.6,0,3.7s0,1.9,0,2.7s0,1.3,0,1.8c0,0.5,0,0.9,0,1.1s0,0.5,0,0.6
			c0,0.1,0,0.2,0,0.2c0,0,0,0,0,0H446z M446.2,234.1C446.2,234.1,446.2,234.1,446.2,234.1l1.7,0.1c0,0,0.1,0,0.1,0v-4.5
			c0,0,0,0-0.1,0h-1.6c0,0,0,0,0,0V234.1z"/>
		<path fill="#FFFFFF" d="M454.2,228.3c0.2,0,0.3,0,0.5,0.1c0.2,0.1,0.3,0.2,0.4,0.3c0.1,0.1,0.2,0.3,0.3,0.4
			c0.1,0.2,0.1,0.3,0.1,0.5v2.6c0,0,0,0-0.1,0h-3v1.8c0,0,0,0,0,0h1.6c0,0,0,0,0,0v-0.9c0,0,0-0.1,0.1-0.1h1.3c0,0,0,0,0,0.1v0.7
			c0,0.2,0,0.4-0.1,0.5c-0.1,0.2-0.2,0.3-0.3,0.4c-0.1,0.1-0.2,0.2-0.4,0.3c-0.2,0.1-0.3,0.1-0.5,0.1h-2c-0.4,0-0.7-0.1-0.9-0.4
			c-0.3-0.3-0.4-0.6-0.4-0.9v-4.3c0-0.2,0-0.3,0.1-0.5c0.1-0.2,0.2-0.3,0.3-0.4c0.1-0.1,0.3-0.2,0.4-0.3c0.2-0.1,0.3-0.1,0.5-0.1
			H454.2z M452.4,231.3h1.7v-1.8c0,0,0-0.1,0-0.1h-1.6c0,0,0,0,0,0.1V231.3z"/>
		<path fill="#FFFFFF" d="M458.5,230.5c0.4,0.2,0.9,0.4,1.2,0.6c0.3,0.2,0.6,0.3,0.9,0.4s0.4,0.2,0.5,0.2c0.3,0.2,0.4,0.4,0.4,0.7
			l0,1.5c0,0.2,0,0.3-0.1,0.5c-0.1,0.2-0.2,0.3-0.3,0.4c-0.1,0.1-0.3,0.2-0.4,0.3c-0.2,0.1-0.3,0.1-0.5,0.1h-2c-0.2,0-0.3,0-0.5-0.1
			c-0.2-0.1-0.3-0.2-0.4-0.3c-0.1-0.1-0.2-0.3-0.3-0.4c-0.1-0.2-0.1-0.3-0.1-0.5v-1h1.4v1.1c0,0,0,0,0,0h1.6c0,0,0,0,0,0v-1.2
			c0,0,0,0,0-0.1c-0.5-0.3-1-0.5-1.4-0.7c-0.2-0.1-0.3-0.2-0.5-0.3c-0.2-0.1-0.3-0.2-0.4-0.2c-0.1-0.1-0.2-0.1-0.3-0.2
			s-0.1-0.1-0.1-0.1c-0.1,0-0.1-0.1-0.1-0.1s0-0.1,0-0.2v-1.7c0-0.3,0.1-0.6,0.2-0.8c0.2-0.2,0.4-0.3,0.8-0.3h2.3
			c0.3,0,0.6,0.1,0.8,0.3c0.2,0.2,0.3,0.5,0.3,0.8v0.8H460v-0.8c0,0,0,0,0,0h-1.5l0,0c0,0,0,0,0,0v1L458.5,230.5
			C458.4,230.5,458.5,230.5,458.5,230.5z"/>
		<path fill="#FFFFFF" d="M464.5,230.5c0.4,0.2,0.9,0.4,1.2,0.6c0.3,0.2,0.6,0.3,0.9,0.4s0.4,0.2,0.5,0.2c0.3,0.2,0.4,0.4,0.4,0.7
			l0,1.5c0,0.2,0,0.3-0.1,0.5c-0.1,0.2-0.2,0.3-0.3,0.4c-0.1,0.1-0.3,0.2-0.4,0.3c-0.2,0.1-0.3,0.1-0.5,0.1h-2c-0.2,0-0.3,0-0.5-0.1
			c-0.2-0.1-0.3-0.2-0.4-0.3c-0.1-0.1-0.2-0.3-0.3-0.4c-0.1-0.2-0.1-0.3-0.1-0.5v-1h1.4v1.1c0,0,0,0,0,0h1.6c0,0,0,0,0,0v-1.2
			c0,0,0,0,0-0.1c-0.5-0.3-1-0.5-1.4-0.7c-0.2-0.1-0.3-0.2-0.5-0.3c-0.2-0.1-0.3-0.2-0.4-0.2c-0.1-0.1-0.2-0.1-0.3-0.2
			s-0.1-0.1-0.1-0.1c-0.1,0-0.1-0.1-0.1-0.1s0-0.1,0-0.2v-1.7c0-0.3,0.1-0.6,0.2-0.8c0.2-0.2,0.4-0.3,0.8-0.3h2.3
			c0.3,0,0.6,0.1,0.8,0.3c0.2,0.2,0.3,0.5,0.3,0.8v0.8H466v-0.8c0,0,0,0,0,0h-1.5l0,0c0,0,0,0,0,0v1L464.5,230.5
			C464.5,230.5,464.5,230.5,464.5,230.5z"/>
		<path fill="#FFFFFF" d="M472.2,228.3c0.2,0,0.3,0,0.5,0.1c0.2,0.1,0.3,0.2,0.4,0.3c0.1,0.1,0.2,0.3,0.3,0.4
			c0.1,0.2,0.1,0.3,0.1,0.5v2.6c0,0,0,0-0.1,0h-3v1.8c0,0,0,0,0,0h1.6c0,0,0,0,0,0v-0.9c0,0,0-0.1,0.1-0.1h1.3c0,0,0,0,0,0.1v0.7
			c0,0.2,0,0.4-0.1,0.5c-0.1,0.2-0.2,0.3-0.3,0.4c-0.1,0.1-0.2,0.2-0.4,0.3c-0.2,0.1-0.3,0.1-0.5,0.1h-2c-0.4,0-0.7-0.1-0.9-0.4
			c-0.3-0.3-0.4-0.6-0.4-0.9v-4.3c0-0.2,0-0.3,0.1-0.5c0.1-0.2,0.2-0.3,0.3-0.4c0.1-0.1,0.3-0.2,0.4-0.3c0.2-0.1,0.3-0.1,0.5-0.1
			H472.2z M470.4,231.3h1.7v-1.8c0,0,0-0.1,0-0.1h-1.6c0,0,0,0,0,0.1V231.3z"/>
		<path fill="#FFFFFF" d="M475.4,226.7C475.4,226.7,475.5,226.7,475.4,226.7l1.4,0c0,0,0,0,0.1,0v1.6h1c0,0,0,0,0,0.1v1.1
			c0,0,0,0,0,0.1h-1v5.7c0,0,0,0.1-0.1,0.1h-1.4c0,0-0.1,0-0.1-0.1v-5.7h-1c0,0,0,0,0-0.1v-1.1c0,0,0-0.1,0-0.1h1V226.7z"/>
		<path fill="#FFFFFF" d="M485.3,231.3v-1.8c0,0,0,0,0,0h-1.5c0,0,0,0,0,0v0.8c0,0,0,0.1-0.1,0.1h-1.3c0,0,0,0,0-0.1v-0.7
			c0-0.2,0-0.3,0.1-0.5c0.1-0.2,0.2-0.3,0.3-0.4c0.1-0.1,0.2-0.2,0.4-0.3c0.2-0.1,0.3-0.1,0.5-0.1h1.9c0.2,0,0.3,0,0.5,0.1
			c0.2,0.1,0.3,0.2,0.4,0.3c0.1,0.1,0.2,0.3,0.3,0.4c0.1,0.2,0.1,0.3,0.1,0.5v5.6c0,0,0,0,0,0l0,0h-3.3c-0.2,0-0.3,0-0.5-0.1
			c-0.2-0.1-0.3-0.2-0.4-0.3c-0.1-0.1-0.2-0.3-0.3-0.4c-0.1-0.2-0.1-0.3-0.1-0.5v-1.3c0-0.2,0-0.3,0.1-0.5s0.2-0.3,0.3-0.4
			c0.1-0.1,0.2-0.2,0.4-0.3c0.2-0.1,0.3-0.1,0.5-0.1H485.3z M485.3,232.3h-1.7c0,0,0,0,0,0v1.7c0,0,0,0.1,0,0.1h1.7c0,0,0,0,0-0.1
			V232.3z"/>
		<path fill="#FFFFFF" d="M488.9,226.7C488.9,226.7,488.9,226.7,488.9,226.7l1.4,0c0,0,0,0,0.1,0v1.6h1c0,0,0,0,0,0.1v1.1
			c0,0,0,0,0,0.1h-1v5.7c0,0,0,0.1-0.1,0.1h-1.4c0,0-0.1,0-0.1-0.1v-5.7h-1c0,0,0,0,0-0.1v-1.1c0,0,0-0.1,0-0.1h1V226.7z"/>
		<path fill="#FFFFFF" d="M493,233.7C493,233.7,493,233.7,493,233.7l0.1,2.7c0,0,0,0.1-0.1,0.1l-0.9-1.2h-0.8c0,0-0.1,0-0.1-0.1
			v-1.4c0,0,0,0,0.1,0H493z"/>
		<path fill="#FFFFFF" d="M500.6,228.3c0.2,0,0.3,0,0.5,0.1c0.2,0.1,0.3,0.2,0.4,0.3c0.1,0.1,0.2,0.3,0.3,0.4
			c0.1,0.2,0.1,0.3,0.1,0.5v2.6c0,0,0,0-0.1,0h-3v1.8c0,0,0,0,0,0h1.6c0,0,0,0,0,0v-0.9c0,0,0-0.1,0.1-0.1h1.3c0,0,0,0,0,0.1v0.7
			c0,0.2,0,0.4-0.1,0.5c-0.1,0.2-0.2,0.3-0.3,0.4c-0.1,0.1-0.2,0.2-0.4,0.3c-0.2,0.1-0.3,0.1-0.5,0.1h-2c-0.4,0-0.7-0.1-0.9-0.4
			c-0.3-0.3-0.4-0.6-0.4-0.9v-4.3c0-0.2,0-0.3,0.1-0.5c0.1-0.2,0.2-0.3,0.3-0.4c0.1-0.1,0.3-0.2,0.4-0.3c0.2-0.1,0.3-0.1,0.5-0.1
			H500.6z M498.8,231.3h1.7v-1.8c0,0,0-0.1,0-0.1h-1.6c0,0,0,0,0,0.1V231.3z"/>
		<path fill="#FFFFFF" d="M504.9,230.5c0.4,0.2,0.9,0.4,1.2,0.6c0.3,0.2,0.6,0.3,0.9,0.4s0.4,0.2,0.5,0.2c0.3,0.2,0.4,0.4,0.4,0.7
			l0,1.5c0,0.2,0,0.3-0.1,0.5c-0.1,0.2-0.2,0.3-0.3,0.4c-0.1,0.1-0.3,0.2-0.4,0.3c-0.2,0.1-0.3,0.1-0.5,0.1h-2c-0.2,0-0.3,0-0.5-0.1
			c-0.2-0.1-0.3-0.2-0.4-0.3c-0.1-0.1-0.2-0.3-0.3-0.4c-0.1-0.2-0.1-0.3-0.1-0.5v-1h1.4v1.1c0,0,0,0,0,0h1.6c0,0,0,0,0,0v-1.2
			c0,0,0,0,0-0.1c-0.5-0.3-1-0.5-1.4-0.7c-0.2-0.1-0.3-0.2-0.5-0.3c-0.2-0.1-0.3-0.2-0.4-0.2c-0.1-0.1-0.2-0.1-0.3-0.2
			s-0.1-0.1-0.1-0.1c-0.1,0-0.1-0.1-0.1-0.1s0-0.1,0-0.2v-1.7c0-0.3,0.1-0.6,0.2-0.8c0.2-0.2,0.4-0.3,0.8-0.3h2.3
			c0.3,0,0.6,0.1,0.8,0.3c0.2,0.2,0.3,0.5,0.3,0.8v0.8h-1.4v-0.8c0,0,0,0,0,0h-1.5l0,0c0,0,0,0,0,0v1L504.9,230.5
			C504.9,230.5,504.9,230.5,504.9,230.5z"/>
		<path fill="#FFFFFF" d="M509.9,226.7C509.9,226.7,509.9,226.7,509.9,226.7l1.4,0c0,0,0,0,0.1,0v1.6h1c0,0,0,0,0,0.1v1.1
			c0,0,0,0,0,0.1h-1v5.7c0,0,0,0.1-0.1,0.1h-1.4c0,0-0.1,0-0.1-0.1v-5.7h-1c0,0,0,0,0-0.1v-1.1c0,0,0-0.1,0-0.1h1V226.7z"/>
		<path fill="#FFFFFF" d="M518.2,225.4C518.2,225.4,518.3,225.4,518.2,225.4l0.1,1.4c0,0,0,0.1-0.1,0.1h-1.4c0,0-0.1,0-0.1-0.1v-1.4
			c0,0,0,0,0.1,0H518.2z M518.2,228.3C518.2,228.3,518.3,228.3,518.2,228.3l0.1,6.9c0,0,0,0.1-0.1,0.1h-1.4c0,0-0.1,0-0.1-0.1v-6.8
			c0,0,0,0,0.1,0H518.2z"/>
		<path fill="#FFFFFF" d="M519.8,229.6c0-0.2,0-0.3,0.1-0.5c0.1-0.2,0.2-0.3,0.3-0.4c0.1-0.1,0.2-0.2,0.4-0.3
			c0.2-0.1,0.3-0.1,0.5-0.1h1.8c0.2,0,0.3,0,0.5,0.1c0.2,0.1,0.3,0.2,0.4,0.3c0.1,0.1,0.2,0.3,0.3,0.4c0.1,0.2,0.1,0.3,0.1,0.5v7.1
			c0,0.2,0,0.4-0.1,0.5c-0.1,0.2-0.2,0.3-0.3,0.4c-0.1,0.1-0.3,0.2-0.4,0.3s-0.3,0.1-0.5,0.1H521c-0.2,0-0.3,0-0.5-0.1
			c-0.2-0.1-0.3-0.2-0.4-0.3c-0.1-0.1-0.2-0.3-0.3-0.4c-0.1-0.2-0.1-0.3-0.1-0.5v-0.5c0,0,0-0.1,0-0.1h1.3c0,0,0.1,0,0.1,0.1v0.6
			c0,0,0,0,0,0h1.4c0,0,0,0,0,0v-1.5h-1.6c-0.3,0-0.6-0.2-0.9-0.4c-0.2-0.2-0.4-0.5-0.4-0.9V229.6z M522.7,229.6
			C522.7,229.6,522.7,229.6,522.7,229.6l-1.4-0.1c0,0,0,0,0,0.1v4.4h1.4V229.6z"/>
		<path fill="#FFFFFF" d="M529,228.3c0.2,0,0.3,0,0.5,0.1c0.2,0.1,0.3,0.2,0.4,0.3c0.1,0.1,0.2,0.3,0.3,0.4c0.1,0.2,0.1,0.3,0.1,0.5
			v5.5c0,0,0,0,0,0h-1.4c0,0,0,0,0,0v-5.6c0,0,0,0,0,0h-1.7c0,0,0,0,0,0v5.6c0,0,0,0,0,0h-1.4c0,0,0,0,0,0v-5.5c0-0.2,0-0.4,0.1-0.5
			c0.1-0.2,0.2-0.3,0.3-0.4c0.1-0.1,0.3-0.2,0.4-0.3c0.2-0.1,0.3-0.1,0.5-0.1h0H529z"/>
		<path fill="#FFFFFF" d="M535,228.3c0.4,0,0.7,0.1,0.9,0.4c0.2,0.3,0.4,0.6,0.4,0.9v4.3c0,0.4-0.1,0.7-0.4,0.9s-0.6,0.4-0.9,0.4h0
			h-2h0c-0.4,0-0.7-0.1-0.9-0.4c-0.2-0.3-0.4-0.6-0.4-0.9v-4.3c0-0.4,0.1-0.7,0.4-0.9c0.2-0.3,0.5-0.4,0.9-0.4H535z M534.8,229.5
			C534.8,229.5,534.8,229.5,534.8,229.5l-1.5,0c0,0-0.1,0-0.1,0v4.5c0,0,0,0,0.1,0.1h1.5c0,0,0,0,0-0.1V229.5z"/>
		<path fill="#FFFFFF" d="M538.3,226.7C538.3,226.7,538.3,226.7,538.3,226.7l1.4,0c0,0,0,0,0.1,0v1.6h1c0,0,0,0,0,0.1v1.1
			c0,0,0,0,0,0.1h-1v5.7c0,0,0,0.1-0.1,0.1h-1.4c0,0-0.1,0-0.1-0.1v-5.7h-1c0,0,0,0,0-0.1v-1.1c0,0,0-0.1,0-0.1h1V226.7z"/>
		<path fill="#FFFFFF" d="M544.8,231.3v-1.8c0,0,0,0,0,0h-1.5c0,0,0,0,0,0v0.8c0,0,0,0.1-0.1,0.1h-1.3c0,0,0,0,0-0.1v-0.7
			c0-0.2,0-0.3,0.1-0.5c0.1-0.2,0.2-0.3,0.3-0.4c0.1-0.1,0.2-0.2,0.4-0.3c0.2-0.1,0.3-0.1,0.5-0.1h1.9c0.2,0,0.3,0,0.5,0.1
			c0.2,0.1,0.3,0.2,0.4,0.3c0.1,0.1,0.2,0.3,0.3,0.4c0.1,0.2,0.1,0.3,0.1,0.5v5.6c0,0,0,0,0,0l0,0h-3.3c-0.2,0-0.3,0-0.5-0.1
			c-0.2-0.1-0.3-0.2-0.4-0.3c-0.1-0.1-0.2-0.3-0.3-0.4c-0.1-0.2-0.1-0.3-0.1-0.5v-1.3c0-0.2,0-0.3,0.1-0.5s0.2-0.3,0.3-0.4
			c0.1-0.1,0.2-0.2,0.4-0.3c0.2-0.1,0.3-0.1,0.5-0.1H544.8z M544.8,232.3h-1.7c0,0,0,0,0,0v1.7c0,0,0,0.1,0,0.1h1.7c0,0,0,0,0-0.1
			V232.3z"/>
		<path fill="#FFFFFF" d="M364.7,241.9C364.7,241.9,364.7,241.9,364.7,241.9l0.1,10.1c0,0,0,0.1-0.1,0.1h-1.4c0,0-0.1,0-0.1-0.1
			v-10.1c0,0,0,0,0.1,0H364.7z"/>
		<path fill="#FFFFFF" d="M367.8,242.2C367.8,242.2,367.8,242.2,367.8,242.2l0.1,1.4c0,0,0,0.1-0.1,0.1h-1.4c0,0-0.1,0-0.1-0.1v-1.4
			c0,0,0,0,0.1,0H367.8z M367.8,245.1C367.8,245.1,367.8,245.1,367.8,245.1l0.1,6.9c0,0,0,0.1-0.1,0.1h-1.4c0,0-0.1,0-0.1-0.1v-6.8
			c0,0,0,0,0.1,0H367.8z"/>
		<path fill="#FFFFFF" d="M370.8,241.9C370.8,241.9,370.8,241.9,370.8,241.9l0.1,3.3h1.8c0.2,0,0.3,0,0.5,0.1
			c0.2,0.1,0.3,0.2,0.4,0.3c0.1,0.1,0.2,0.3,0.3,0.4c0.1,0.2,0.1,0.3,0.1,0.5v4.3c0,0.4-0.1,0.7-0.4,0.9c-0.2,0.3-0.6,0.4-0.9,0.4
			h-2c-0.2,0-0.4,0-0.5-0.1c-0.2-0.1-0.3-0.2-0.4-0.3c-0.1-0.1-0.2-0.3-0.3-0.4c-0.1-0.2-0.1-0.3-0.1-0.5v0v-8.8c0,0,0,0,0.1,0
			H370.8z M372.6,246.4C372.6,246.4,372.6,246.4,372.6,246.4l-1.7,0c0,0-0.1,0-0.1,0v4.4c0,0,0,0,0.1,0h1.6c0,0,0,0,0-0.1V246.4z"/>
		<path fill="#FFFFFF" d="M376.8,245.1h2c0,0,0,0,0,0v1.1c0,0,0,0,0,0h-1.8c0,0,0,0,0,0v5.6c0,0,0,0,0,0h-1.4c0,0,0,0,0,0v-5.5
			c0-0.2,0-0.4,0.1-0.5c0.1-0.2,0.2-0.3,0.3-0.4c0.1-0.1,0.3-0.2,0.4-0.3C376.5,245.2,376.7,245.1,376.8,245.1z"/>
		<path fill="#FFFFFF" d="M381.5,242.2C381.5,242.2,381.5,242.2,381.5,242.2l0.1,1.4c0,0,0,0.1-0.1,0.1h-1.4c0,0-0.1,0-0.1-0.1v-1.4
			c0,0,0,0,0.1,0H381.5z M381.5,245.1C381.5,245.1,381.5,245.1,381.5,245.1l0.1,6.9c0,0,0,0.1-0.1,0.1h-1.4c0,0-0.1,0-0.1-0.1v-6.8
			c0,0,0,0,0.1,0H381.5z"/>
		<path fill="#FFFFFF" d="M384.7,247.3c0.4,0.2,0.9,0.4,1.2,0.6c0.3,0.2,0.6,0.3,0.9,0.4s0.4,0.2,0.5,0.2c0.3,0.2,0.4,0.4,0.4,0.7
			l0,1.5c0,0.2,0,0.3-0.1,0.5c-0.1,0.2-0.2,0.3-0.3,0.4c-0.1,0.1-0.3,0.2-0.4,0.3c-0.2,0.1-0.3,0.1-0.5,0.1h-2c-0.2,0-0.3,0-0.5-0.1
			c-0.2-0.1-0.3-0.2-0.4-0.3c-0.1-0.1-0.2-0.3-0.3-0.4c-0.1-0.2-0.1-0.3-0.1-0.5v-1h1.4v1.1c0,0,0,0,0,0h1.6c0,0,0,0,0,0v-1.2
			c0,0,0,0,0-0.1c-0.5-0.3-1-0.5-1.4-0.7c-0.2-0.1-0.3-0.2-0.5-0.3c-0.2-0.1-0.3-0.2-0.4-0.2c-0.1-0.1-0.2-0.1-0.3-0.2
			s-0.1-0.1-0.1-0.1c-0.1,0-0.1-0.1-0.1-0.1s0-0.1,0-0.2v-1.7c0-0.3,0.1-0.6,0.2-0.8c0.2-0.2,0.4-0.3,0.8-0.3h2.3
			c0.3,0,0.6,0.1,0.8,0.3c0.2,0.2,0.3,0.5,0.3,0.8v0.8h-1.4v-0.8c0,0,0,0,0,0h-1.5l0,0c0,0,0,0,0,0v1L384.7,247.3
			C384.6,247.3,384.7,247.3,384.7,247.3z"/>
		<path fill="#FFFFFF" d="M394,247.3c0.4,0.2,0.9,0.4,1.2,0.6c0.3,0.2,0.6,0.3,0.9,0.4s0.4,0.2,0.5,0.2c0.3,0.2,0.4,0.4,0.4,0.7
			l0,1.5c0,0.2,0,0.3-0.1,0.5c-0.1,0.2-0.2,0.3-0.3,0.4c-0.1,0.1-0.3,0.2-0.4,0.3c-0.2,0.1-0.3,0.1-0.5,0.1h-2c-0.2,0-0.3,0-0.5-0.1
			c-0.2-0.1-0.3-0.2-0.4-0.3c-0.1-0.1-0.2-0.3-0.3-0.4c-0.1-0.2-0.1-0.3-0.1-0.5v-1h1.4v1.1c0,0,0,0,0,0h1.6c0,0,0,0,0,0v-1.2
			c0,0,0,0,0-0.1c-0.5-0.3-1-0.5-1.4-0.7c-0.2-0.1-0.3-0.2-0.5-0.3c-0.2-0.1-0.3-0.2-0.4-0.2c-0.1-0.1-0.2-0.1-0.3-0.2
			s-0.1-0.1-0.1-0.1c-0.1,0-0.1-0.1-0.1-0.1s0-0.1,0-0.2v-1.7c0-0.3,0.1-0.6,0.2-0.8c0.2-0.2,0.4-0.3,0.8-0.3h2.3
			c0.3,0,0.6,0.1,0.8,0.3c0.2,0.2,0.3,0.5,0.3,0.8v0.8h-1.4v-0.8c0,0,0,0,0,0H394l0,0c0,0,0,0,0,0v1L394,247.3
			C393.9,247.3,394,247.3,394,247.3z"/>
		<path fill="#FFFFFF" d="M399.9,242.2C399.9,242.2,400,242.2,399.9,242.2l0.1,1.4c0,0,0,0.1-0.1,0.1h-1.4c0,0-0.1,0-0.1-0.1v-1.4
			c0,0,0,0,0.1,0H399.9z M399.9,245.1C399.9,245.1,400,245.1,399.9,245.1l0.1,6.9c0,0,0,0.1-0.1,0.1h-1.4c0,0-0.1,0-0.1-0.1v-6.8
			c0,0,0,0,0.1,0H399.9z"/>
		<path fill="#FFFFFF" d="M401.5,246.4c0-0.2,0-0.3,0.1-0.5c0.1-0.2,0.2-0.3,0.3-0.4c0.1-0.1,0.2-0.2,0.4-0.3
			c0.2-0.1,0.3-0.1,0.5-0.1h1.8c0.2,0,0.3,0,0.5,0.1c0.2,0.1,0.3,0.2,0.4,0.3c0.1,0.1,0.2,0.3,0.3,0.4c0.1,0.2,0.1,0.3,0.1,0.5v7.1
			c0,0.2,0,0.4-0.1,0.5c-0.1,0.2-0.2,0.3-0.3,0.4c-0.1,0.1-0.3,0.2-0.4,0.3s-0.3,0.1-0.5,0.1h-1.8c-0.2,0-0.3,0-0.5-0.1
			c-0.2-0.1-0.3-0.2-0.4-0.3c-0.1-0.1-0.2-0.3-0.3-0.4c-0.1-0.2-0.1-0.3-0.1-0.5V253c0,0,0-0.1,0-0.1h1.3c0,0,0.1,0,0.1,0.1v0.6
			c0,0,0,0,0,0h1.4c0,0,0,0,0,0V252h-1.6c-0.3,0-0.6-0.2-0.9-0.4c-0.2-0.2-0.4-0.5-0.4-0.9V246.4z M404.4,246.4
			C404.4,246.4,404.4,246.4,404.4,246.4l-1.4-0.1c0,0,0,0,0,0.1v4.4h1.4V246.4z"/>
		<path fill="#FFFFFF" d="M410.7,245.1c0.2,0,0.3,0,0.5,0.1c0.2,0.1,0.3,0.2,0.4,0.3c0.1,0.1,0.2,0.3,0.3,0.4
			c0.1,0.2,0.1,0.3,0.1,0.5v5.5c0,0,0,0,0,0h-1.4c0,0,0,0,0,0v-5.6c0,0,0,0,0,0h-1.7c0,0,0,0,0,0v5.6c0,0,0,0,0,0h-1.4c0,0,0,0,0,0
			v-5.5c0-0.2,0-0.4,0.1-0.5c0.1-0.2,0.2-0.3,0.3-0.4c0.1-0.1,0.3-0.2,0.4-0.3c0.2-0.1,0.3-0.1,0.5-0.1h0H410.7z"/>
		<path fill="#FFFFFF" d="M415,242.2C415,242.2,415.1,242.2,415,242.2l0.1,1.4c0,0,0,0.1-0.1,0.1h-1.4c0,0-0.1,0-0.1-0.1v-1.4
			c0,0,0,0,0.1,0H415z M415,245.1C415,245.1,415.1,245.1,415,245.1l0.1,6.9c0,0,0,0.1-0.1,0.1h-1.4c0,0-0.1,0-0.1-0.1v-6.8
			c0,0,0,0,0.1,0H415z"/>
		<path fill="#FFFFFF" d="M420.3,245.2v1c0,0,0,0,0,0.1h-1.7v5.8c0,0,0,0,0,0h-1.4c0,0,0,0,0,0v-5.8h-0.5c0,0,0,0,0-0.1v-1
			c0,0,0-0.1,0-0.1h0.5v-1.6c0-0.4,0.1-0.7,0.4-0.9c0.3-0.3,0.6-0.4,0.9-0.4h1.6c0.2,0,0.3,0,0.5,0.1s0.3,0.2,0.4,0.3
			c0.1,0.1,0.2,0.3,0.3,0.4s0.1,0.3,0.1,0.5v0.7c0,0,0,0,0,0H420c0,0,0,0,0,0v-0.8c0,0,0,0,0,0h-1.3c0,0,0,0,0,0v1.7L420.3,245.2
			C420.3,245.1,420.3,245.1,420.3,245.2z"/>
		<path fill="#FFFFFF" d="M424.7,245.1c0.2,0,0.3,0,0.5,0.1c0.2,0.1,0.3,0.2,0.4,0.3c0.1,0.1,0.2,0.3,0.3,0.4
			c0.1,0.2,0.1,0.3,0.1,0.5v2.6c0,0,0,0-0.1,0h-3v1.8c0,0,0,0,0,0h1.6c0,0,0,0,0,0v-0.9c0,0,0-0.1,0.1-0.1h1.3c0,0,0,0,0,0.1v0.7
			c0,0.2,0,0.4-0.1,0.5c-0.1,0.2-0.2,0.3-0.3,0.4c-0.1,0.1-0.2,0.2-0.4,0.3c-0.2,0.1-0.3,0.1-0.5,0.1h-2c-0.4,0-0.7-0.1-0.9-0.4
			c-0.3-0.3-0.4-0.6-0.4-0.9v-4.3c0-0.2,0-0.3,0.1-0.5c0.1-0.2,0.2-0.3,0.3-0.4c0.1-0.1,0.3-0.2,0.4-0.3c0.2-0.1,0.3-0.1,0.5-0.1
			H424.7z M422.8,248.1h1.7v-1.8c0,0,0-0.1,0-0.1h-1.6c0,0,0,0,0,0.1V248.1z"/>
		<path fill="#FFFFFF" d="M428.7,245.1h2c0,0,0,0,0,0v1.1c0,0,0,0,0,0h-1.8c0,0,0,0,0,0v5.6c0,0,0,0,0,0h-1.4c0,0,0,0,0,0v-5.5
			c0-0.2,0-0.4,0.1-0.5c0.1-0.2,0.2-0.3,0.3-0.4c0.1-0.1,0.3-0.2,0.4-0.3C428.3,245.2,428.5,245.1,428.7,245.1z"/>
		<path fill="#FFFFFF" d="M433,252L433,252c-0.2,0-0.3,0-0.5-0.1c-0.2-0.1-0.3-0.2-0.4-0.3c-0.1-0.1-0.2-0.3-0.3-0.4
			s-0.1-0.3-0.1-0.5v-5.5c0,0,0,0,0,0h1.4c0,0,0,0,0,0v5.6c0,0,0,0,0,0h1.7c0,0,0,0,0,0v-5.6c0,0,0,0,0,0h1.4c0,0,0,0,0,0v5.5
			c0,0.2,0,0.4-0.1,0.5s-0.2,0.3-0.3,0.4c-0.1,0.1-0.3,0.2-0.4,0.3c-0.2,0.1-0.3,0.1-0.5,0.1H433z"/>
		<path fill="#FFFFFF" d="M437.9,246.5c0-0.4,0.1-0.7,0.4-0.9c0.2-0.3,0.6-0.4,0.9-0.4h1.1c0.2,0,0.4,0,0.5,0.1
			c0.1,0.1,0.3,0.2,0.3,0.3s0.2,0.2,0.2,0.3c0,0.1,0.1,0.2,0.1,0.3c0-0.1,0-0.2,0-0.3c0-0.1,0.1-0.2,0.1-0.3
			c0.1-0.1,0.2-0.2,0.4-0.3c0.2-0.1,0.4-0.1,0.6-0.1h1.1c0.2,0,0.3,0,0.5,0.1c0.2,0.1,0.3,0.2,0.4,0.3c0.1,0.1,0.2,0.3,0.3,0.4
			c0.1,0.2,0.1,0.3,0.1,0.5v5.5c0,0,0,0-0.1,0h-1.4c0,0-0.1,0-0.1,0v-5.5c0-0.1,0-0.1-0.1-0.1h-0.7c-0.1,0-0.3,0-0.4,0.1
			c-0.1,0.1-0.2,0.2-0.2,0.4v5.1c0,0,0,0-0.1,0h-1.1c0,0-0.1,0-0.1,0v-5.1c0-0.2-0.1-0.3-0.2-0.4c-0.1-0.1-0.3-0.1-0.4-0.1h-0.8
			c-0.1,0-0.1,0-0.1,0.1v5.5c0,0,0,0-0.1,0h-1.4c0,0-0.1,0-0.1,0V246.5z"/>
		<path fill="#FFFFFF" d="M449.7,254.8C449.7,254.8,449.7,254.8,449.7,254.8l-0.1-2.8h-1.9c-0.4,0-0.7-0.1-0.9-0.4
			c-0.2-0.3-0.4-0.6-0.4-0.9v-4.3c0-0.4,0.1-0.7,0.4-0.9s0.6-0.4,0.9-0.4h2.1c0.4,0,0.7,0.1,0.9,0.4c0.2,0.3,0.4,0.6,0.4,0.9v0v8.3
			c0,0,0,0-0.1,0H449.7z M447.9,250.8C447.9,250.8,447.9,250.9,447.9,250.8l1.7,0c0,0,0.1,0,0.1,0v-4.4c0,0,0,0-0.1,0H448
			c0,0,0,0,0,0.1V250.8z"/>
		<path fill="#FFFFFF" d="M453.9,252L453.9,252c-0.2,0-0.3,0-0.5-0.1c-0.2-0.1-0.3-0.2-0.4-0.3c-0.1-0.1-0.2-0.3-0.3-0.4
			s-0.1-0.3-0.1-0.5v-5.5c0,0,0,0,0,0h1.4c0,0,0,0,0,0v5.6c0,0,0,0,0,0h1.7c0,0,0,0,0,0v-5.6c0,0,0,0,0,0h1.4c0,0,0,0,0,0v5.5
			c0,0.2,0,0.4-0.1,0.5s-0.2,0.3-0.3,0.4c-0.1,0.1-0.3,0.2-0.4,0.3c-0.2,0.1-0.3,0.1-0.5,0.1H453.9z"/>
		<path fill="#FFFFFF" d="M462.1,245.1c0.2,0,0.3,0,0.5,0.1c0.2,0.1,0.3,0.2,0.4,0.3c0.1,0.1,0.2,0.3,0.3,0.4
			c0.1,0.2,0.1,0.3,0.1,0.5v2.6c0,0,0,0-0.1,0h-3v1.8c0,0,0,0,0,0h1.6c0,0,0,0,0,0v-0.9c0,0,0-0.1,0.1-0.1h1.3c0,0,0,0,0,0.1v0.7
			c0,0.2,0,0.4-0.1,0.5c-0.1,0.2-0.2,0.3-0.3,0.4c-0.1,0.1-0.2,0.2-0.4,0.3c-0.2,0.1-0.3,0.1-0.5,0.1h-2c-0.4,0-0.7-0.1-0.9-0.4
			c-0.3-0.3-0.4-0.6-0.4-0.9v-4.3c0-0.2,0-0.3,0.1-0.5c0.1-0.2,0.2-0.3,0.3-0.4c0.1-0.1,0.3-0.2,0.4-0.3c0.2-0.1,0.3-0.1,0.5-0.1
			H462.1z M460.2,248.1h1.7v-1.8c0,0,0-0.1,0-0.1h-1.6c0,0,0,0,0,0.1V248.1z"/>
		<path fill="#FFFFFF" d="M468.6,243.5C468.6,243.5,468.6,243.5,468.6,243.5l1.4,0c0,0,0,0,0.1,0v1.6h1c0,0,0,0,0,0.1v1.1
			c0,0,0,0,0,0.1h-1v5.7c0,0,0,0.1-0.1,0.1h-1.4c0,0-0.1,0-0.1-0.1v-5.7h-1c0,0,0,0,0-0.1v-1.1c0,0,0-0.1,0-0.1h1V243.5z"/>
		<path fill="#FFFFFF" d="M475.4,245.1c0.2,0,0.3,0,0.5,0.1c0.2,0.1,0.3,0.2,0.4,0.3c0.1,0.1,0.2,0.3,0.3,0.4
			c0.1,0.2,0.1,0.3,0.1,0.5v2.6c0,0,0,0-0.1,0h-3v1.8c0,0,0,0,0,0h1.6c0,0,0,0,0,0v-0.9c0,0,0-0.1,0.1-0.1h1.3c0,0,0,0,0,0.1v0.7
			c0,0.2,0,0.4-0.1,0.5c-0.1,0.2-0.2,0.3-0.3,0.4c-0.1,0.1-0.2,0.2-0.4,0.3c-0.2,0.1-0.3,0.1-0.5,0.1h-2c-0.4,0-0.7-0.1-0.9-0.4
			c-0.3-0.3-0.4-0.6-0.4-0.9v-4.3c0-0.2,0-0.3,0.1-0.5c0.1-0.2,0.2-0.3,0.3-0.4c0.1-0.1,0.3-0.2,0.4-0.3c0.2-0.1,0.3-0.1,0.5-0.1
			H475.4z M473.6,248.1h1.7v-1.8c0,0,0-0.1,0-0.1h-1.6c0,0,0,0,0,0.1V248.1z"/>
		<path fill="#FFFFFF" d="M479.2,250.6C479.3,250.6,479.3,250.6,479.2,250.6l0.1,1.4c0,0,0,0.1-0.1,0.1h-1.6c0,0-0.1,0-0.1-0.1v-1.3
			c0,0,0,0,0.1,0H479.2z"/>
	</g>
	<g>
		<g>
			<polygon fill="#F2C0B5" points="231.2,595.3 227.6,355.5 257.7,333.6 264.1,306.1 281,282.1 268.3,276.4 252.1,289.8 
				238.7,308.9 229.5,205.1 216.1,203.2 213.3,273.3 203.9,189.1 189.7,192.4 189.7,274.3 184.6,203.7 171.4,206 167.1,283.7 
				162.4,235.7 149.3,239.5 149.7,321.8 169,363.5 164.8,595.3 			"/>
			<polygon fill="#FEE6D1" points="393.9,595.3 390.4,468.3 420.5,446.3 426.9,418.8 443.8,394.8 431.1,389.1 414.9,402.5 
				401.5,421.6 392.3,317.8 378.9,315.9 376,386.1 366.6,301.8 352.5,305.1 352.5,387 347.3,316.4 334.1,318.8 329.9,396.4 
				325.2,348.4 312,352.2 312.5,434.5 331.8,476.3 327.6,595.3 			"/>
			<polygon fill="#FEE6D1" points="70.1,595.3 73.6,375.7 43.5,353.7 37.1,326.2 20.2,302.2 32.9,296.5 49.1,310 62.5,329 
				71.7,225.2 85.1,223.4 88,293.5 97.4,209.2 111.5,212.5 111.5,294.4 116.7,223.8 129.8,226.2 134.1,303.8 138.8,255.8 152,259.6 
				151.5,342 132.2,383.7 136.4,595.3 			"/>
			<polygon fill="#FEE6D1" points="642.4,595.3 646,355.5 615.9,333.6 609.5,306.1 592.6,282.1 605.3,276.4 621.5,289.8 
				634.9,308.9 644.1,205.1 657.5,203.2 660.3,273.3 669.7,189.1 683.9,192.4 683.9,274.3 689,203.7 702.2,206 706.5,283.7 
				711.2,235.7 724.3,239.5 723.9,321.8 704.6,363.5 708.8,595.3 			"/>
			<polygon fill="#F2C0B5" points="739.8,595.3 743.3,421.5 713.2,399.6 706.9,372.1 689.9,348 702.6,342.4 718.9,355.8 
				732.3,374.9 741.5,271.1 754.9,269.2 757.7,339.3 767.1,255.1 781.2,258.4 781.2,340.3 786.4,269.7 799.6,272 803.8,349.7 
				808.5,301.7 821.7,305.5 821.2,387.8 801.9,429.5 806.2,595.3 			"/>
			<polygon fill="#C2B59B" points="201.9,595.3 205.4,509.1 175.3,487.2 168.9,459.7 152,435.7 164.7,430 180.9,443.4 194.3,462.5 
				203.5,358.7 216.9,356.8 219.7,427 229.2,342.7 243.3,346 243.3,427.9 248.4,357.3 261.6,359.7 265.9,437.3 270.6,389.3 
				283.7,393.1 283.3,475.4 264,517.1 268.2,595.3 			"/>
			<polygon fill="#C2B59B" points="638,595.3 636.5,537.4 666.6,515.4 673,487.9 689.9,463.9 677.2,458.2 661,471.6 647.6,490.7 
				638.4,386.9 625,385 622.2,455.2 612.7,370.9 598.6,374.2 598.6,456.1 593.4,385.5 580.3,387.9 576,465.5 571.3,417.5 
				558.1,421.3 558.6,503.6 577.9,545.4 575.9,595.3 			"/>
			<polygon fill="#F0CAA4" points="452,595.3 455.5,509.1 425.4,487.2 419.1,459.7 402.1,435.7 414.8,430 431.1,443.4 444.5,462.5 
				453.7,358.7 467.1,356.8 469.9,427 479.3,342.7 493.4,346 493.4,427.9 498.6,357.3 511.8,359.7 516,437.3 520.7,389.3 
				533.9,393.1 533.4,475.4 514.1,517.1 518.4,595.3 			"/>
		</g>
		<polygon fill="#DD5934" points="606.9,193.9 595.3,187.4 586.3,185.4 577.4,193.9 580.1,211.4 605.3,231.6 623.9,217.6 
			632.2,198.3 627.4,188.1 614,187.9 		"/>
		<polygon fill="#DD5934" points="538.8,468.6 527.2,462 518.3,460 509.3,468.6 512.1,486 537.3,506.2 555.9,492.2 564.1,472.9 
			559.4,462.7 545.9,462.5 		"/>
		<polygon fill="#DD5934" points="88.2,149.9 76.5,143.4 67.6,141.4 58.7,149.9 61.4,167.4 86.6,187.6 105.2,173.6 113.4,154.3 
			108.7,144.1 95.3,143.9 		"/>
		<polygon fill="#FEE200" points="707.7,442.6 715.9,437.9 722.1,436.6 728.4,442.6 726.5,454.8 708.8,469 695.7,459.2 689.9,445.7 
			693.3,438.5 702.7,438.3 		"/>
		<polygon fill="#FEE200" points="303.4,408.2 311.6,403.6 317.8,402.3 324.1,408.2 322.2,420.5 304.5,434.7 291.4,424.9 
			285.6,411.3 289,404.2 298.4,404 		"/>
		<polygon fill="#DD5934" points="425.2,355.7 421.2,353.5 418.2,352.8 415.2,355.7 416.2,361.5 424.6,368.3 430.9,363.6 
			433.7,357.2 432.1,353.7 427.5,353.6 		"/>
		<polygon fill="#FEE200" points="756.5,233.2 752.6,231 749.6,230.3 746.6,233.2 747.5,239.1 756,245.9 762.3,241.2 765,234.7 
			763.4,231.3 758.9,231.2 		"/>
		<polygon fill="#DD5934" points="86.8,447.9 82.9,445.7 79.9,445 76.9,447.9 77.8,453.8 86.3,460.6 92.5,455.9 95.3,449.4 
			93.7,445.9 89.2,445.8 		"/>
		<polygon fill="#DD5934" points="260.1,246.1 264.9,243.4 268.6,242.6 272.3,246.1 271.2,253.4 260.7,261.8 253,256 249.6,248 
			251.5,243.7 257.1,243.6 		"/>
		<polygon fill="#FEE200" points="657.6,160 662.4,157.3 666.1,156.5 669.8,160 668.7,167.3 658.2,175.6 650.5,169.8 647.1,161.8 
			649.1,157.6 654.6,157.5 		"/>
		<polygon fill="#FEE200" points="139.3,178.9 146.4,174.9 151.9,173.7 157.3,178.9 155.7,189.5 140.3,201.8 128.9,193.3 
			123.9,181.6 126.8,175.3 135,175.2 		"/>
	</g>
	<polygon fill="#B37AB4" points="569.9,282 541.9,287.8 543.1,320.7 534,322.9 531.5,328.3 535.5,335.2 546.4,335.2 547.9,320.4 
		545.5,293.9 566.5,291 566.9,316.8 558.2,319.3 555.7,324.6 559.1,331.4 571,331 572.4,319.3 	"/>
	<polygon fill="#B37AB4" points="77.6,344.3 49.6,350.1 50.8,383 41.6,385.1 39.2,390.6 43.2,397.5 54.1,397.5 55.6,382.7 
		53.2,356.1 74.2,353.3 74.6,379.1 65.9,381.6 63.3,386.9 66.7,393.6 78.7,393.3 80.1,381.6 	"/>
	<polygon fill="#EF5BA1" points="231.1,121.4 203.1,127.2 204.4,160.1 195.2,162.2 192.8,167.7 196.7,174.6 207.7,174.6 
		209.2,159.7 206.7,133.2 227.7,130.4 228.2,156.2 219.5,158.7 216.9,164 220.3,170.7 232.3,170.4 233.7,158.7 	"/>
	<polygon fill="#EF5BA1" points="826.5,174.9 798.5,180.7 799.7,213.6 790.6,215.7 788.1,221.2 792.1,228.1 803,228.1 804.5,213.3 
		802.1,186.7 823.1,183.9 823.6,209.7 814.9,212.2 812.3,217.5 815.7,224.2 827.7,223.9 829.1,212.2 	"/>
	<polygon fill="#EF5BA1" points="299.9,456.5 271.9,462.3 273.2,495.2 264,497.3 261.6,502.8 265.5,509.7 276.5,509.7 278,494.8 
		275.5,468.3 296.5,465.5 297,491.3 288.3,493.8 285.7,499.1 289.1,505.8 301.1,505.5 302.5,493.8 	"/>
	<polygon fill="#EF5BA1" points="533.5,272.1 530.6,264.7 515.1,267.9 516.3,301.6 507,303.7 504.5,309.3 508.5,316.4 519.7,316.4 
		521.2,301.2 518.8,274.1 	"/>
	<polygon fill="#EF5BA1" points="73.2,233.7 70.4,226.3 54.8,229.6 56,263.2 46.7,265.4 44.2,271 48.3,278 59.4,278 61,262.8 
		58.5,235.7 	"/>
	<polygon fill="#B37AB4" points="742.9,138 740.1,130.6 724.5,133.9 725.7,167.5 716.4,169.7 713.9,175.3 718,182.3 729.1,182.3 
		730.7,167.1 728.2,140 	"/>
	<polygon fill="#B37AB4" points="428,501.3 425.2,493.9 409.6,497.1 410.9,530.8 401.5,532.9 399,538.5 403.1,545.6 414.3,545.6 
		415.8,530.4 413.3,503.3 	"/>
</g>
</svg>
